<svg xmlns="http://www.w3.org/2000/svg" width="30" height="29.938" viewBox="0 0 30 29.938">
  <defs>
    <style>
      .cls-1 {
        fill: #274479;
      }

      .cls-1, .cls-2 {
        fill-rule: evenodd;
      }

      .cls-2 {
        fill: #0075c9;
      }
    </style>
  </defs>
  <path class="cls-1" d="M1820.1,337.142a3.957,3.957,0,1,1-3.95,3.956A3.956,3.956,0,0,1,1820.1,337.142Zm5.28,13.072v-1.2a3.959,3.959,0,0,0-3.96-3.957h-2.64a3.957,3.957,0,0,0-3.95,3.957v1.2h10.55Z" transform="translate(-1805 -329.656)"/>
  <path class="cls-2" d="M1820,332.126a12.427,12.427,0,0,1,10,5h-2.5v2.5h5a1.25,1.25,0,0,0,1.21-.947l1.25-5-2.42-.607-0.61,2.449a15.007,15.007,0,0,0-26.93,9.1h2.5a12.515,12.515,0,0,1,12.5-12.5h0Zm12.5,12.5a12.5,12.5,0,0,1-22.5,7.5h2.5v-2.5h-5a1.25,1.25,0,0,0-1.21.947l-1.25,5,2.42,0.607,0.61-2.449a15.007,15.007,0,0,0,26.93-9.1h-2.5Z" transform="translate(-1805 -329.656)"/>
</svg>
