<svg width="167" height="58" viewBox="0 0 167 58" fill="none" xmlns="http://www.w3.org/2000/svg">
<g clip-path="url(#clip0_60_124)">
<path fill-rule="evenodd" clip-rule="evenodd" d="M110.164 40.183C110.267 40.183 110.368 40.1525 110.454 40.0954C110.539 40.0383 110.606 39.9571 110.645 39.8622C110.685 39.7672 110.695 39.6627 110.675 39.5619C110.655 39.461 110.605 39.3684 110.532 39.2957C110.46 39.223 110.367 39.1735 110.266 39.1535C110.165 39.1334 110.06 39.1437 109.965 39.1831C109.87 39.2224 109.788 39.289 109.731 39.3745C109.674 39.46 109.643 39.5605 109.643 39.6633C109.643 39.7316 109.656 39.7992 109.683 39.8623C109.709 39.9255 109.747 39.9828 109.795 40.0311C109.844 40.0794 109.901 40.1177 109.965 40.1437C110.028 40.1698 110.096 40.1832 110.164 40.183ZM111.841 40.183C111.944 40.183 112.045 40.1525 112.13 40.0954C112.216 40.0383 112.283 39.9571 112.322 39.8622C112.362 39.7672 112.372 39.6627 112.352 39.5619C112.332 39.461 112.282 39.3684 112.209 39.2957C112.136 39.223 112.044 39.1735 111.942 39.1535C111.841 39.1334 111.737 39.1437 111.642 39.1831C111.546 39.2224 111.465 39.289 111.408 39.3745C111.35 39.46 111.32 39.5605 111.32 39.6633C111.32 39.8011 111.375 39.9333 111.473 40.0308C111.57 40.1283 111.703 40.183 111.841 40.183ZM140.087 40.183C140.19 40.1832 140.291 40.1529 140.377 40.0959C140.462 40.039 140.529 39.9579 140.569 39.8629C140.608 39.768 140.619 39.6634 140.599 39.5625C140.579 39.4616 140.529 39.3689 140.457 39.2961C140.384 39.2233 140.291 39.1737 140.19 39.1536C140.089 39.1334 139.984 39.1437 139.889 39.183C139.794 39.2223 139.712 39.2889 139.655 39.3744C139.598 39.4599 139.567 39.5604 139.567 39.6633C139.567 39.8009 139.622 39.933 139.719 40.0304C139.817 40.1278 139.949 40.1827 140.087 40.183ZM141.764 40.183C141.867 40.183 141.967 40.1525 142.053 40.0954C142.139 40.0383 142.205 39.9571 142.245 39.8622C142.284 39.7672 142.295 39.6627 142.275 39.5619C142.254 39.461 142.205 39.3684 142.132 39.2957C142.059 39.223 141.966 39.1735 141.865 39.1535C141.764 39.1334 141.659 39.1437 141.564 39.1831C141.469 39.2224 141.388 39.289 141.33 39.3745C141.273 39.46 141.243 39.5605 141.243 39.6633C141.243 39.8005 141.297 39.9323 141.394 40.0296C141.491 40.127 141.623 40.1822 141.76 40.183H141.764ZM152.041 41.424L151.951 40.7623C151.584 40.8251 150.741 41.0796 150.661 40.5035C150.641 40.359 150.677 40.2123 150.762 40.0935C150.847 39.9747 150.974 39.8929 151.118 39.8647C151.356 39.8382 151.597 39.8794 151.813 39.9838L152.03 39.3471C151.801 39.2523 151.552 39.2118 151.304 39.2287C151.056 39.2456 150.816 39.3195 150.601 39.4445C150.375 39.6048 150.216 39.8426 150.155 40.1125C150.093 40.3824 150.133 40.6654 150.268 40.9074L149.521 40.9313V41.4337C150.014 41.4539 150.507 41.4683 151.001 41.477C151.081 41.4759 151.695 41.4586 152.041 41.424ZM89.2884 46.8262C89.1854 46.8262 89.0847 46.8567 88.999 46.9138C88.9133 46.9709 88.8466 47.0521 88.8071 47.1471C88.7677 47.2421 88.7574 47.3466 88.7775 47.4474C88.7976 47.5482 88.8472 47.6408 88.9201 47.7135C88.9929 47.7862 89.0857 47.8357 89.1868 47.8558C89.2878 47.8758 89.3926 47.8655 89.4878 47.8262C89.583 47.7868 89.6643 47.7202 89.7216 47.6347C89.7788 47.5493 89.8094 47.4488 89.8094 47.346C89.8094 47.2777 89.7959 47.2101 89.7697 47.1471C89.7435 47.084 89.7052 47.0267 89.6568 46.9785C89.6084 46.9302 89.551 46.8919 89.4878 46.8658C89.4246 46.8397 89.3568 46.8262 89.2884 46.8262ZM90.9652 46.8262C90.8622 46.8262 90.7614 46.8567 90.6758 46.9138C90.5901 46.9709 90.5233 47.0521 90.4839 47.1471C90.4445 47.2421 90.4342 47.3466 90.4543 47.4474C90.4744 47.5482 90.524 47.6408 90.5969 47.7135C90.6697 47.7862 90.7625 47.8357 90.8636 47.8558C90.9646 47.8758 91.0694 47.8655 91.1646 47.8262C91.2598 47.7868 91.3411 47.7202 91.3983 47.6347C91.4556 47.5493 91.4861 47.4488 91.4861 47.346C91.4861 47.2087 91.4317 47.077 91.3347 46.9796C91.2377 46.8822 91.1061 46.8271 90.9685 46.8262H90.9652ZM152.914 46.8262C152.811 46.8262 152.71 46.8567 152.625 46.9138C152.539 46.9709 152.472 47.0521 152.433 47.1471C152.393 47.2421 152.383 47.3466 152.403 47.4474C152.423 47.5482 152.473 47.6408 152.546 47.7135C152.618 47.7862 152.711 47.8357 152.812 47.8558C152.913 47.8758 153.018 47.8655 153.113 47.8262C153.208 47.7868 153.29 47.7202 153.347 47.6347C153.404 47.5493 153.435 47.4488 153.435 47.346C153.435 47.2777 153.421 47.2101 153.395 47.1471C153.369 47.084 153.331 47.0267 153.282 46.9785C153.234 46.9302 153.176 46.8919 153.113 46.8658C153.05 46.8397 152.982 46.8262 152.914 46.8262ZM154.591 46.8262C154.488 46.826 154.387 46.8563 154.301 46.9133C154.215 46.9703 154.148 47.0514 154.109 47.1463C154.069 47.2413 154.059 47.3458 154.079 47.4467C154.099 47.5476 154.148 47.6403 154.221 47.7131C154.294 47.7859 154.387 47.8355 154.488 47.8557C154.589 47.8758 154.693 47.8656 154.789 47.8263C154.884 47.787 154.965 47.7204 155.023 47.6349C155.08 47.5494 155.111 47.4488 155.111 47.346C155.111 47.2083 155.056 47.0763 154.958 46.9788C154.861 46.8814 154.729 46.8265 154.591 46.8262ZM49.8932 48.0661C49.7902 48.0661 49.6895 48.0966 49.6038 48.1537C49.5182 48.2108 49.4514 48.2919 49.412 48.3869C49.3725 48.4819 49.3622 48.5864 49.3823 48.6872C49.4024 48.7881 49.452 48.8807 49.5249 48.9534C49.5977 49.026 49.6906 49.0755 49.7916 49.0956C49.8927 49.1157 49.9974 49.1054 50.0926 49.066C50.1878 49.0267 50.2691 48.9601 50.3264 48.8746C50.3836 48.7891 50.4142 48.6886 50.4142 48.5858C50.4143 48.5175 50.401 48.4498 50.3748 48.3866C50.3487 48.3234 50.3104 48.266 50.262 48.2176C50.2136 48.1692 50.1561 48.1308 50.0929 48.1047C50.0296 48.0785 49.9617 48.0661 49.8932 48.0661ZM51.57 48.0661C51.467 48.0659 51.3661 48.0962 51.2803 48.1531C51.1945 48.2101 51.1276 48.2912 51.088 48.3862C51.0484 48.4811 51.0379 48.5857 51.0579 48.6866C51.0779 48.7875 51.1274 48.8802 51.2002 48.953C51.273 49.0258 51.3658 49.0754 51.4669 49.0955C51.568 49.1157 51.6728 49.1054 51.7681 49.0661C51.8633 49.0268 51.9447 48.9602 52.002 48.8747C52.0593 48.7892 52.0899 48.6887 52.0899 48.5858C52.0902 48.4484 52.0359 48.3164 51.9388 48.2187C51.8418 48.1211 51.71 48.0658 51.5722 48.065L51.57 48.0661ZM79.333 42.2328C79.436 42.2328 79.5367 42.2023 79.6224 42.1452C79.7081 42.0881 79.7748 42.0069 79.8143 41.912C79.8537 41.817 79.864 41.7125 79.8439 41.6117C79.8238 41.5108 79.7742 41.4182 79.7014 41.3455C79.6285 41.2729 79.5357 41.2233 79.4346 41.2033C79.3336 41.1832 79.2288 41.1935 79.1336 41.2329C79.0385 41.2722 78.9571 41.3388 78.8998 41.4243C78.8426 41.5098 78.812 41.6103 78.812 41.7131C78.8123 41.8507 78.8674 41.9826 78.965 42.0799C79.0627 42.1771 79.195 42.2328 79.333 42.2328ZM55.578 41.2236C55.6811 41.2236 55.7818 41.1931 55.8674 41.136C55.9531 41.0789 56.0199 40.9977 56.0593 40.9028C56.0987 40.8078 56.1091 40.7033 56.089 40.6025C56.0689 40.5016 56.0192 40.409 55.9464 40.3363C55.8735 40.2636 55.7807 40.2141 55.6797 40.1941C55.5786 40.174 55.4739 40.1843 55.3787 40.2237C55.2835 40.263 55.2021 40.3296 55.1449 40.4151C55.0876 40.5006 55.0571 40.6011 55.0571 40.7039C55.0571 40.7721 55.0706 40.8396 55.0968 40.9026C55.1229 40.9656 55.1613 41.0228 55.2097 41.071C55.2581 41.1192 55.3155 41.1574 55.3787 41.1834C55.4419 41.2094 55.5097 41.2238 55.578 41.2236ZM165.044 39.3698V45.752H165.942V39.3687L165.044 39.3698ZM134.757 45.752H135.654V39.3687H134.757V45.752ZM83.1196 45.752H84.0226V39.3687H83.1239V45.751L83.1196 45.752ZM162.688 44.444C162.688 44.6059 162.623 44.761 162.509 44.8755C162.394 44.99 162.238 45.0544 162.076 45.0547H159.573C159.59 45.0363 159.606 45.019 159.62 44.9995C159.762 44.808 159.856 44.5848 159.893 44.3492C159.929 44.1136 159.908 43.8726 159.831 43.647C159.722 43.2464 159.375 42.0228 158.495 42.0065H158.474C157.443 42.0065 156.81 43.7282 156.693 44.0758C156.586 44.3941 156.503 44.7199 156.444 45.0504C156.057 45.0601 154.223 45.0504 154.223 45.0504C154.307 44.8593 154.35 44.6527 154.35 44.444V42.2566H153.451V44.444C153.451 44.6059 153.387 44.7613 153.272 44.8758C153.157 44.9904 153.001 45.0547 152.839 45.0547H152.296C152.134 45.0544 151.979 44.99 151.864 44.8755C151.749 44.761 151.685 44.6059 151.684 44.444V42.2566H150.787V44.444C150.786 44.6059 150.722 44.761 150.607 44.8755C150.492 44.99 150.337 45.0544 150.175 45.0547H142.52C142.358 45.0544 142.202 44.99 142.088 44.8755C141.973 44.761 141.908 44.6059 141.908 44.444V41.1327H141.011V41.5658C140.593 41.6902 140.184 41.8432 139.787 42.0238C139.377 42.1508 139.002 42.3706 138.692 42.6661C138.381 42.9616 138.143 43.3247 137.997 43.7271C137.961 43.8796 137.964 44.0385 138.005 44.1896C138.046 44.3408 138.123 44.4795 138.231 44.5934C138.494 44.8001 138.796 44.9523 139.119 45.0414C139.442 45.1304 139.779 45.1545 140.112 45.1121C140.453 45.1096 140.794 45.0861 141.132 45.0417C141.248 45.3132 141.442 45.5448 141.689 45.7076C141.936 45.8704 142.225 45.9574 142.521 45.9578H150.17C150.452 45.6783 150.834 45.5214 151.231 45.5214C151.629 45.5214 152.01 45.6783 152.292 45.9578H152.835C153.221 45.9575 153.592 45.8095 153.871 45.5441V45.9491C153.871 45.9491 156.022 45.9589 156.361 45.9491C156.325 46.3775 156.425 46.8062 156.645 47.1752C156.866 47.5442 157.198 47.8349 157.593 48.0065C157.847 48.1088 158.119 48.1607 158.394 48.1592C158.727 48.1765 159.059 48.103 159.355 47.9466C159.65 47.7902 159.897 47.5568 160.069 47.2713C160.171 47.0555 160.208 46.8147 160.174 46.5786C160.14 46.3424 160.038 46.1213 159.879 45.9426H162.071C162.471 45.9423 162.855 45.7834 163.138 45.5008C163.422 45.2182 163.581 44.835 163.581 44.4353V39.3687H162.683V44.444H162.688ZM138.884 43.9708C138.873 43.96 138.867 43.9535 138.877 43.9026C138.985 43.3611 140.079 42.8056 141.011 42.4949V44.1408C140.301 44.2869 139.563 44.2287 138.884 43.9708ZM157.543 44.3617C157.666 43.7805 157.995 43.263 158.468 42.9031C158.757 43.1549 158.934 43.5095 158.963 43.8907C159.002 43.9817 159.018 44.0812 159.007 44.1798C158.997 44.2783 158.962 44.3726 158.905 44.4537C158.468 44.8085 157.921 45 157.358 44.9951C157.409 44.7803 157.47 44.5681 157.543 44.3595V44.3617ZM159.266 46.889C159.105 47.0728 158.889 47.2007 158.651 47.2543C158.412 47.3078 158.162 47.2842 157.938 47.1868C157.705 47.0721 157.513 46.8879 157.39 46.6598C157.266 46.4316 157.217 46.1708 157.249 45.9134C157.725 45.8805 158.196 45.7888 158.65 45.6405L158.474 45.9502C158.687 46.0044 158.879 46.1238 159.021 46.2918C159.163 46.4597 159.249 46.6678 159.266 46.8869V46.889ZM72.5184 45.751H73.4171V39.3687H72.5184V45.751ZM70.159 44.444C70.159 44.6058 70.0947 44.7609 69.9801 44.8754C69.8655 44.9899 69.7101 45.0544 69.548 45.0547H67.7778C67.793 45.0233 67.8082 44.9919 67.8213 44.9583C68.0412 44.2997 67.9937 43.5813 67.6888 42.9572C67.5696 42.6578 67.3674 42.3985 67.1058 42.2096C66.8442 42.0207 66.5341 41.9101 66.2118 41.8907H66.2031C65.8746 41.91 65.5585 42.0221 65.2914 42.2138C65.0243 42.4055 64.8173 42.6689 64.6945 42.9735C64.5516 43.2746 64.4294 43.585 64.3288 43.9026C64.0509 44.719 63.937 45.0579 63.0383 45.0579H62.1701C62.0671 44.3689 61.8049 43.7133 61.4042 43.1427C61.0036 42.5722 60.4755 42.1024 59.8617 41.7705L59.4482 42.5663C59.9145 42.8247 60.3186 43.1813 60.6326 43.6115C60.9466 44.0416 61.1627 44.5348 61.2661 45.0569H58.4573V45.9535H63.0373C63.5339 45.9847 64.0252 45.8363 64.421 45.5355C64.9365 45.827 65.5218 45.9726 66.1141 45.9567C66.3988 45.9645 66.6827 45.9228 66.953 45.8333C67.0034 45.8139 67.0526 45.7918 67.1006 45.7672V45.9567H69.5469C69.9473 45.9561 70.3311 45.7971 70.6141 45.5145C70.8971 45.2319 71.0562 44.8489 71.0565 44.4494V39.3687H70.1579V44.444H70.159ZM66.9867 44.6291C66.9572 44.7118 66.9102 44.787 66.8487 44.8496C66.7872 44.9123 66.7128 44.9608 66.6307 44.9919C66.0634 45.1105 65.4729 45.0441 64.9463 44.8024C65.0344 44.6003 65.1123 44.394 65.1797 44.1841C65.2679 43.9044 65.3749 43.6309 65.4998 43.3655C65.5531 43.2143 65.6468 43.0805 65.7707 42.9786C65.8947 42.8767 66.0442 42.8105 66.2031 42.7872C66.3562 42.8083 66.5004 42.8716 66.6193 42.9702C66.7383 43.0687 66.8272 43.1985 66.876 43.3449C67.0722 43.7436 67.1105 44.2014 66.9834 44.627L66.9867 44.6291ZM119.651 41.8939H119.643C119.315 41.9133 118.998 42.0253 118.731 42.217C118.464 42.4087 118.257 42.6722 118.135 42.9767C117.991 43.2774 117.869 43.5875 117.768 43.9047C117.491 44.7212 117.376 45.059 116.478 45.059H112.817C112.654 45.0587 112.499 44.9943 112.384 44.8798C112.269 44.7654 112.205 44.6102 112.204 44.4483V41.1327H111.306V41.5658C110.888 41.6904 110.479 41.8435 110.083 42.0238C109.673 42.1508 109.298 42.3706 108.987 42.6661C108.677 42.9616 108.439 43.3247 108.292 43.7271C108.256 43.8796 108.259 44.0386 108.3 44.1898C108.341 44.3409 108.419 44.4796 108.526 44.5934C108.79 44.8 109.091 44.9523 109.414 45.0414C109.737 45.1304 110.074 45.1545 110.406 45.1121C110.748 45.1096 111.089 45.0861 111.427 45.0417C111.544 45.3132 111.737 45.5448 111.984 45.7076C112.231 45.8704 112.521 45.9574 112.817 45.9578H116.473C116.97 45.9896 117.462 45.8407 117.858 45.5387C118.633 45.955 119.538 46.0619 120.39 45.8376C120.588 45.7626 120.767 45.6466 120.917 45.4973C121.067 45.348 121.183 45.1687 121.258 44.9713C121.478 44.3128 121.431 43.5944 121.127 42.9702C121.009 42.6687 120.808 42.407 120.547 42.2159C120.285 42.0248 119.974 41.9124 119.651 41.8917V41.8939ZM109.179 43.9719C109.169 43.961 109.161 43.9545 109.172 43.9036C109.281 43.3622 110.374 42.8067 111.306 42.496V44.1419C110.595 44.2876 109.857 44.2279 109.179 43.9697V43.9719ZM120.426 44.6313C120.396 44.7142 120.349 44.7897 120.288 44.8526C120.226 44.9154 120.152 44.9641 120.07 44.9951C119.502 45.114 118.912 45.0479 118.385 44.8067C118.473 44.6047 118.551 44.3983 118.619 44.1884C118.709 43.9082 118.817 43.6344 118.944 43.3687C118.997 43.2175 119.091 43.0837 119.215 42.9817C119.339 42.8798 119.488 42.8137 119.647 42.7905C119.801 42.8115 119.945 42.8749 120.064 42.9734C120.183 43.072 120.271 43.2018 120.32 43.3482C120.516 43.7467 120.553 44.2041 120.426 44.6291V44.6313ZM104.713 44.444C104.712 44.6059 104.648 44.761 104.533 44.8755C104.418 44.99 104.263 45.0544 104.101 45.0547H103.551C103.389 45.0544 103.234 44.99 103.119 44.8755C103.004 44.761 102.94 44.6059 102.939 44.444V39.3687H102.038V44.444C102.038 44.6059 101.974 44.761 101.859 44.8755C101.744 44.99 101.589 45.0544 101.426 45.0547H100.139C100.176 44.577 100.113 44.0968 99.9533 43.6449C99.7935 43.1931 99.5408 42.7796 99.2113 42.431C98.3528 41.7239 97.1926 42.17 96.3645 42.6811C95.8819 42.9871 95.4336 43.3439 95.0275 43.7456V39.3709H94.1288V45.0547H90.4388C90.5248 44.8625 90.5692 44.6544 90.5691 44.444V42.2566H89.6715V44.444C89.6712 44.6059 89.6066 44.761 89.4919 44.8755C89.3772 44.99 89.2217 45.0544 89.0594 45.0547H87.1699C87.0077 45.0544 86.8521 44.99 86.7374 44.8755C86.6227 44.761 86.5581 44.6059 86.5578 44.444V42.2566H85.6592V45.7434C85.6592 46.0737 85.5277 46.3906 85.2937 46.6243C85.0597 46.858 84.7422 46.9894 84.4111 46.9897V47.8874C84.9669 47.8867 85.5008 47.6712 85.9009 47.2862C86.3009 46.9012 86.536 46.3766 86.5567 45.8224C86.7497 45.9083 86.9587 45.9525 87.1699 45.9524H89.0659C89.3582 45.9526 89.6442 45.8676 89.8886 45.7076V45.9524H101.43C101.712 45.6729 102.093 45.516 102.49 45.516C102.888 45.516 103.269 45.6729 103.551 45.9524H104.101C104.501 45.9518 104.885 45.7928 105.168 45.5102C105.451 45.2276 105.61 44.8445 105.61 44.4451V39.3687H104.713V44.444ZM95.0307 44.7277C95.4048 44.3659 95.8097 44.0373 96.2408 43.7456C96.7173 43.379 97.268 43.1203 97.8547 42.9876C98.1001 42.931 98.358 42.9726 98.5731 43.1034C98.7477 43.2414 98.8803 43.4251 98.9562 43.634C99.1271 44.0895 99.2189 44.5706 99.2276 45.0569H95.0307V44.732V44.7277ZM56.4919 44.444C56.4916 44.6059 56.427 44.761 56.3122 44.8755C56.1975 44.99 56.042 45.0544 55.8798 45.0547H55.4793C55.3132 45.0568 55.1529 44.9941 55.0325 44.8801C54.9121 44.766 54.8411 44.6095 54.8346 44.444V43.2529C54.8395 43.0813 54.805 42.9109 54.7337 42.7548C54.6624 42.5986 54.5562 42.4608 54.4233 42.3519C54.2532 42.2291 54.0576 42.1459 53.851 42.1084C53.6444 42.0709 53.432 42.0801 53.2294 42.1354C52.8383 42.2119 52.4841 42.4168 52.2231 42.7174C51.9621 43.018 51.8094 43.3971 51.7893 43.7943V45.8517C51.7748 45.962 51.728 46.0656 51.6549 46.1495C51.5817 46.2335 51.4854 46.2941 51.3779 46.3238C51.0021 46.4572 50.5971 46.4875 50.2055 46.4113C49.8139 46.3351 49.4501 46.1553 49.152 45.8907C48.8543 45.5317 48.673 45.0908 48.6323 44.6267C48.5916 44.1625 48.6934 43.697 48.9241 43.2918L48.0862 42.967C47.3211 44.9605 48.0352 46.0563 48.5279 46.5317C49.1036 47.0633 49.8621 47.3536 50.6464 47.3427C51.0181 47.3473 51.3871 47.2781 51.7317 47.1392C52.0055 47.0465 52.2441 46.8722 52.4153 46.6398C52.5865 46.4074 52.6821 46.1281 52.689 45.8398V43.7943C52.7073 43.5984 52.7903 43.4142 52.9251 43.2707C53.0599 43.1272 53.2388 43.0325 53.4335 43.0016C53.5049 42.9782 53.5805 42.97 53.6553 42.9777C53.7301 42.9853 53.8024 43.0086 53.8676 43.046C53.8953 43.0707 53.9164 43.1018 53.9291 43.1365C53.9417 43.1713 53.9456 43.2087 53.9403 43.2453V44.4364C53.9499 44.8388 54.1166 45.2215 54.4049 45.503C54.6932 45.7846 55.0802 45.9427 55.4836 45.9437H55.883C56.2836 45.9434 56.6677 45.7845 56.9509 45.5019C57.2342 45.2193 57.3934 44.8361 57.3937 44.4364V42.2491H56.4951V44.444H56.4919ZM80.8644 45.8517C80.8501 45.9619 80.8035 46.0655 80.7306 46.1494C80.6576 46.2334 80.5614 46.294 80.4541 46.3238C80.078 46.4573 79.6729 46.4876 79.2812 46.4114C78.8894 46.3352 78.5253 46.1554 78.2271 45.8907C77.9297 45.5315 77.7487 45.0906 77.7082 44.6265C77.6677 44.1623 77.7695 43.6969 78.0003 43.2918L77.1613 42.967C76.4016 44.9605 77.1103 46.0563 77.6041 46.5317C78.1794 47.0632 78.9375 47.3536 79.7215 47.3427C80.0932 47.3473 80.4622 47.2781 80.8068 47.1392C81.0808 47.0467 81.3197 46.8724 81.4911 46.64C81.6625 46.4076 81.7581 46.1282 81.7651 45.8398V42.2447H80.8644V45.8517ZM132.401 44.444C132.401 44.6054 132.337 44.7602 132.223 44.8747C132.109 44.9891 131.954 45.0538 131.792 45.0547H131.466C130.715 45.0796 129.963 45.012 129.228 44.8533L129.296 44.797C129.593 44.5767 129.837 44.2921 130.01 43.9646C130.182 43.637 130.278 43.2749 130.29 42.9053C130.245 42.6919 130.141 42.4952 129.991 42.3372C129.84 42.1793 129.648 42.0663 129.437 42.0108L129.388 41.9914L129.338 41.9849C128.532 41.8827 127.718 41.875 126.91 41.9621H126.858L126.809 41.9794C126.63 42.0273 126.468 42.1224 126.339 42.2546C126.209 42.3869 126.118 42.5514 126.075 42.7309C126.084 43.1157 126.178 43.4937 126.349 43.8388C126.52 44.1838 126.764 44.4875 127.064 44.7288C127.119 44.7818 127.173 44.8371 127.236 44.8836C126.686 45.0076 126.123 45.0625 125.559 45.0471H124.241C124.079 45.0468 123.924 44.9824 123.809 44.8679C123.695 44.7534 123.63 44.5982 123.63 44.4364V39.3687H122.732V44.444C122.732 44.8434 122.892 45.2263 123.175 45.5088C123.458 45.7913 123.841 45.9504 124.241 45.9513H125.56C126.481 45.9998 127.4 45.8387 128.249 45.4803C129.282 45.8438 130.376 46.0035 131.47 45.9502H131.795C132.194 45.9471 132.575 45.7871 132.856 45.505C133.137 45.2229 133.294 44.8416 133.295 44.444V39.3687H132.396V44.444H132.401ZM128.711 44.1115C128.554 44.2453 128.387 44.3673 128.211 44.4765C128.021 44.3727 127.845 44.2442 127.688 44.0942C127.316 43.8026 127.055 43.3926 126.948 42.9323C126.973 42.8924 127.012 42.8628 127.057 42.849C127.758 42.7778 128.466 42.7847 129.165 42.8695C129.216 42.8824 129.263 42.9063 129.303 42.9397C129.344 42.973 129.376 43.0149 129.398 43.0623C129.314 43.4866 129.068 43.8619 128.713 44.1094L128.711 44.1115Z" fill="#58595B"/>
<path fill-rule="evenodd" clip-rule="evenodd" d="M47.6793 53.3947C47.6793 51.594 48.63 50.3953 50.0669 50.3953C50.4657 50.3925 50.8562 50.5085 51.1885 50.7284C51.5209 50.9483 51.7799 51.2621 51.9325 51.6297L51.1414 51.9935C51.0544 51.7785 50.9064 51.5934 50.7155 51.4611C50.5247 51.3288 50.2992 51.2549 50.0669 51.2485C49.2312 51.2485 48.669 52.0747 48.669 53.3947C48.669 54.7147 49.2312 55.5452 50.0669 55.5452C50.2497 55.5469 50.431 55.5107 50.5991 55.4389C50.7672 55.3671 50.9186 55.2614 51.0437 55.1283V54.0455H49.8119V53.2052H51.9683V55.5084C51.74 55.7916 51.4502 56.0195 51.1209 56.175C50.7916 56.3305 50.4312 56.4095 50.0669 56.4061C48.6245 56.4061 47.6793 55.1857 47.6793 53.3947ZM52.8887 54.1884C52.8533 53.9227 52.8732 53.6526 52.9472 53.395C53.0212 53.1373 53.1476 52.8976 53.3186 52.6909C53.4897 52.4842 53.7016 52.3149 53.9411 52.1936C54.1807 52.0723 54.4427 52.0016 54.7109 51.9859C55.8635 51.9859 56.4799 52.9508 56.4799 54.2242V54.4765H53.7786C53.767 54.6296 53.787 54.7834 53.8373 54.9285C53.8877 55.0736 53.9672 55.2069 54.0711 55.3201C54.1751 55.4334 54.3012 55.5241 54.4416 55.5869C54.5821 55.6496 54.7339 55.683 54.8878 55.6849C55.0699 55.6799 55.249 55.6373 55.4137 55.5598C55.5785 55.4823 55.7253 55.3715 55.845 55.2345L56.2705 55.7531C55.9906 56.0599 55.6199 56.2695 55.2124 56.3516C54.8048 56.4337 54.3817 56.3839 54.0045 56.2095C53.6273 56.0351 53.3157 55.7451 53.115 55.3818C52.9143 55.0185 52.835 54.5998 52.8887 54.1884ZM54.7033 52.6909C54.4262 52.7259 54.1737 52.8673 53.9995 53.0851C53.8252 53.3028 53.7429 53.5797 53.7699 53.8571H55.6258C55.645 53.7196 55.6362 53.5797 55.5998 53.4457C55.5634 53.3117 55.5002 53.1865 55.414 53.0776C55.3278 52.9686 55.2204 52.8782 55.0983 52.8117C54.9761 52.7453 54.8418 52.7042 54.7033 52.6909ZM59.7988 56.2946V53.4315C59.8173 53.3449 59.8151 53.255 59.7923 53.1694C59.7694 53.0837 59.7267 53.0046 59.6674 52.9386C59.6082 52.8725 59.5342 52.8213 59.4514 52.7892C59.3686 52.7571 59.2794 52.7449 59.191 52.7537C59.0078 52.7668 58.8312 52.8277 58.6789 52.9301C58.5266 53.0325 58.4038 53.1729 58.3227 53.3373V56.2956H57.4436V52.0942H58.3227V52.6562C58.4624 52.457 58.6466 52.2929 58.8607 52.1769C59.0749 52.061 59.3132 51.9963 59.5567 51.9881C59.7101 51.9695 59.8657 51.9864 60.0115 52.0376C60.1572 52.0887 60.2892 52.1727 60.3971 52.283C60.505 52.3933 60.586 52.527 60.6338 52.6736C60.6815 52.8202 60.6947 52.9758 60.6724 53.1283V56.2967H59.7933L59.7988 56.2946ZM61.6828 54.1895C61.6474 53.924 61.6673 53.654 61.7411 53.3965C61.815 53.139 61.9413 52.8994 62.112 52.6928C62.2828 52.4861 62.4945 52.3167 62.7338 52.1953C62.9731 52.0739 63.2349 52.003 63.5029 51.987C64.6565 51.987 65.2741 52.9518 65.2741 54.2253V54.4776H62.5706C62.5593 54.6306 62.5795 54.7843 62.63 54.9293C62.6804 55.0742 62.76 55.2074 62.8639 55.3205C62.9677 55.4337 63.0937 55.5245 63.234 55.5873C63.3743 55.6502 63.526 55.6838 63.6798 55.686C63.8621 55.6812 64.0414 55.6387 64.2064 55.5612C64.3713 55.4836 64.5183 55.3728 64.6381 55.2355L65.0614 55.7542C64.7827 56.0634 64.412 56.2752 64.0038 56.3586C63.5955 56.442 63.1712 56.3926 62.7932 56.2177C62.4151 56.0427 62.1033 55.7514 61.9034 55.3866C61.7036 55.0217 61.6263 54.6015 61.6828 54.1895ZM63.4953 52.692C63.2182 52.7267 62.9656 52.8681 62.7915 53.0859C62.6173 53.3038 62.5354 53.5809 62.563 53.8582H64.4199C64.4392 53.7205 64.4302 53.5804 64.3937 53.4463C64.3572 53.3122 64.2938 53.1869 64.2074 53.0779C64.121 52.9689 64.0133 52.8785 63.8909 52.8122C63.7686 52.7459 63.634 52.705 63.4953 52.692ZM66.2421 56.2956V52.0942H67.1213V52.7093C67.2413 52.5023 67.4112 52.3285 67.6158 52.2039C67.8203 52.0792 68.0529 52.0077 68.2923 51.9957V52.862C68.2171 52.8455 68.1403 52.8372 68.0633 52.8371C67.871 52.8507 67.6848 52.9106 67.5208 53.0117C67.3567 53.1128 67.2196 53.252 67.1213 53.4175V56.2989H66.2421V56.2956ZM71.33 56.2956V55.8668C71.1973 56.0354 71.0272 56.1709 70.833 56.2626C70.6388 56.3543 70.4259 56.3997 70.2111 56.3953C70.0312 56.3958 69.8532 56.3592 69.6882 56.2877C69.5233 56.2161 69.3749 56.1113 69.2526 55.9798C69.1302 55.8482 69.0365 55.6929 68.9773 55.5234C68.9181 55.3539 68.8948 55.1741 68.9087 54.9952C68.8941 54.8178 68.9172 54.6394 68.9766 54.4716C69.036 54.3038 69.1303 54.1504 69.2533 54.0216C69.3763 53.8927 69.5252 53.7913 69.6903 53.7239C69.8553 53.6566 70.0328 53.6248 70.2111 53.6308C70.4238 53.6228 70.6355 53.664 70.8296 53.7511C71.0237 53.8383 71.195 53.9691 71.33 54.1332V53.5247C71.3395 53.4149 71.3243 53.3045 71.2857 53.2013C71.247 53.0981 71.1859 53.0049 71.1066 52.9282C71.0273 52.8516 70.9319 52.7936 70.8273 52.7583C70.7227 52.7231 70.6116 52.7115 70.502 52.7244C70.3024 52.7268 70.1054 52.7707 69.9238 52.8533C69.7422 52.9359 69.5798 53.0554 69.447 53.2041L69.103 52.5934C69.5209 52.1935 70.0803 51.9744 70.6593 51.9838C70.8598 51.9536 71.0647 51.969 71.2584 52.0289C71.4521 52.0888 71.6297 52.1917 71.778 52.3298C71.9262 52.4679 72.0412 52.6377 72.1144 52.8264C72.1875 53.0151 72.217 53.2179 72.2004 53.4196V56.2924H71.3322L71.33 56.2956ZM71.33 55.3362V54.6995C71.2492 54.5583 71.1327 54.4406 70.9922 54.3582C70.8517 54.2758 70.6921 54.2314 70.5291 54.2296C70.3296 54.2424 70.1424 54.3305 70.0057 54.476C69.8689 54.6216 69.7928 54.8135 69.7928 55.013C69.7928 55.2125 69.8689 55.4045 70.0057 55.55C70.1424 55.6955 70.3296 55.7836 70.5291 55.7964C70.6911 55.7942 70.8498 55.7506 70.9901 55.6696C71.1303 55.5886 71.2474 55.4731 71.33 55.3341M73.4149 50.4895H74.2951V56.2935H73.4149V50.4895ZM80.669 56.2935L80.3521 55.1446H78.4235L78.1066 56.2935H77.0506L78.8012 50.4895H79.9712L81.7228 56.2935H80.669ZM79.3905 51.5182L78.6308 54.2924H80.1633L79.3905 51.5182ZM84.7356 56.2935V55.7369C84.5956 55.9371 84.4099 56.1013 84.1939 56.216C83.9778 56.3306 83.7376 56.3924 83.493 56.3963C83.3405 56.416 83.1856 56.4001 83.0404 56.3498C82.8951 56.2996 82.7636 56.2164 82.6561 56.1068C82.5485 55.9972 82.468 55.8642 82.4207 55.7183C82.3735 55.5724 82.3608 55.4175 82.3838 55.2659V52.091H83.2629V54.9627C83.2453 55.0487 83.2484 55.1377 83.2717 55.2223C83.2951 55.307 83.3381 55.3849 83.3973 55.4499C83.4565 55.5149 83.5302 55.565 83.6124 55.5963C83.6947 55.6275 83.7831 55.6389 83.8706 55.6297C84.052 55.6155 84.2269 55.5557 84.3787 55.4557C84.5306 55.3557 84.6545 55.2188 84.7389 55.058V52.091H85.619V56.2924H84.7389L84.7356 56.2935ZM86.9876 55.3525V52.8457H86.433V52.0877H86.9876V50.941H87.8678V52.0899H88.5732V52.8479H87.8678V55.1717C87.8678 55.4597 87.9644 55.6319 88.1934 55.6319C88.2559 55.634 88.3181 55.6226 88.3758 55.5985C88.4335 55.5744 88.4853 55.5381 88.5277 55.4922L88.7382 56.1419C88.5278 56.3217 88.2548 56.4116 87.9785 56.392C87.8399 56.4077 87.6995 56.391 87.5685 56.3431C87.4375 56.2952 87.3195 56.2176 87.2238 56.1162C87.1282 56.0149 87.0575 55.8927 87.0174 55.7594C86.9774 55.6261 86.969 55.4853 86.993 55.3482M91.8606 56.2891V53.412C91.8771 53.3256 91.8729 53.2365 91.8484 53.152C91.8239 53.0675 91.7798 52.9899 91.7197 52.9256C91.6595 52.8612 91.585 52.8119 91.5022 52.7817C91.4194 52.7515 91.3306 52.7411 91.243 52.7515C91.0618 52.7681 90.8877 52.8304 90.7372 52.9324C90.5867 53.0345 90.4646 53.1731 90.3824 53.3352V56.2935H89.5011V50.4895H90.3824V52.6551C90.5233 52.4556 90.7086 52.2915 90.9239 52.1755C91.1391 52.0596 91.3784 51.9951 91.6229 51.987C91.7755 51.9667 91.9307 51.9822 92.0763 52.0322C92.2219 52.0822 92.3538 52.1653 92.4616 52.2751C92.5693 52.3848 92.65 52.518 92.6971 52.6643C92.7442 52.8105 92.7566 52.9657 92.7332 53.1175V56.2956H91.8649L91.8606 56.2891ZM93.7371 54.1841C93.8022 53.8357 93.9655 53.513 94.2077 53.2539C94.45 52.9947 94.7612 52.8097 95.105 52.7205C95.4488 52.6314 95.8109 52.6418 96.149 52.7505C96.487 52.8592 96.7871 53.0618 97.014 53.3344C97.2409 53.6071 97.3853 53.9386 97.4302 54.2902C97.4752 54.6417 97.4189 54.9988 97.2679 55.3195C97.1168 55.6403 96.8773 55.9115 96.5775 56.1015C96.2776 56.2914 95.9297 56.3922 95.5745 56.392C95.304 56.3795 95.0392 56.3109 94.7969 56.1905C94.5546 56.0701 94.3401 55.9006 94.1672 55.6928C93.9942 55.485 93.8667 55.2435 93.7926 54.9837C93.7185 54.724 93.6996 54.4516 93.7371 54.1841ZM96.5078 54.1841C96.432 54.017 96.3124 53.8733 96.1617 53.7683C96.0109 53.6632 95.8346 53.6006 95.6512 53.587C95.4679 53.5734 95.2842 53.6094 95.1196 53.6911C94.955 53.7729 94.8154 53.8973 94.7157 54.0515C94.616 54.2056 94.5597 54.3837 94.5528 54.567C94.5459 54.7503 94.5886 54.9321 94.6765 55.0933C94.7644 55.2544 94.8941 55.389 95.0521 55.4828C95.2102 55.5766 95.3906 55.6263 95.5745 55.6264C95.7322 55.5957 95.882 55.5336 96.0151 55.4437C96.1481 55.3539 96.2616 55.2381 96.3488 55.1035C96.4359 54.9688 96.4949 54.8179 96.5223 54.66C96.5496 54.502 96.5447 54.3401 96.5078 54.1841ZM98.4179 56.2891V52.0877H99.2981V52.7028C99.4179 52.4956 99.5878 52.3217 99.7924 52.197C99.997 52.0723 100.23 52.0009 100.469 51.9892V52.8555C100.394 52.8388 100.316 52.8305 100.239 52.8306C100.047 52.8444 99.861 52.9044 99.6971 53.0055C99.5333 53.1065 99.3964 53.2457 99.2981 53.411V56.2924H98.4136L98.4179 56.2891ZM101.191 51.0157C101.192 50.8698 101.251 50.7303 101.355 50.6276C101.459 50.5248 101.599 50.467 101.745 50.4667C101.852 50.4691 101.955 50.5026 102.043 50.5632C102.13 50.6238 102.198 50.7087 102.237 50.8074C102.277 50.906 102.286 51.0141 102.265 51.1181C102.243 51.2222 102.191 51.3175 102.116 51.3924C102.04 51.4672 101.944 51.5182 101.84 51.539C101.735 51.5598 101.627 51.5494 101.528 51.5093C101.43 51.4691 101.345 51.4009 101.285 51.3132C101.225 51.2254 101.192 51.122 101.191 51.0157ZM101.299 52.0867H102.18V56.2881H101.299V52.0867ZM103.554 55.3471V52.8457H102.999V52.0877H103.558V50.941H104.438V52.0899H105.142V52.8479H104.438V55.1717C104.438 55.4597 104.537 55.6319 104.764 55.6319C104.826 55.6336 104.889 55.6221 104.946 55.598C105.004 55.5739 105.056 55.5379 105.099 55.4922L105.31 56.1419C105.099 56.3214 104.826 56.4113 104.55 56.392C104.411 56.4081 104.27 56.3916 104.139 56.3439C104.008 56.2962 103.89 56.2186 103.794 56.1172C103.698 56.0158 103.627 55.8935 103.587 55.76C103.547 55.6265 103.538 55.4855 103.562 55.3482M106.053 57.1662C106.141 57.2081 106.237 57.2295 106.334 57.229C106.443 57.2391 106.553 57.2092 106.642 57.1448C106.73 57.0805 106.793 56.9861 106.817 56.8793L106.995 56.3769L105.569 52.0888H106.503L107.444 55.2453L108.395 52.0888H109.327L107.647 57.0807C107.587 57.359 107.426 57.6056 107.196 57.7738C106.965 57.9419 106.681 58.0201 106.397 57.9935C106.237 57.9923 106.078 57.9723 105.923 57.934L106.053 57.1662ZM111.863 54.1841C111.928 53.8358 112.091 53.5131 112.333 53.254C112.575 52.9948 112.887 52.8098 113.23 52.7206C113.574 52.6314 113.936 52.6418 114.274 52.7504C114.612 52.859 114.912 53.0615 115.139 53.334C115.366 53.6066 115.511 53.938 115.556 54.2895C115.601 54.641 115.545 54.998 115.394 55.3188C115.243 55.6396 115.004 55.9109 114.704 56.1009C114.404 56.291 114.056 56.392 113.701 56.392C113.431 56.3794 113.166 56.3106 112.924 56.1902C112.681 56.0698 112.467 55.9003 112.294 55.6925C112.121 55.4848 111.993 55.2434 111.919 54.9837C111.845 54.7239 111.825 54.4516 111.863 54.1841ZM114.634 54.1841C114.559 54.017 114.439 53.8733 114.288 53.7683C114.138 53.6632 113.961 53.6006 113.778 53.587C113.594 53.5734 113.411 53.6094 113.246 53.6911C113.082 53.7729 112.942 53.8973 112.842 54.0515C112.743 54.2056 112.686 54.3837 112.679 54.567C112.673 54.7503 112.715 54.9321 112.803 55.0933C112.891 55.2544 113.021 55.389 113.179 55.4828C113.337 55.5766 113.517 55.6263 113.701 55.6264C113.859 55.5957 114.009 55.5336 114.142 55.4437C114.275 55.3539 114.388 55.2381 114.475 55.1035C114.563 54.9688 114.622 54.8179 114.649 54.66C114.676 54.502 114.671 54.3401 114.634 54.1841ZM116.72 56.2891V52.8457H116.167V52.0877H116.72V51.699C116.699 51.5325 116.714 51.3634 116.765 51.2033C116.816 51.0433 116.901 50.8963 117.015 50.7726C117.128 50.6488 117.268 50.5514 117.423 50.4869C117.579 50.4225 117.746 50.3927 117.914 50.3996C118.227 50.387 118.533 50.4943 118.768 50.6995L118.469 51.3059C118.419 51.2507 118.358 51.2067 118.289 51.1766C118.221 51.1466 118.147 51.1312 118.073 51.1316C118.002 51.1302 117.931 51.1448 117.866 51.1742C117.802 51.2036 117.744 51.2472 117.699 51.3016C117.653 51.3561 117.62 51.42 117.603 51.4888C117.585 51.5576 117.583 51.6294 117.597 51.699V52.0899H118.301V52.8479H117.597V56.2946H116.712L116.72 56.2891ZM121 53.3904C121 51.6438 121.922 50.3909 123.394 50.3909C123.797 50.3909 124.19 50.5132 124.522 50.7416C124.853 50.9701 125.107 51.2938 125.25 51.6698L124.44 52.0249C124.364 51.805 124.224 51.6129 124.038 51.4737C123.851 51.3344 123.627 51.2545 123.394 51.2442C122.526 51.2442 121.994 52.1473 121.994 53.3904C121.994 54.6335 122.53 55.5322 123.394 55.5322C123.637 55.5186 123.87 55.4289 124.06 55.2757C124.249 55.1225 124.385 54.9137 124.449 54.679L125.258 55.0374C125.128 55.4291 124.878 55.7703 124.544 56.0132C124.21 56.2561 123.807 56.3886 123.394 56.392C121.922 56.392 121 55.1316 121 53.3904ZM126.05 51.0157C126.052 50.8698 126.111 50.7305 126.215 50.6278C126.319 50.5251 126.459 50.4673 126.605 50.4667C126.75 50.4667 126.889 50.5242 126.992 50.6264C127.094 50.7287 127.152 50.8673 127.152 51.0119C127.152 51.1565 127.094 51.2952 126.992 51.3975C126.889 51.4997 126.75 51.5571 126.605 51.5571C126.46 51.5572 126.321 51.5006 126.217 51.3994C126.113 51.2982 126.053 51.1605 126.05 51.0157ZM126.166 52.0867H127.046V56.2881H126.166V52.0867ZM129.158 56.2881L127.758 52.0867H128.692L129.633 55.2529L130.583 52.0867H131.516L130.105 56.2881H129.149H129.158ZM132.107 51.0146C132.108 50.8687 132.167 50.7293 132.271 50.6265C132.375 50.5237 132.515 50.4659 132.661 50.4656C132.768 50.468 132.871 50.5015 132.959 50.5621C133.046 50.6227 133.114 50.7076 133.153 50.8063C133.193 50.9049 133.202 51.013 133.181 51.117C133.159 51.2211 133.107 51.3164 133.031 51.3913C132.956 51.4661 132.86 51.5171 132.755 51.5379C132.651 51.5587 132.543 51.5484 132.444 51.5082C132.346 51.468 132.261 51.3998 132.201 51.3121C132.141 51.2243 132.108 51.1209 132.107 51.0146ZM132.223 52.0856H133.101V56.287H132.21V52.0856H132.223ZM134.316 50.483H135.196V56.287H134.316V50.483ZM141.568 56.287L141.251 55.1381H139.323L139.007 56.287H137.952L139.703 50.483H140.873L142.624 56.287H141.568ZM140.291 51.5117L139.531 54.2859H141.062L140.291 51.5117ZM144.111 56.287L142.713 52.0856H143.645L144.582 55.2572L145.531 52.091H146.466L145.055 56.2924H144.103L144.111 56.287ZM147.061 51.0136C147.063 50.8676 147.122 50.7283 147.226 50.6257C147.33 50.523 147.47 50.4651 147.617 50.4646C147.723 50.4671 147.826 50.5008 147.914 50.5615C148.001 50.6222 148.069 50.7072 148.108 50.8059C148.147 50.9046 148.156 51.0126 148.135 51.1166C148.113 51.2205 148.061 51.3158 147.985 51.3905C147.91 51.4653 147.814 51.5161 147.709 51.5369C147.605 51.5576 147.497 51.5472 147.398 51.507C147.3 51.4668 147.215 51.3986 147.155 51.3109C147.095 51.2231 147.062 51.1197 147.061 51.0136ZM147.169 52.0845H148.051V56.2859H147.169V52.0845ZM151.464 56.2859V55.8668C151.332 56.0354 151.162 56.1709 150.968 56.2626C150.774 56.3543 150.561 56.3997 150.346 56.3953C150.166 56.3958 149.988 56.3592 149.823 56.2877C149.658 56.2161 149.51 56.1113 149.388 55.9798C149.265 55.8482 149.172 55.6929 149.112 55.5234C149.053 55.3539 149.03 55.1741 149.044 54.9952C149.029 54.8178 149.053 54.6395 149.112 54.4718C149.171 54.3041 149.266 54.1508 149.389 54.022C149.512 53.8931 149.661 53.7917 149.826 53.7243C149.991 53.6569 150.168 53.625 150.346 53.6308C150.559 53.6229 150.77 53.6641 150.964 53.7513C151.158 53.8384 151.329 53.9692 151.464 54.1332V53.5247C151.474 53.415 151.459 53.3045 151.42 53.2014C151.382 53.0982 151.32 53.0049 151.241 52.9283C151.162 52.8516 151.067 52.7935 150.962 52.7583C150.858 52.723 150.747 52.7115 150.637 52.7244C150.437 52.727 150.24 52.771 150.058 52.8536C149.877 52.9362 149.714 53.0555 149.581 53.2041L149.238 52.5934C149.657 52.1939 150.217 51.975 150.797 51.9838C150.997 51.9535 151.202 51.9688 151.395 52.0288C151.589 52.0887 151.766 52.1916 151.914 52.3298C152.062 52.468 152.177 52.6378 152.25 52.8266C152.323 53.0153 152.351 53.2181 152.334 53.4196V56.2924H151.466L151.464 56.2859ZM151.464 55.3265V54.6995C151.384 54.5581 151.268 54.4402 151.128 54.3577C150.988 54.2752 150.828 54.231 150.665 54.2296C150.466 54.2424 150.279 54.3305 150.142 54.476C150.005 54.6216 149.929 54.8135 149.929 55.013C149.929 55.2125 150.005 55.4045 150.142 55.55C150.279 55.6955 150.466 55.7836 150.665 55.7964C150.827 55.7946 150.986 55.751 151.126 55.67C151.265 55.589 151.382 55.4733 151.464 55.3341M153.708 55.3525V52.8457H153.156V52.0877H153.708V50.941H154.59V52.0899H155.295V52.8479H154.59V55.1717C154.59 55.4597 154.687 55.6319 154.915 55.6319C154.978 55.634 155.04 55.6226 155.098 55.5985C155.155 55.5744 155.207 55.5381 155.25 55.4922L155.461 56.1419C155.25 56.3209 154.978 56.4107 154.701 56.392C154.563 56.4083 154.422 56.3919 154.29 56.3443C154.159 56.2967 154.04 56.2191 153.944 56.1177C153.848 56.0163 153.777 55.8939 153.737 55.7603C153.697 55.6267 153.689 55.4856 153.713 55.3482M156.108 51.0168C156.11 50.8712 156.169 50.732 156.272 50.6293C156.376 50.5267 156.515 50.4687 156.661 50.4678C156.768 50.4699 156.871 50.5033 156.959 50.5638C157.047 50.6242 157.115 50.709 157.154 50.8077C157.194 50.9064 157.204 51.0145 157.182 51.1186C157.16 51.2227 157.109 51.3181 157.033 51.3931C156.958 51.468 156.862 51.5191 156.757 51.54C156.653 51.5609 156.544 51.5506 156.446 51.5105C156.347 51.4704 156.262 51.4022 156.202 51.3144C156.142 51.2266 156.109 51.1231 156.108 51.0168ZM156.222 52.0877H157.103V56.2891H156.222V52.0877ZM158.106 54.1841C158.171 53.8357 158.334 53.5129 158.576 53.2534C158.818 52.994 159.129 52.8087 159.472 52.7191C159.816 52.6295 160.178 52.6393 160.517 52.7474C160.855 52.8556 161.155 53.0576 161.383 53.3298C161.61 53.602 161.755 53.9331 161.801 54.2846C161.847 54.636 161.791 54.9932 161.641 55.3144C161.491 55.6355 161.252 55.9074 160.953 56.0983C160.654 56.2891 160.306 56.391 159.951 56.392C159.68 56.3804 159.414 56.3124 159.171 56.1924C158.928 56.0724 158.713 55.9031 158.539 55.6952C158.365 55.4873 158.237 55.2455 158.163 54.9853C158.088 54.7251 158.069 54.4522 158.106 54.1841ZM160.878 54.1841C160.802 54.0169 160.682 53.8732 160.531 53.7681C160.381 53.663 160.204 53.6005 160.021 53.587C159.837 53.5735 159.654 53.6096 159.489 53.6915C159.324 53.7734 159.185 53.8981 159.085 54.0524C158.986 54.2067 158.929 54.3849 158.923 54.5684C158.916 54.7518 158.959 54.9336 159.047 55.0947C159.135 55.2558 159.266 55.3902 159.424 55.4838C159.582 55.5774 159.763 55.6266 159.947 55.6264C160.104 55.5955 160.254 55.5332 160.387 55.4432C160.519 55.3532 160.633 55.2374 160.72 55.1028C160.807 54.9681 160.865 54.8174 160.893 54.6595C160.92 54.5017 160.915 54.34 160.878 54.1841ZM165.14 56.2891V53.4315C165.158 53.3449 165.156 53.255 165.133 53.1694C165.11 53.0837 165.068 53.0046 165.008 52.9386C164.949 52.8725 164.875 52.8213 164.792 52.7892C164.71 52.7571 164.62 52.7449 164.532 52.7537C164.349 52.7663 164.172 52.8269 164.019 52.9294C163.867 53.0318 163.744 53.1725 163.664 53.3373V56.2956H162.783V52.0942H163.664V52.6562C163.803 52.457 163.986 52.2929 164.2 52.177C164.414 52.061 164.651 51.9963 164.895 51.9881C165.048 51.9694 165.204 51.9863 165.35 52.0373C165.496 52.0884 165.628 52.1723 165.736 52.2826C165.844 52.3928 165.926 52.5265 165.974 52.6732C166.022 52.8198 166.035 52.9756 166.013 53.1283V56.2967H165.134L165.14 56.2891Z" fill="#58595B"/>
<path fill-rule="evenodd" clip-rule="evenodd" d="M164.267 6.16897C164.995 6.16753 165.692 5.87826 166.205 5.36465C166.719 4.85103 167.008 4.15503 167.008 3.42939C166.993 2.71295 166.698 2.03067 166.185 1.52903C165.672 1.0274 164.983 0.746416 164.265 0.746416C163.546 0.746416 162.857 1.0274 162.344 1.52903C161.831 2.03067 161.536 2.71295 161.521 3.42939C161.521 3.78928 161.592 4.14571 161.73 4.47828C161.867 4.81086 162.07 5.11304 162.325 5.36752C162.58 5.62199 162.883 5.82377 163.216 5.9613C163.549 6.09882 163.907 6.16939 164.267 6.16897ZM164.267 1.23014C164.556 1.22774 164.842 1.28327 165.109 1.39343C165.376 1.50359 165.617 1.66614 165.82 1.87141C166.022 2.07668 166.181 2.32048 166.288 2.58831C166.394 2.85614 166.445 3.14254 166.438 3.43047C166.433 3.86005 166.301 4.27855 166.058 4.63321C165.815 4.98786 165.472 5.2628 165.072 5.42335C164.673 5.58389 164.235 5.62286 163.813 5.53534C163.392 5.44781 163.006 5.23772 162.704 4.93154C162.402 4.62536 162.197 4.23681 162.116 3.81488C162.035 3.39295 162.081 2.95653 162.248 2.56065C162.416 2.16477 162.697 1.82716 163.056 1.59037C163.415 1.35359 163.837 1.22825 164.267 1.23014ZM163.734 4.85548V3.72175H164.414L164.986 4.85548H165.574L164.933 3.62105C165.115 3.53527 165.262 3.39005 165.35 3.20942C165.438 3.02879 165.461 2.8236 165.416 2.6278C165.372 2.432 165.261 2.25735 165.103 2.13275C164.945 2.00815 164.75 1.94109 164.548 1.94265H163.644C163.587 1.93412 163.529 1.93842 163.474 1.95522C163.419 1.97202 163.369 2.0009 163.326 2.03974C163.284 2.07859 163.251 2.1264 163.229 2.17968C163.208 2.23296 163.199 2.29035 163.203 2.34763V4.8544H163.729L163.734 4.85548ZM163.743 2.4061H164.503C164.558 2.4028 164.613 2.41135 164.664 2.43117C164.716 2.45098 164.762 2.48159 164.801 2.52093C164.839 2.56027 164.869 2.60741 164.887 2.65915C164.906 2.7109 164.913 2.76604 164.909 2.82083C164.911 2.87845 164.902 2.93601 164.881 2.98983C164.86 3.04364 164.829 3.09251 164.788 3.1333C164.747 3.17409 164.698 3.20589 164.644 3.22668C164.59 3.24746 164.532 3.25675 164.475 3.25397H163.741V2.40502L163.743 2.4061ZM61.1228 6.11157C66.863 6.11157 67.5814 12.0098 67.5814 12.0098L74.4188 10.4094C74.3776 10.2394 73.1935 0.0411901 61.1239 0.0411901C53.6538 0.0411901 46.6895 4.58911 46.6895 16.2242C46.6895 27.7694 54.0315 32.195 61.6307 32.195C65.1449 32.2384 68.6134 31.3983 71.7164 29.7521C73.3628 28.7829 74.2907 27.8571 74.2907 25.8766V18.758C74.3102 18.3383 74.2374 17.9195 74.0775 17.5308C73.9176 17.1421 73.6745 16.793 73.3651 16.5079C73.0558 16.2229 72.6877 16.0088 72.2866 15.8807C71.8856 15.7525 71.4613 15.7134 71.0435 15.7661H61.6655V21.0363H67.5261V25.1219C65.7921 26.1011 63.8207 26.5834 61.8294 26.5155C57.9896 26.5155 53.9794 24.196 53.9794 16.2285C53.9794 8.4321 57.4827 6.11699 61.1131 6.11699M91.5014 0.00437322C88.6297 0.00437322 86.8997 1.22798 86.0564 3.75424L76.7761 31.7748H84.1159C84.6715 31.7332 85.1945 31.4974 85.593 31.1089L94.4273 22.3931C94.6107 22.2101 94.5608 22.1235 94.3503 22.1235H93.1564C92.6669 22.1192 92.1854 22.2472 91.7629 22.4938L85.8177 25.9048L91.4612 6.86415C91.4612 6.86415 98.1694 29.9156 98.7175 31.7694H106.273L97.1145 3.70335C96.3548 1.34601 94.4164 -0.00537109 91.5035 -0.00537109M121.848 6.0217C127.587 6.0217 128.349 12.3433 128.349 12.3433L135.187 10.9096C135.187 10.9096 134.175 0.0476877 121.852 0.0476877C114.382 0.0476877 107.417 4.47541 107.417 16.1072C107.417 27.6503 114.338 32.2415 121.809 32.2415C133.879 32.2415 135.189 21.6221 135.189 21.6221L128.352 20.1462C128.352 20.1462 127.799 26.2556 121.935 26.2556C118.307 26.2556 114.76 23.9372 114.76 16.1018C114.76 8.3054 118.22 6.03145 121.851 6.03145M151.651 0.00437322C148.779 0.00437322 147.047 1.22798 146.204 3.75424L136.92 31.7748H144.26C144.815 31.7335 145.339 31.4976 145.737 31.1089L154.573 22.3931C154.756 22.2101 154.705 22.1235 154.494 22.1235H153.3C152.811 22.1192 152.329 22.2472 151.907 22.4938L145.962 25.9048L151.605 6.86415C151.605 6.86415 158.317 29.9156 158.865 31.7694H166.42L157.262 3.70335C156.502 1.34601 154.56 -0.00537109 151.65 -0.00537109" fill="#274479"/>
<path fill-rule="evenodd" clip-rule="evenodd" d="M44.3811 31.8614C44.4356 31.8562 44.4859 31.83 44.5214 31.7883C44.5568 31.7467 44.5746 31.6929 44.571 31.6384C44.5744 31.5958 44.5661 31.5532 44.547 31.515C44.5279 31.4768 44.4986 31.4446 44.4624 31.4218C42.5203 30.7826 40.8049 29.5966 39.523 28.0067C38.2411 26.4169 37.4474 24.491 37.2376 22.4613L35.5012 10.117C34.6937 4.38337 30.4621 0.473246 25.5284 0.380122H0.184504C0.160251 0.379251 0.136068 0.383248 0.113394 0.391878C0.0907189 0.400507 0.0700288 0.413595 0.052518 0.430359C0.0350071 0.447124 0.0210591 0.467226 0.0114815 0.489474C0.00190391 0.511721 -0.00309441 0.53566 -0.00322405 0.559873C-0.0104066 0.602783 -0.00377911 0.646861 0.0157209 0.685773C0.035221 0.724684 0.0665633 0.756428 0.105279 0.776441C2.04948 1.42366 3.76534 2.61659 5.04717 4.21222C6.32901 5.80785 7.12241 7.73848 7.33226 9.77265L9.06875 22.117C9.87621 27.829 14.1045 31.7607 19.0383 31.8744L44.3811 31.8614ZM33.5715 26.5837H29.0545C28.5527 26.6297 28.0483 26.5308 27.6013 26.2989L24.5169 24.6617L26.2989 23.7196L33.5943 26.4938C33.7017 26.5415 33.7017 26.5837 33.5715 26.5837ZM29.99 13.5712C29.9789 13.585 29.9631 13.594 29.9456 13.5966C29.9281 13.5992 29.9102 13.5952 29.8956 13.5853C28.4697 12.7738 26.9645 12.1095 25.4035 11.6026C25.2104 11.5398 24.9358 11.4467 24.6818 11.3861C24.5733 16.4819 24.0925 20.4429 23.5965 20.4483C23.1006 20.4538 22.6198 16.4819 22.5112 11.3861C22.2562 11.4456 21.9827 11.5398 21.7895 11.6026C20.2282 12.1095 18.7227 12.7738 17.2964 13.5853C17.282 13.5954 17.2643 13.5996 17.2469 13.5969C17.2295 13.5943 17.2138 13.5851 17.203 13.5712C17.1956 13.5607 17.1911 13.5484 17.19 13.5355C17.1375 13.2733 17.1495 13.0023 17.2252 12.7458C17.3008 12.4893 17.4377 12.2549 17.6241 12.0629C18.0739 11.6521 18.562 11.2852 19.0817 10.967C19.7085 10.5557 20.3663 10.1937 21.0493 9.88418C21.2295 9.79972 21.4563 9.69685 21.6343 9.62214C20.5007 8.99288 19.309 8.47398 18.0756 8.0726C18.0686 8.07083 18.0619 8.06768 18.0561 8.06335C18.0503 8.05901 18.0453 8.05357 18.0416 8.04734C18.0379 8.0411 18.0354 8.03419 18.0344 8.02701C18.0333 8.01982 18.0337 8.0125 18.0355 8.00546C18.0383 7.99516 18.0444 7.98605 18.0528 7.97947C18.1952 7.81731 18.3729 7.68993 18.5723 7.60713C18.7718 7.52434 18.9877 7.48835 19.2033 7.50194C19.6062 7.5545 20.0051 7.63445 20.3971 7.74125C20.8312 7.84953 21.2653 7.96864 21.6864 8.10725C21.9306 8.18738 22.1715 8.27292 22.4114 8.36713L22.5308 8.41261C22.6784 7.03632 23.1016 6.03036 23.5987 6.03036C24.0958 6.03036 24.519 7.03091 24.6666 8.41261L24.786 8.36713C25.0248 8.27292 25.2668 8.18738 25.5099 8.10725C25.9354 7.96864 26.3655 7.84664 26.8003 7.74125C27.1924 7.63445 27.5912 7.5545 27.9942 7.50194C28.2098 7.48835 28.4256 7.52434 28.625 7.60713C28.8245 7.68993 29.0023 7.81731 29.1446 7.97947C29.153 7.98605 29.1591 7.99516 29.1619 8.00546C29.1637 8.0125 29.1641 8.01982 29.1631 8.02701C29.162 8.03419 29.1595 8.0411 29.1558 8.04734C29.1521 8.05357 29.1471 8.05901 29.1413 8.06335C29.1355 8.06768 29.1289 8.07083 29.1218 8.0726C27.8885 8.47398 26.6967 8.99288 25.5631 9.62214C25.74 9.69577 25.9668 9.79864 26.1481 9.88418C26.8311 10.1937 27.489 10.5557 28.1157 10.967C28.6354 11.2852 29.1235 11.6521 29.5733 12.0629C29.7595 12.2551 29.8962 12.4894 29.9718 12.7459C30.0474 13.0024 30.0596 13.2733 30.0074 13.5355C30.0066 13.5483 30.0025 13.5606 29.9954 13.5712H29.99ZM17.9931 21.085L19.1501 21.0786C19.3125 21.0752 19.4742 21.1008 19.6276 21.1544L22.3908 22.2372L20.956 22.7786L17.9725 21.1922C17.8705 21.1294 17.8705 21.0883 17.9986 21.085H17.9931ZM27.9073 21.1554L29.061 21.1641C29.1913 21.1641 29.1912 21.2096 29.0838 21.2724L19.595 26.3022C19.1464 26.5329 18.6413 26.6316 18.1386 26.5869H13.6238C13.4946 26.5869 13.4946 26.5447 13.602 26.5003L27.4298 21.2388C27.5839 21.1804 27.7479 21.1521 27.9128 21.1554H27.9073Z" fill="#0075C9"/>
</g>
<defs>
<clipPath id="clip0_60_124">
<rect width="167" height="58" fill="white"/>
</clipPath>
</defs>
</svg>
