<svg width="191" height="67" viewBox="0 0 191 67" fill="none" xmlns="http://www.w3.org/2000/svg">
<path fill-rule="evenodd" clip-rule="evenodd" d="M126 46C126.3 46 126.6 45.7 126.6 45.4C126.6 45.1 126.3 44.8 126 44.8C125.7 44.8 125.4 45.1 125.4 45.4C125.4 45.7 125.7 46 126 46ZM127.9 46C128.2 46 128.5 45.7 128.5 45.4C128.5 45.1 128.2 44.8 127.9 44.8C127.6 44.8 127.3 45.1 127.3 45.4C127.3 45.7 127.6 46 127.9 46ZM160.2 46C160.5 46 160.8 45.8 160.9 45.5C160.9 45.2 160.7 44.9 160.4 44.8C160.3 44.8 160.3 44.8 160.2 44.8C159.9 44.8 159.6 45.1 159.7 45.5C159.7 45.7 159.9 45.9 160.2 46ZM162.1 46C162.4 46 162.7 45.7 162.6 45.3C162.6 45 162.4 44.8 162.1 44.8C161.8 44.8 161.5 45 161.4 45.3C161.4 45.6 161.6 45.9 161.9 46C162 46 162.1 46 162.1 46ZM173.8 47.4L173.7 46.6C173.3 46.7 172.3 47 172.2 46.3C172.1 46 172.4 45.6 172.7 45.6C173 45.6 173.3 45.6 173.5 45.7L173.7 45C173.2 44.8 172.6 44.8 172.1 45.1C171.6 45.5 171.4 46.2 171.7 46.8H170.9V47.4C171.5 47.4 172 47.4 172.6 47.4C172.7 47.5 173.4 47.4 173.8 47.4ZM102.2 53.6C101.9 53.6 101.6 53.9 101.6 54.2C101.6 54.5 101.9 54.8 102.2 54.8C102.5 54.8 102.8 54.5 102.8 54.2C102.8 53.9 102.5 53.6 102.2 53.6ZM104.1 53.6C103.8 53.6 103.5 53.9 103.5 54.2C103.5 54.5 103.8 54.8 104.1 54.8C104.4 54.8 104.7 54.5 104.7 54.2C104.7 53.9 104.4 53.6 104.1 53.6ZM174.8 53.6C174.5 53.6 174.2 53.9 174.3 54.3C174.3 54.6 174.5 54.8 174.8 54.8C175.1 54.8 175.4 54.6 175.5 54.3C175.5 54 175.3 53.7 175 53.6C174.9 53.6 174.9 53.6 174.8 53.6ZM176.8 53.6C176.5 53.6 176.2 53.8 176.1 54.1C176.1 54.4 176.3 54.7 176.6 54.8C176.7 54.8 176.7 54.8 176.8 54.8C177.1 54.8 177.4 54.5 177.3 54.1C177.2 53.8 177 53.6 176.8 53.6ZM57.2 55C56.9 55 56.6 55.3 56.6 55.6C56.6 55.9 56.9 56.2 57.2 56.2C57.5 56.2 57.8 55.9 57.8 55.6C57.8 55.3 57.5 55 57.2 55ZM59.1 55C58.8 55 58.5 55.3 58.5 55.6C58.5 55.9 58.8 56.2 59.1 56.2C59.4 56.2 59.7 55.9 59.7 55.6C59.7 55.3 59.4 55 59.1 55ZM90.8 48.3C91.1 48.3 91.4 48 91.4 47.7C91.4 47.4 91.1 47.1 90.8 47.1C90.5 47.1 90.2 47.4 90.2 47.7C90.2 48.1 90.5 48.3 90.8 48.3ZM63.7 47.2C64 47.2 64.3 46.9 64.3 46.6C64.3 46.3 64 46 63.7 46C63.4 46 63.1 46.3 63.1 46.6C63.1 46.9 63.3 47.2 63.7 47.2ZM188.7 45.1V52.4H189.7V45.1H188.7ZM154.1 52.4H155.1V45.1H154.1V52.4ZM95.1 52.4H96.1V45.1H95.1V52.4ZM186 50.9C186 51.3 185.7 51.6 185.3 51.6H182.4C182.4 51.6 182.4 51.6 182.5 51.5C182.8 51.1 182.9 50.5 182.7 50C182.6 49.5 182.2 48.1 181.2 48.1C180 48.1 179.3 50.1 179.2 50.5C179.1 50.9 179 51.2 178.9 51.6C178.5 51.6 176.4 51.6 176.4 51.6C176.5 51.4 176.6 51.1 176.6 50.9V48.4H175.6V50.9C175.6 51.3 175.3 51.6 174.9 51.6H174.3C173.9 51.6 173.6 51.3 173.6 50.9V48.4H172.6V50.9C172.6 51.3 172.3 51.6 171.9 51.6H163C162.6 51.6 162.3 51.3 162.3 50.9V47.1H161.3V47.6C160.8 47.7 160.4 47.9 159.9 48.1C159 48.4 158.2 49.1 157.9 50C157.8 50.4 157.9 50.7 158.2 51C158.8 51.5 159.6 51.7 160.3 51.6C160.7 51.6 161.1 51.6 161.5 51.5C161.8 52.1 162.4 52.5 163.1 52.5H171.8C172.5 51.8 173.6 51.8 174.2 52.5H174.8C175.2 52.5 175.7 52.3 176 52V52.5C176 52.5 178.5 52.5 178.8 52.5C178.7 53.5 179.3 54.5 180.2 54.9C180.5 55 180.8 55.1 181.1 55.1C181.9 55.1 182.6 54.7 183 54.1C183.2 53.6 183.2 53 182.8 52.6H185.3C186.3 52.6 187 51.8 187 50.9V45H186V50.9ZM158.8 50.3C158.9 49.6 160.2 49 161.2 48.6V50.5C160.4 50.7 159.6 50.6 158.8 50.3ZM180.1 50.8C180.2 50.1 180.6 49.5 181.2 49.1C181.5 49.4 181.7 49.8 181.8 50.2C181.9 50.4 181.9 50.7 181.7 50.8C181.2 51.2 180.6 51.4 179.9 51.4C180 51.2 180 51 180.1 50.8ZM182.1 53.6C181.7 54 181.1 54.2 180.6 53.9C180.1 53.6 179.7 53 179.8 52.4C180.3 52.4 180.9 52.3 181.4 52.1L181.2 52.5C181.9 53 182.2 53.4 182.1 53.6ZM83 52.3H84V45H83V52.3ZM80.3 50.8C80.3 51.2 80 51.5 79.6 51.5H77.6V51.4C77.9 50.6 77.8 49.8 77.4 49.1C77.1 48.4 76.5 47.9 75.7 47.9C74.9 47.9 74.3 48.4 74 49.1C73.8 49.4 73.7 49.8 73.6 50.2C73.3 51.1 73.2 51.5 72.1 51.5H71.1C70.9 49.9 69.9 48.5 68.5 47.7L68 48.6C69.1 49.2 69.8 50.2 70.1 51.5H67V52.5H72.2C72.8 52.5 73.3 52.4 73.8 52C74.4 52.3 75.1 52.5 75.7 52.5C76 52.5 76.3 52.5 76.7 52.4C76.8 52.4 76.8 52.4 76.9 52.3V52.5H79.7C80.7 52.5 81.4 51.7 81.4 50.8V45H80.4V50.8H80.3ZM76.7 51.1C76.6 51.3 76.5 51.4 76.3 51.5C75.7 51.6 75 51.6 74.4 51.3C74.5 51.1 74.6 50.8 74.7 50.6C74.8 50.3 74.9 50 75.1 49.7C75.2 49.3 75.5 49.1 75.9 49C76.3 49 76.6 49.3 76.7 49.6C76.8 50 76.8 50.6 76.7 51.1ZM136.8 47.9C136 47.9 135.4 48.4 135.1 49.1C134.9 49.4 134.8 49.8 134.7 50.2C134.4 51.1 134.3 51.5 133.2 51.5H129C128.6 51.5 128.3 51.2 128.3 50.8V47H127.3V47.5C126.8 47.6 126.4 47.8 125.9 48C125 48.3 124.2 49 123.9 49.9C123.8 50.3 123.9 50.6 124.2 50.9C124.8 51.4 125.6 51.6 126.3 51.5C126.7 51.5 127.1 51.5 127.5 51.4C127.8 52 128.4 52.4 129.1 52.4H133.3C133.9 52.4 134.4 52.3 134.9 51.9C135.8 52.4 136.8 52.5 137.8 52.2C138.3 52 138.6 51.7 138.8 51.2C139.1 50.4 139 49.6 138.6 48.9C138.3 48.5 137.6 48 136.8 47.9ZM124.9 50.3C125 49.6 126.3 49 127.3 48.6V50.5C126.5 50.7 125.7 50.6 124.9 50.3ZM137.7 51.1C137.6 51.3 137.5 51.4 137.3 51.5C136.7 51.6 136 51.6 135.4 51.3C135.5 51.1 135.6 50.8 135.7 50.6C135.8 50.3 135.9 50 136.1 49.7C136.2 49.4 136.5 49.1 136.9 49C137.3 49.1 137.6 49.3 137.7 49.6C137.8 50.1 137.9 50.6 137.7 51.1ZM119.8 50.8C119.8 51.2 119.5 51.5 119.1 51.5H118.5C118.1 51.5 117.8 51.2 117.8 50.8V45H116.8V50.8C116.8 51.2 116.5 51.5 116.1 51.5H114.6C114.7 50.4 114.3 49.3 113.5 48.5C112.5 47.7 111.2 48.2 110.2 48.8C109.6 49.2 109.1 49.6 108.7 50V45H107.7V51.5H103.5C103.6 51.3 103.6 51 103.6 50.8V48.3H102.6V50.8C102.6 51.2 102.3 51.5 101.9 51.5H99.7C99.3 51.5 99 51.2 99 50.8V48.3H98V52.3C98 53.1 97.4 53.7 96.6 53.7V54.7C97.9 54.7 99 53.7 99.1 52.3C99.3 52.4 99.6 52.4 99.8 52.4H102C102.3 52.4 102.7 52.3 102.9 52.1V52.4H116C116.7 51.7 117.8 51.7 118.4 52.4H119C120 52.4 120.7 51.6 120.7 50.7V45H119.7L119.8 50.8ZM108.7 51.2C109.1 50.8 109.6 50.4 110.1 50.1C110.6 49.7 111.3 49.4 111.9 49.2C112.2 49.1 112.5 49.2 112.7 49.3C112.9 49.5 113.1 49.7 113.1 49.9C113.3 50.4 113.4 51 113.4 51.5H108.6V51.2H108.7ZM64.7 50.8C64.7 51.2 64.4 51.5 64 51.5H63.6C63.2 51.5 62.9 51.2 62.9 50.8V49.4C62.9 49 62.7 48.6 62.4 48.4C62 48.1 61.5 48 61 48.2C60.1 48.4 59.4 49.2 59.4 50.1V52.5C59.4 52.8 59.2 53 58.9 53C58 53.3 57.1 53.1 56.4 52.5C55.7 51.9 55.6 50.8 56.1 49.5L55.1 49.1C54.2 51.4 55 52.6 55.6 53.2C56.3 53.8 57.1 54.1 58 54.1C58.4 54.1 58.8 54 59.2 53.9C59.8 53.7 60.3 53.1 60.3 52.4V50C60.3 49.5 60.7 49.2 61.1 49.1C61.3 49 61.4 49.1 61.6 49.1C61.7 49.2 61.7 49.2 61.7 49.3V50.7C61.7 51.7 62.5 52.4 63.5 52.4H64C65 52.4 65.7 51.6 65.7 50.7V48.2H64.7V50.8ZM92.5 52.5C92.5 52.8 92.3 53 92 53C91.1 53.3 90.2 53.1 89.5 52.5C88.8 51.9 88.7 50.8 89.2 49.5L88.2 49.1C87.3 51.4 88.1 52.6 88.7 53.2C89.4 53.8 90.2 54.1 91.1 54.1C91.5 54.1 91.9 54 92.3 53.9C92.9 53.7 93.4 53.1 93.4 52.4V48.3H92.4L92.5 52.5ZM151.4 50.8C151.4 51.2 151.1 51.5 150.7 51.5H150.3C149.4 51.5 148.6 51.5 147.7 51.3C147.7 51.3 147.8 51.3 147.8 51.2C148 51 149.1 50 148.9 49C148.8 48.5 148.4 48.1 147.9 48H147.8C146.9 47.9 145.9 47.9 145 48H144.9C144.5 48.1 144.2 48.4 144.1 48.9C143.9 49.8 144.8 50.8 145.2 51.2C145.3 51.3 145.3 51.3 145.4 51.4C144.8 51.5 144.1 51.6 143.5 51.6H142C141.6 51.6 141.3 51.3 141.3 50.9V45H140.3V50.8C140.3 51.8 141.1 52.5 142 52.5H143.5C144.6 52.6 145.6 52.4 146.6 52C147.8 52.4 149 52.6 150.3 52.5H150.7C151.7 52.5 152.4 51.7 152.4 50.8V45H151.4V50.8ZM147.2 50.5C147 50.7 146.8 50.8 146.6 50.9C146.4 50.8 146.2 50.6 146 50.5C145.6 50.2 145.3 49.7 145.2 49.2L145.3 49.1C146.1 49 146.9 49 147.7 49.1C147.8 49.1 147.9 49.2 148 49.3C147.9 49.8 147.6 50.2 147.2 50.5Z" fill="#58595B"/>
<path fill-rule="evenodd" clip-rule="evenodd" d="M54.6 61.1C54.6 59 55.7 57.7 57.3 57.7C58.2 57.7 59.1 58.3 59.4 59.1L58.5 59.5C58.3 59 57.8 58.7 57.3 58.6C56.3 58.6 55.7 59.5 55.7 61.1C55.7 62.7 56.3 63.6 57.3 63.6C57.7 63.6 58.1 63.4 58.4 63.1V61.9H57V60.9H59.5V63.5C59 64.2 58.2 64.5 57.3 64.5C55.7 64.6 54.7 63.2 54.6 61.1ZM60.6 62C60.6 60.6 61.4 59.5 62.7 59.5C64 59.5 64.7 60.6 64.7 62.1V62.4H61.6C61.5 63.1 62.1 63.7 62.8 63.8H62.9C63.3 63.8 63.7 63.6 64 63.3L64.5 63.9C63.7 64.8 62.3 64.9 61.4 64.1C60.8 63.5 60.5 62.7 60.6 62ZM62.7 60.3C62 60.4 61.6 61 61.6 61.6H63.7C63.8 61 63.4 60.4 62.7 60.3ZM68.5 64.4V61.1C68.6 60.8 68.4 60.4 68 60.3C67.9 60.3 67.9 60.3 67.8 60.3C67.4 60.3 67 60.6 66.8 61V64.4H65.8V59.6H66.8V60.2C67.1 59.7 67.6 59.5 68.2 59.4C68.8 59.3 69.4 59.8 69.5 60.4C69.5 60.5 69.5 60.6 69.5 60.7V64.3H68.5V64.4ZM70.6 62C70.6 60.6 71.4 59.5 72.7 59.5C74 59.5 74.7 60.6 74.7 62.1V62.4H71.6C71.5 63.1 72.1 63.7 72.8 63.8H72.9C73.3 63.8 73.7 63.6 74 63.3L74.5 63.9C73.7 64.8 72.3 64.9 71.4 64.1C70.8 63.5 70.6 62.7 70.6 62ZM72.7 60.3C72 60.4 71.6 61 71.6 61.6H73.7C73.9 61 73.4 60.4 72.7 60.3ZM75.9 64.4V59.6H76.9V60.3C77.2 59.8 77.7 59.5 78.2 59.5V60.5C78.1 60.5 78 60.5 77.9 60.5C77.5 60.5 77.1 60.8 76.8 61.2V64.5L75.9 64.4ZM81.7 64.4V63.9C81.4 64.3 80.9 64.5 80.4 64.5C79.6 64.5 78.9 63.8 78.9 63V62.9C78.8 62.1 79.4 61.4 80.2 61.3C80.3 61.3 80.3 61.3 80.4 61.3C80.9 61.3 81.4 61.5 81.7 61.9V61.2C81.7 60.7 81.4 60.3 80.9 60.3C80.8 60.3 80.8 60.3 80.7 60.3C80.2 60.3 79.8 60.5 79.5 60.8L79.1 60.1C79.6 59.6 80.2 59.4 80.9 59.4C81.7 59.3 82.5 59.9 82.6 60.7C82.6 60.8 82.6 60.9 82.6 61.1V64.4H81.7ZM81.7 63.3V62.6C81.5 62.3 81.2 62.1 80.8 62.1C80.3 62.1 79.9 62.6 80 63.1C80 63.5 80.4 63.9 80.8 63.9C81.1 63.8 81.5 63.6 81.7 63.3ZM84.1 57.8H85.1V64.4H84.1V57.8ZM92.3 64.4L91.9 63.1H89.7L89.3 64.4H88.1L90.1 57.8H91.4L93.4 64.4H92.3ZM90.9 59L90 62.2H91.8L90.9 59ZM97 64.4V63.8C96.7 64.3 96.1 64.5 95.6 64.6C95 64.7 94.4 64.2 94.3 63.6C94.3 63.5 94.3 63.4 94.3 63.3V59.7H95.3V63C95.2 63.3 95.5 63.7 95.8 63.8C95.9 63.8 95.9 63.8 96 63.8C96.4 63.8 96.8 63.5 97 63.1V59.7H98V64.5L97 64.4ZM99.6 63.3V60.4H99V59.5H99.6V58.2H100.6V59.5H101.4V60.4H100.6V63.1C100.6 63.4 100.7 63.6 101 63.6C101.1 63.6 101.3 63.5 101.4 63.4L101.6 64.1C101.4 64.3 101 64.4 100.7 64.4C100.1 64.5 99.6 64.1 99.6 63.5C99.5 63.5 99.5 63.4 99.6 63.3ZM105.1 64.4V61.1C105.2 60.8 104.9 60.4 104.6 60.4C104.5 60.4 104.5 60.4 104.4 60.4C104 60.4 103.6 60.7 103.4 61.1V64.5H102.4V57.9H103.4V60.4C103.7 59.9 104.3 59.7 104.8 59.6C105.4 59.5 106 60 106.1 60.6C106.1 60.7 106.1 60.8 106.1 60.9V64.5L105.1 64.4ZM107.2 62C107.2 60.6 107.9 59.5 109.3 59.5C110.7 59.5 111.4 60.7 111.4 62C111.4 63.3 110.7 64.5 109.3 64.5C107.9 64.5 107.2 63.4 107.2 62ZM110.4 62C110.4 61.1 110.1 60.4 109.3 60.4C108.5 60.4 108.2 61.2 108.2 62C108.2 62.8 108.5 63.7 109.3 63.7C110.1 63.7 110.4 62.9 110.4 62ZM112.6 64.4V59.6H113.6V60.3C113.9 59.8 114.4 59.5 114.9 59.5V60.5C114.8 60.5 114.7 60.5 114.6 60.5C114.2 60.5 113.8 60.8 113.5 61.2V64.5L112.6 64.4ZM115.8 58.4C115.8 58.1 116.1 57.8 116.4 57.8C116.7 57.8 117 58.1 117 58.4C117 58.7 116.7 59 116.4 59C116 59 115.8 58.7 115.8 58.4ZM115.9 59.6H116.9V64.4H115.9V59.6ZM118.5 63.3V60.4H117.9V59.5H118.5V58.2H119.5V59.5H120.3V60.4H119.5V63.1C119.5 63.4 119.6 63.6 119.9 63.6C120 63.6 120.2 63.5 120.3 63.4L120.5 64.1C120.3 64.3 119.9 64.4 119.6 64.4C119 64.5 118.5 64.1 118.5 63.5C118.4 63.5 118.4 63.4 118.5 63.3ZM121.3 65.4C121.4 65.4 121.5 65.5 121.6 65.5C121.9 65.5 122.1 65.4 122.2 65.1L122.4 64.5L120.8 59.6H121.9L123 63.2L124.1 59.6H125.2L123.3 65.3C123.2 66 122.5 66.4 121.9 66.3C121.7 66.3 121.5 66.3 121.4 66.2L121.3 65.4ZM127.9 62C127.9 60.6 128.6 59.5 130 59.5C131.4 59.5 132.1 60.7 132.1 62C132.1 63.3 131.4 64.5 130 64.5C128.6 64.5 127.9 63.4 127.9 62ZM131.1 62C131.1 61.1 130.8 60.4 130 60.4C129.2 60.4 129 61.1 129 62C129 62.9 129.3 63.7 130.1 63.7C130.9 63.7 131.1 62.9 131.1 62ZM133.5 64.4V60.5H132.9V59.6H133.5V59.2C133.4 58.5 133.9 57.8 134.6 57.7C134.7 57.7 134.8 57.7 134.8 57.7C135.2 57.7 135.5 57.8 135.8 58L135.5 58.7C135.4 58.6 135.2 58.5 135 58.5C134.7 58.5 134.5 58.7 134.4 59V59.1V59.5H135.2V60.4H134.4V64.3L133.5 64.4ZM138.4 61.1C138.4 59.1 139.5 57.7 141.1 57.7C142 57.7 142.9 58.3 143.2 59.2L142.3 59.6C142.1 59.1 141.7 58.7 141.1 58.7C140.1 58.7 139.5 59.7 139.5 61.2C139.5 62.7 140.1 63.7 141.1 63.7C141.7 63.7 142.2 63.3 142.3 62.7L143.2 63.1C142.9 64 142 64.6 141.1 64.7C139.4 64.5 138.4 63.1 138.4 61.1ZM144.1 58.4C144.1 58.1 144.4 57.8 144.7 57.8C145 57.8 145.3 58.1 145.3 58.4C145.3 58.7 145 59 144.7 59C144.4 59 144.2 58.7 144.1 58.4ZM144.3 59.6H145.3V64.4H144.3V59.6ZM147.7 64.4L146.1 59.6H147.2L148.3 63.2L149.4 59.6H150.5L148.9 64.4H147.7ZM151.1 58.4C151.1 58.1 151.4 57.8 151.7 57.8C152 57.8 152.3 58.1 152.3 58.4C152.3 58.7 152 59 151.7 59C151.4 59 151.1 58.7 151.1 58.4ZM151.2 59.6H152.2V64.4H151.2V59.6ZM153.6 57.8H154.6V64.4H153.6V57.8ZM161.9 64.4L161.5 63.1H159.3L158.9 64.4H157.7L159.7 57.8H161L163 64.4H161.9ZM160.4 59L159.5 62.2H161.3L160.4 59ZM164.8 64.4L163.2 59.6H164.3L165.4 63.2L166.5 59.6H167.6L166 64.4H164.8ZM168.1 58.4C168.1 58.1 168.4 57.8 168.7 57.8C169 57.8 169.3 58.1 169.3 58.4C169.3 58.7 169 59 168.7 59C168.4 59 168.2 58.7 168.1 58.4ZM168.3 59.6H169.3V64.4H168.3V59.6ZM173.2 64.4V63.9C172.9 64.3 172.4 64.5 171.9 64.5C171.1 64.5 170.4 63.8 170.4 63V62.9C170.3 62.1 170.9 61.4 171.7 61.3C171.8 61.3 171.8 61.3 171.9 61.3C172.4 61.3 172.9 61.5 173.2 61.9V61.2C173.2 60.7 172.9 60.3 172.4 60.3C172.3 60.3 172.3 60.3 172.2 60.3C171.7 60.3 171.3 60.5 171 60.8L170.6 60.1C171.1 59.6 171.7 59.4 172.4 59.4C173.2 59.3 174 59.8 174.1 60.7C174.1 60.8 174.1 60.9 174.1 61.1V64.4H173.2ZM173.2 63.3V62.6C173 62.3 172.7 62.1 172.3 62.1C171.8 62.1 171.4 62.6 171.5 63.1C171.5 63.5 171.9 63.9 172.3 63.9C172.6 63.8 173 63.6 173.2 63.3ZM175.7 63.3V60.4H175.1V59.5H175.7V58.2H176.7V59.5H177.5V60.4H176.7V63.1C176.7 63.4 176.8 63.6 177.1 63.6C177.2 63.6 177.4 63.5 177.5 63.4L177.7 64.1C177.5 64.3 177.1 64.4 176.8 64.4C176.2 64.5 175.7 64.1 175.7 63.5C175.7 63.5 175.7 63.4 175.7 63.3ZM178.5 58.4C178.5 58.1 178.8 57.8 179.1 57.8C179.4 57.8 179.7 58.1 179.7 58.4C179.7 58.7 179.4 59 179.1 59C178.8 59 178.5 58.7 178.5 58.4ZM178.6 59.6H179.6V64.4H178.6V59.6ZM180.8 62C180.8 60.6 181.5 59.5 182.9 59.5C184.3 59.5 185 60.7 185 62C185 63.3 184.3 64.5 182.9 64.5C181.5 64.5 180.8 63.4 180.8 62ZM183.9 62C183.9 61.1 183.6 60.4 182.8 60.4C182 60.4 181.7 61.2 181.7 62C181.7 62.8 182 63.7 182.8 63.7C183.6 63.7 183.9 62.9 183.9 62ZM188.8 64.4V61.1C188.9 60.7 188.6 60.4 188.3 60.3C188.2 60.3 188.2 60.3 188.1 60.3C187.7 60.3 187.3 60.6 187.1 61V64.4H186.1V59.6H187.1V60.2C187.4 59.7 187.9 59.5 188.5 59.4C189.1 59.3 189.7 59.8 189.8 60.4C189.8 60.5 189.8 60.6 189.8 60.7V64.3H188.8V64.4Z" fill="#58595B"/>
<path fill-rule="evenodd" clip-rule="evenodd" d="M187.8 7C189.5 7 190.9 5.6 190.9 3.9C190.9 2.2 189.5 0.8 187.8 0.8C186.1 0.8 184.7 2.2 184.7 3.9C184.7 5.6 186.1 7 187.8 7ZM187.8 1.4C189.2 1.4 190.3 2.5 190.3 3.8V3.9C190.3 5.3 189.2 6.4 187.8 6.4C186.4 6.4 185.3 5.3 185.3 3.9C185.3 2.5 186.4 1.4 187.8 1.4ZM187.2 5.5V4.2H188L188.6 5.5H189.3L188.6 4.1C189.1 3.9 189.3 3.3 189.1 2.8C188.9 2.4 188.6 2.2 188.2 2.2H187.2C187 2.2 186.7 2.3 186.7 2.6V2.7V5.6H187.2V5.5ZM187.2 2.7H188.1C188.3 2.7 188.5 2.9 188.6 3.1C188.6 3.1 188.6 3.1 188.6 3.2C188.6 3.5 188.4 3.7 188.2 3.7C188.2 3.7 188.2 3.7 188.1 3.7H187.3V2.7H187.2ZM70 7C76.6 7 77.4 13.8 77.4 13.8L85.2 12C85.2 11.8 83.8 0.1 70 0.1C61.5 0.1 53.5 5.3 53.5 18.6C53.5 31.8 61.9 36.9 70.6 36.9C74.6 36.9 78.6 36 82.1 34.1C84 33 85 31.9 85 29.7V21.5C85 19.4 83.6 18.1 81.3 18.1H70.6V24.1H77.3V28.8C75.3 29.9 73.1 30.5 70.8 30.4C66.4 30.4 61.8 27.7 61.8 18.6C61.9 9.6 65.9 7 70 7ZM104.7 0C101.4 0 99.4 1.4 98.5 4.3L87.9 36.4H96.3C96.9 36.4 97.5 36.1 98 35.6L108.1 25.6C108.3 25.4 108.3 25.3 108 25.3H106.6C106 25.3 105.5 25.4 105 25.7L98.2 29.6L104.7 7.8C104.7 7.8 112.4 34.2 113 36.3H121.6L111.1 4.2C110.2 1.5 108 0 104.7 0ZM139.4 6.9C145.9 6.9 146.8 14.1 146.8 14.1L154.6 12.5C154.6 12.5 153.4 0.1 139.4 0.1C130.9 0.1 122.9 5.2 122.9 18.5C122.9 31.7 130.8 37 139.3 37C153.1 37 154.6 24.8 154.6 24.8L146.8 23.1C146.8 23.1 146.2 30.1 139.5 30.1C135.4 30.1 131.3 27.4 131.3 18.5C131.3 9.5 135.2 6.9 139.4 6.9ZM173.4 0C170.1 0 168.1 1.4 167.2 4.3L156.6 36.4H165C165.6 36.4 166.2 36.1 166.7 35.6L176.8 25.6C177 25.4 177 25.3 176.7 25.3H175.3C174.7 25.3 174.2 25.4 173.7 25.7L166.9 29.6L173.3 7.8C173.3 7.8 181 34.2 181.6 36.3H190.2L179.8 4.2C178.9 1.5 176.7 0 173.4 0Z" fill="#274479"/>
<path fill-rule="evenodd" clip-rule="evenodd" d="M50.8999 36.5C50.9999 36.5 51.1 36.4 51.1 36.2C51.1 36.1 51.1 36 51 35.9C46.5 34.4 43.2 30.4 42.7 25.6L40.7 11.5C39.8 4.89999 34.9 0.499994 29.3 0.399994H0.399948C0.299948 0.399994 0.199951 0.499994 0.199951 0.599994C0.199951 0.699994 0.199957 0.799994 0.299957 0.799994C4.79996 2.29999 8.09995 6.29999 8.49995 11.1L10.5 25.2C11.4 31.7 16.2999 36.2 21.8999 36.4L50.8999 36.5ZM38.5 30.4H33.3C32.7 30.5 32.2 30.3 31.6 30.1L28.1 28.2L30.1 27.1L38.5 30.4C38.7 30.4 38.7 30.4 38.5 30.4ZM34.5 15.5H34.3999C32.7999 14.6 31.1 13.8 29.3 13.2C29.1 13.1 28.8 13 28.5 13C28.4 18.8 27.8 23.4 27.3 23.4C26.8 23.4 26.2 18.9 26.1 13C25.8 13.1 25.5 13.2 25.3 13.2C23.5 13.8 21.8 14.5 20.2 15.5H20.1C20 14.9 20.2 14.3 20.6 13.8C21.1 13.3 21.7 12.9 22.3 12.5C23 12 23.8 11.6 24.5 11.3C24.7 11.2 25 11.1 25.2 11C23.9 10.3 22.5 9.69999 21.1 9.19999C21.1 9.19999 21 9.19999 21.1 9.09999C21.4 8.69999 21.8999 8.49999 22.3999 8.59999C22.8999 8.69999 23.3 8.79999 23.8 8.89999C24.3 8.99999 24.8 9.19999 25.3 9.29999C25.6 9.39999 25.9 9.49999 26.1 9.59999C26.1 9.59999 26.2 9.59999 26.2 9.69999C26.4 8.09999 26.8999 6.99999 27.3999 6.99999C27.8999 6.99999 28.5 8.09999 28.6 9.69999C28.6 9.69999 28.7 9.69999 28.7 9.59999C29 9.49999 29.2 9.39999 29.5 9.29999C30 9.09999 30.5 8.99999 31 8.89999C31.4 8.79999 31.8999 8.69999 32.3999 8.59999C32.8999 8.59999 33.4 8.79999 33.7 9.09999V9.19999C32.3 9.69999 30.9 10.3 29.6 11C29.8 11.1 30.1 11.2 30.3 11.3C31.1 11.7 31.8 12.1 32.5 12.5C33.1 12.9 33.7 13.3 34.2 13.8C34.4 14.2 34.6 14.9 34.5 15.5ZM20.8 24.1H22.1C22.3 24.1 22.5 24.1 22.6 24.2L25.8 25.4L24.2 26L20.8 24.2C20.6 24.2 20.6 24.1 20.8 24.1ZM32.1 24.2H33.3999C33.4999 24.2 33.4999 24.3 33.3999 24.3L22.6 30.1C22.1 30.4 21.4999 30.5 20.8999 30.4H15.7C15.6 30.4 15.6 30.4 15.7 30.3L31.5 24.3C31.7 24.2 31.9 24.2 32.1 24.2Z" fill="#0075C9"/>
</svg>
