<?xml version="1.0" encoding="utf-8"?>
<!-- Generator: Adobe Illustrator 27.5.0, SVG Export Plug-In . SVG Version: 6.00 Build 0)  -->
<svg version="1.1" id="GACA_Logo" xmlns="http://www.w3.org/2000/svg" xmlns:xlink="http://www.w3.org/1999/xlink" x="0px" y="0px"
	 viewBox="0 0 400.9 66.4" style="enable-background:new 0 0 400.9 66.4;" xml:space="preserve">
<style type="text/css">
	.st0{fill-rule:evenodd;clip-rule:evenodd;fill:#58595B;}
	.st1{fill-rule:evenodd;clip-rule:evenodd;fill:#274479;}
	.st2{fill-rule:evenodd;clip-rule:evenodd;fill:#0075C9;}
	.st3{fill:#878787;}
	.st4{fill:#29367B;}
	.st5{fill:#D0DA33;}
	.st6{fill:#71BA44;}
	.st7{fill:#27B8BE;}
	.st8{fill:#58B75E;}
	.st9{fill:#3088C8;}
	.st10{fill:#1E3871;}
</style>
<g>
	<path class="st0" d="M336,46c0.3,0,0.6-0.3,0.6-0.6s-0.3-0.6-0.6-0.6c-0.3,0-0.6,0.3-0.6,0.6c0,0,0,0,0,0
		C335.4,45.7,335.7,46,336,46z M337.9,46c0.3,0,0.6-0.3,0.6-0.6c0-0.3-0.3-0.6-0.6-0.6s-0.6,0.3-0.6,0.6c0,0,0,0,0,0
		C337.3,45.7,337.6,46,337.9,46C337.9,46,337.9,46,337.9,46L337.9,46z M370.2,46c0.3,0,0.6-0.2,0.7-0.5c0-0.3-0.2-0.6-0.5-0.7
		c-0.1,0-0.1,0-0.2,0c-0.3,0-0.6,0.3-0.5,0.7C369.7,45.7,369.9,45.9,370.2,46z M372.1,46c0.3,0,0.6-0.3,0.5-0.7
		c0-0.3-0.2-0.5-0.5-0.5c-0.3,0-0.6,0.2-0.7,0.5c0,0.3,0.2,0.6,0.5,0.7C372,46,372.1,46,372.1,46z M383.8,47.4l-0.1-0.8
		c-0.4,0.1-1.4,0.4-1.5-0.3c-0.1-0.3,0.2-0.7,0.5-0.7c0.3,0,0.6,0,0.8,0.1l0.2-0.7c-0.5-0.2-1.1-0.2-1.6,0.1
		c-0.5,0.4-0.7,1.1-0.4,1.7l-0.8,0v0.6c0.6,0,1.1,0,1.7,0C382.7,47.5,383.4,47.4,383.8,47.4z M312.2,53.6c-0.3,0-0.6,0.3-0.6,0.6
		c0,0.3,0.3,0.6,0.6,0.6c0.3,0,0.6-0.3,0.6-0.6C312.8,53.9,312.5,53.6,312.2,53.6C312.2,53.6,312.2,53.6,312.2,53.6L312.2,53.6z
		 M314.1,53.6c-0.3,0-0.6,0.3-0.6,0.6s0.3,0.6,0.6,0.6c0.3,0,0.6-0.3,0.6-0.6C314.7,53.9,314.4,53.6,314.1,53.6L314.1,53.6z
		 M384.8,53.6c-0.3,0-0.6,0.3-0.5,0.7c0,0.3,0.2,0.5,0.5,0.5c0.3,0,0.6-0.2,0.7-0.5c0-0.3-0.2-0.6-0.5-0.7
		C384.9,53.6,384.9,53.6,384.8,53.6z M386.8,53.6c-0.3,0-0.6,0.2-0.7,0.5c0,0.3,0.2,0.6,0.5,0.7c0.1,0,0.1,0,0.2,0
		c0.3,0,0.6-0.3,0.5-0.7C387.2,53.8,387,53.6,386.8,53.6L386.8,53.6z M267.2,55c-0.3,0-0.6,0.3-0.6,0.6s0.3,0.6,0.6,0.6
		c0.3,0,0.6-0.3,0.6-0.6C267.8,55.3,267.5,55,267.2,55C267.2,55,267.2,55,267.2,55L267.2,55z M269.1,55c-0.3,0-0.6,0.3-0.6,0.6
		c0,0.3,0.3,0.6,0.6,0.6c0.3,0,0.6-0.3,0.6-0.6C269.7,55.3,269.4,55,269.1,55C269.1,55,269.1,55,269.1,55L269.1,55z M300.8,48.3
		c0.3,0,0.6-0.3,0.6-0.6c0-0.3-0.3-0.6-0.6-0.6c-0.3,0-0.6,0.3-0.6,0.6c0,0,0,0,0,0C300.2,48.1,300.5,48.3,300.8,48.3L300.8,48.3z
		 M273.7,47.2c0.3,0,0.6-0.3,0.6-0.6c0-0.3-0.3-0.6-0.6-0.6c-0.3,0-0.6,0.3-0.6,0.6C273.1,46.9,273.3,47.2,273.7,47.2
		C273.7,47.2,273.7,47.2,273.7,47.2L273.7,47.2z M398.7,45.1v7.3h1v-7.3H398.7z M364.1,52.4h1v-7.3h-1V52.4z M305.1,52.4h1v-7.3h-1
		V52.4z M396,50.9c0,0.4-0.3,0.7-0.7,0.7h-2.9c0,0,0,0,0.1-0.1c0.3-0.4,0.4-1,0.2-1.5c-0.1-0.5-0.5-1.9-1.5-1.9h0
		c-1.2,0-1.9,2-2,2.4c-0.1,0.4-0.2,0.7-0.3,1.1c-0.4,0-2.5,0-2.5,0c0.1-0.2,0.2-0.5,0.2-0.7v-2.5h-1v2.5c0,0.4-0.3,0.7-0.7,0.7h-0.6
		c-0.4,0-0.7-0.3-0.7-0.7v-2.5h-1v2.5c0,0.4-0.3,0.7-0.7,0.7H373c-0.4,0-0.7-0.3-0.7-0.7v-3.8h-1v0.5c-0.5,0.1-0.9,0.3-1.4,0.5
		c-0.9,0.3-1.7,1-2,1.9c-0.1,0.4,0,0.7,0.3,1c0.6,0.5,1.4,0.7,2.1,0.6c0.4,0,0.8,0,1.2-0.1c0.3,0.6,0.9,1,1.6,1h8.7
		c0.7-0.7,1.8-0.7,2.4,0h0.6c0.4,0,0.9-0.2,1.2-0.5v0.5c0,0,2.5,0,2.8,0c-0.1,1,0.5,2,1.4,2.4c0.3,0.1,0.6,0.2,0.9,0.2
		c0.8,0,1.5-0.4,1.9-1c0.2-0.5,0.2-1.1-0.2-1.5h2.5c1,0,1.7-0.8,1.7-1.7V45h-1L396,50.9L396,50.9z M368.8,50.3
		C368.8,50.3,368.8,50.3,368.8,50.3c0.1-0.7,1.4-1.3,2.4-1.7v1.9C370.4,50.7,369.6,50.6,368.8,50.3L368.8,50.3z M390.1,50.8
		c0.1-0.7,0.5-1.3,1.1-1.7l0,0c0.3,0.3,0.5,0.7,0.6,1.1c0.1,0.2,0.1,0.5-0.1,0.6c-0.5,0.4-1.1,0.6-1.8,0.6
		C390,51.2,390,51,390.1,50.8L390.1,50.8z M392.1,53.6c-0.4,0.4-1,0.6-1.5,0.3c-0.5-0.3-0.9-0.9-0.8-1.5c0.5,0,1.1-0.1,1.6-0.3
		l-0.2,0.4C391.9,53,392.2,53.4,392.1,53.6L392.1,53.6z M293,52.3h1V45h-1V52.3z M290.3,50.8c0,0.4-0.3,0.7-0.7,0.7l0,0h-2
		c0,0,0-0.1,0-0.1c0.3-0.8,0.2-1.6-0.2-2.3c-0.3-0.7-0.9-1.2-1.7-1.2h0c-0.8,0-1.4,0.5-1.7,1.2c-0.2,0.3-0.3,0.7-0.4,1.1
		c-0.3,0.9-0.4,1.3-1.5,1.3h-1c-0.2-1.6-1.2-3-2.6-3.8l-0.5,0.9c1.1,0.6,1.8,1.6,2.1,2.9H277v1h5.2c0.6,0,1.1-0.1,1.6-0.5
		c0.6,0.3,1.3,0.5,1.9,0.5c0.3,0,0.6,0,1-0.1c0.1,0,0.1,0,0.2-0.1v0.2h2.8c1,0,1.7-0.8,1.7-1.7v-5.8h-1V50.8L290.3,50.8z
		 M286.7,51.1c-0.1,0.2-0.2,0.3-0.4,0.4c-0.6,0.1-1.3,0.1-1.9-0.2c0.1-0.2,0.2-0.5,0.3-0.7c0.1-0.3,0.2-0.6,0.4-0.9
		c0.1-0.4,0.4-0.6,0.8-0.7l0,0c0.4,0,0.7,0.3,0.8,0.6C286.8,50,286.8,50.6,286.7,51.1L286.7,51.1z M346.8,47.9L346.8,47.9
		c-0.8,0-1.4,0.5-1.7,1.2c-0.2,0.3-0.3,0.7-0.4,1.1c-0.3,0.9-0.4,1.3-1.5,1.3H339c-0.4,0-0.7-0.3-0.7-0.7v0v-3.8h-1v0.5
		c-0.5,0.1-0.9,0.3-1.4,0.5c-0.9,0.3-1.7,1-2,1.9c-0.1,0.4,0,0.7,0.3,1c0.6,0.5,1.4,0.7,2.1,0.6c0.4,0,0.8,0,1.2-0.1
		c0.3,0.6,0.9,1,1.6,1h4.2c0.6,0,1.1-0.1,1.6-0.5c0.9,0.5,1.9,0.6,2.9,0.3c0.5-0.2,0.8-0.5,1-1c0.3-0.8,0.2-1.6-0.2-2.3
		C348.3,48.5,347.6,48,346.8,47.9L346.8,47.9z M334.9,50.3C334.9,50.3,334.9,50.3,334.9,50.3c0.1-0.7,1.4-1.3,2.4-1.7v1.9
		C336.5,50.7,335.7,50.6,334.9,50.3L334.9,50.3z M347.7,51.1c-0.1,0.2-0.2,0.3-0.4,0.4c-0.6,0.1-1.3,0.1-1.9-0.2
		c0.1-0.2,0.2-0.5,0.3-0.7c0.1-0.3,0.2-0.6,0.4-0.9c0.1-0.3,0.4-0.6,0.8-0.7h0c0.4,0.1,0.7,0.3,0.8,0.6
		C347.8,50.1,347.9,50.6,347.7,51.1L347.7,51.1z M329.8,50.8c0,0.4-0.3,0.7-0.7,0.7l0,0h-0.6c-0.4,0-0.7-0.3-0.7-0.7v0V45h-1v5.8
		c0,0.4-0.3,0.7-0.7,0.7l0,0h-1.5c0.1-1.1-0.3-2.2-1.1-3c-1-0.8-2.3-0.3-3.3,0.3c-0.6,0.4-1.1,0.8-1.5,1.2v-5h-1v6.5h-4.2
		c0.1-0.2,0.1-0.5,0.1-0.7v-2.5h-1v2.5c0,0.4-0.3,0.7-0.7,0.7l0,0h-2.2c-0.4,0-0.7-0.3-0.7-0.7v0v-2.5h-1v4c0,0.8-0.6,1.4-1.4,1.4v1
		c1.3,0,2.4-1,2.5-2.4c0.2,0.1,0.5,0.1,0.7,0.1h2.2c0.3,0,0.7-0.1,0.9-0.3v0.3H326c0.7-0.7,1.8-0.7,2.4,0h0.6c1,0,1.7-0.8,1.7-1.7
		V45h-1L329.8,50.8L329.8,50.8z M318.7,51.2c0.4-0.4,0.9-0.8,1.4-1.1c0.5-0.4,1.2-0.7,1.8-0.9c0.3-0.1,0.6,0,0.8,0.1
		c0.2,0.2,0.4,0.4,0.4,0.6c0.2,0.5,0.3,1.1,0.3,1.6h-4.8V51.2z M274.7,50.8c0,0.4-0.3,0.7-0.7,0.7l0,0h-0.4c-0.4,0-0.7-0.3-0.7-0.7
		v-1.4c0-0.4-0.2-0.8-0.5-1c-0.4-0.3-0.9-0.4-1.4-0.2c-0.9,0.2-1.6,1-1.6,1.9v2.4c0,0.3-0.2,0.5-0.5,0.5c-0.9,0.3-1.8,0.1-2.5-0.5
		c-0.7-0.6-0.8-1.7-0.3-3l-1-0.4c-0.9,2.3-0.1,3.5,0.5,4.1c0.7,0.6,1.5,0.9,2.4,0.9c0.4,0,0.8-0.1,1.2-0.2c0.6-0.2,1.1-0.8,1.1-1.5
		v-2.4c0-0.5,0.4-0.8,0.8-0.9c0.2-0.1,0.3,0,0.5,0c0.1,0.1,0.1,0.1,0.1,0.2v1.4c0,1,0.8,1.7,1.8,1.7h0.5c1,0,1.7-0.8,1.7-1.7v-2.5
		h-1L274.7,50.8L274.7,50.8z M302.5,52.5c0,0.3-0.2,0.5-0.5,0.5c-0.9,0.3-1.8,0.1-2.5-0.5c-0.7-0.6-0.8-1.7-0.3-3l-1-0.4
		c-0.9,2.3-0.1,3.5,0.5,4.1c0.7,0.6,1.5,0.9,2.4,0.9c0.4,0,0.8-0.1,1.2-0.2c0.6-0.2,1.1-0.8,1.1-1.5v-4.1h-1L302.5,52.5L302.5,52.5z
		 M361.4,50.8c0,0.4-0.3,0.7-0.7,0.7h-0.4c-0.9,0-1.7,0-2.6-0.2c0,0,0.1,0,0.1-0.1c0.2-0.2,1.3-1.2,1.1-2.2c-0.1-0.5-0.5-0.9-1-1
		l-0.1,0l0,0c-0.9-0.1-1.9-0.1-2.8,0l-0.1,0l0,0c-0.4,0.1-0.7,0.4-0.8,0.9c-0.2,0.9,0.7,1.9,1.1,2.3c0.1,0.1,0.1,0.1,0.2,0.2
		c-0.6,0.1-1.3,0.2-1.9,0.2h-1.5c-0.4,0-0.7-0.3-0.7-0.7v0V45h-1v5.8c0,1,0.8,1.7,1.7,1.7c0,0,0,0,0,0h1.5c1.1,0.1,2.1-0.1,3.1-0.5
		c1.2,0.4,2.4,0.6,3.7,0.5h0.4c1,0,1.7-0.8,1.7-1.7V45h-1L361.4,50.8L361.4,50.8z M357.2,50.5c-0.2,0.2-0.4,0.3-0.6,0.4
		c-0.2-0.1-0.4-0.3-0.6-0.4c-0.4-0.3-0.7-0.8-0.8-1.3c0,0,0.1-0.1,0.1-0.1c0.8-0.1,1.6-0.1,2.4,0c0.1,0,0.2,0.1,0.3,0.2
		C357.9,49.8,357.6,50.2,357.2,50.5L357.2,50.5z"/>
	<path class="st0" d="M264.6,61.1c0-2.1,1.1-3.4,2.7-3.4c0.9,0,1.8,0.6,2.1,1.4l-0.9,0.4c-0.2-0.5-0.7-0.8-1.2-0.9
		c-1,0-1.6,0.9-1.6,2.5s0.6,2.5,1.6,2.5c0.4,0,0.8-0.2,1.1-0.5v-1.2h-1.4v-1h2.5v2.6c-0.5,0.7-1.3,1-2.2,1
		C265.7,64.6,264.7,63.2,264.6,61.1 M270.6,62c0-1.4,0.8-2.5,2.1-2.5c1.3,0,2,1.1,2,2.6v0.3h-3.1c-0.1,0.7,0.5,1.3,1.2,1.4
		c0,0,0.1,0,0.1,0c0.4,0,0.8-0.2,1.1-0.5l0.5,0.6c-0.8,0.9-2.2,1-3.1,0.2C270.8,63.5,270.5,62.7,270.6,62 M272.7,60.3
		c-0.7,0.1-1.1,0.7-1.1,1.3h2.1C273.8,61,273.4,60.4,272.7,60.3C272.7,60.3,272.7,60.3,272.7,60.3 M278.5,64.4v-3.3
		c0.1-0.3-0.1-0.7-0.5-0.8c-0.1,0-0.1,0-0.2,0c-0.4,0-0.8,0.3-1,0.7v3.4h-1v-4.8h1v0.6c0.3-0.5,0.8-0.7,1.4-0.8
		c0.6-0.1,1.2,0.4,1.3,1c0,0.1,0,0.2,0,0.3v3.6H278.5L278.5,64.4z M280.6,62c0-1.4,0.8-2.5,2.1-2.5c1.3,0,2,1.1,2,2.6v0.3h-3.1
		c-0.1,0.7,0.5,1.3,1.2,1.4c0,0,0.1,0,0.1,0c0.4,0,0.8-0.2,1.1-0.5l0.5,0.6c-0.8,0.9-2.2,1-3.1,0.2C280.8,63.5,280.6,62.7,280.6,62
		 M282.7,60.3c-0.7,0.1-1.1,0.7-1.1,1.3h2.1C283.9,61,283.4,60.4,282.7,60.3C282.8,60.3,282.7,60.3,282.7,60.3 M285.9,64.4v-4.8h1
		v0.7c0.3-0.5,0.8-0.8,1.3-0.8v1c-0.1,0-0.2,0-0.3,0c-0.4,0-0.8,0.3-1.1,0.7v3.3L285.9,64.4L285.9,64.4z M291.7,64.4v-0.5
		c-0.3,0.4-0.8,0.6-1.3,0.6c-0.8,0-1.5-0.7-1.5-1.5c0,0,0-0.1,0-0.1c-0.1-0.8,0.5-1.5,1.3-1.6c0.1,0,0.1,0,0.2,0
		c0.5,0,1,0.2,1.3,0.6v-0.7c0-0.5-0.3-0.9-0.8-0.9c-0.1,0-0.1,0-0.2,0c-0.5,0-0.9,0.2-1.2,0.5l-0.4-0.7c0.5-0.5,1.1-0.7,1.8-0.7
		c0.8-0.1,1.6,0.5,1.7,1.3c0,0.1,0,0.2,0,0.4v3.3L291.7,64.4L291.7,64.4z M291.7,63.3v-0.7c-0.2-0.3-0.5-0.5-0.9-0.5
		c-0.5,0-0.9,0.5-0.8,1c0,0.4,0.4,0.8,0.8,0.8C291.1,63.8,291.5,63.6,291.7,63.3 M294.1,57.8h1v6.6h-1V57.8z M302.3,64.4l-0.4-1.3
		h-2.2l-0.4,1.3h-1.2l2-6.6h1.3l2,6.6L302.3,64.4L302.3,64.4z M300.9,59l-0.9,3.2h1.8L300.9,59z M307,64.4v-0.6
		c-0.3,0.5-0.9,0.7-1.4,0.8c-0.6,0.1-1.2-0.4-1.3-1c0-0.1,0-0.2,0-0.3v-3.6h1v3.3c-0.1,0.3,0.2,0.7,0.5,0.8c0.1,0,0.1,0,0.2,0
		c0.4,0,0.8-0.3,1-0.7v-3.4h1v4.8L307,64.4L307,64.4z M309.6,63.3v-2.9h-0.6v-0.9h0.6v-1.3h1v1.3h0.8v0.9h-0.8v2.7
		c0,0.3,0.1,0.5,0.4,0.5c0.1,0,0.3-0.1,0.4-0.2l0.2,0.7c-0.2,0.2-0.6,0.3-0.9,0.3c-0.6,0.1-1.1-0.3-1.1-0.9
		C309.5,63.5,309.5,63.4,309.6,63.3 M315.1,64.4v-3.3c0.1-0.3-0.2-0.7-0.5-0.7c-0.1,0-0.1,0-0.2,0c-0.4,0-0.8,0.3-1,0.7v3.4h-1v-6.6
		h1v2.5c0.3-0.5,0.9-0.7,1.4-0.8c0.6-0.1,1.2,0.4,1.3,1c0,0.1,0,0.2,0,0.3v3.6L315.1,64.4L315.1,64.4z M317.2,62
		c0-1.4,0.7-2.5,2.1-2.5s2.1,1.2,2.1,2.5s-0.7,2.5-2.1,2.5S317.2,63.4,317.2,62 M320.4,62c0-0.9-0.3-1.6-1.1-1.6s-1.1,0.8-1.1,1.6
		s0.3,1.7,1.1,1.7S320.4,62.9,320.4,62 M322.6,64.4v-4.8h1v0.7c0.3-0.5,0.8-0.8,1.3-0.8v1c-0.1,0-0.2,0-0.3,0
		c-0.4,0-0.8,0.3-1.1,0.7v3.3L322.6,64.4L322.6,64.4z M325.8,58.4c0-0.3,0.3-0.6,0.6-0.6c0.3,0,0.6,0.3,0.6,0.6
		c0,0.3-0.3,0.6-0.6,0.6C326,59,325.8,58.7,325.8,58.4 M325.9,59.6h1v4.8h-1V59.6z M328.5,63.3v-2.9h-0.6v-0.9h0.6v-1.3h1v1.3h0.8
		v0.9h-0.8v2.7c0,0.3,0.1,0.5,0.4,0.5c0.1,0,0.3-0.1,0.4-0.2l0.2,0.7c-0.2,0.2-0.6,0.3-0.9,0.3c-0.6,0.1-1.1-0.3-1.1-0.9
		C328.4,63.5,328.4,63.4,328.5,63.3 M331.3,65.4c0.1,0,0.2,0.1,0.3,0.1c0.3,0,0.5-0.1,0.6-0.4l0.2-0.6l-1.6-4.9h1.1l1.1,3.6l1.1-3.6
		h1.1l-1.9,5.7c-0.1,0.7-0.8,1.1-1.4,1c-0.2,0-0.4,0-0.5-0.1L331.3,65.4z M337.9,62c0-1.4,0.7-2.5,2.1-2.5s2.1,1.2,2.1,2.5
		s-0.7,2.5-2.1,2.5S337.9,63.4,337.9,62 M341.1,62c0-0.9-0.3-1.6-1.1-1.6S339,61.1,339,62s0.3,1.7,1.1,1.7S341.1,62.9,341.1,62
		 M343.5,64.4v-3.9h-0.6v-0.9h0.6v-0.4c-0.1-0.7,0.4-1.4,1.1-1.5c0.1,0,0.2,0,0.2,0c0.4,0,0.7,0.1,1,0.3l-0.3,0.7
		c-0.1-0.1-0.3-0.2-0.5-0.2c-0.3,0-0.5,0.2-0.6,0.5c0,0,0,0.1,0,0.1v0.4h0.8v0.9h-0.8v3.9L343.5,64.4L343.5,64.4z M348.4,61.1
		c0-2,1.1-3.4,2.7-3.4c0.9,0,1.8,0.6,2.1,1.5l-0.9,0.4c-0.2-0.5-0.6-0.9-1.2-0.9c-1,0-1.6,1-1.6,2.5s0.6,2.5,1.6,2.5
		c0.6,0,1.1-0.4,1.2-1l0.9,0.4c-0.3,0.9-1.2,1.5-2.1,1.6C349.4,64.5,348.4,63.1,348.4,61.1 M354.1,58.4c0-0.3,0.3-0.6,0.6-0.6
		c0.3,0,0.6,0.3,0.6,0.6c0,0.3-0.3,0.6-0.6,0.6C354.4,59,354.2,58.7,354.1,58.4 M354.3,59.6h1v4.8h-1V59.6z M357.7,64.4l-1.6-4.8
		h1.1l1.1,3.6l1.1-3.6h1.1l-1.6,4.8H357.7L357.7,64.4z M361.1,58.4c0-0.3,0.3-0.6,0.6-0.6s0.6,0.3,0.6,0.6c0,0.3-0.3,0.6-0.6,0.6
		c0,0,0,0,0,0C361.4,59,361.1,58.7,361.1,58.4 M361.2,59.6h1v4.8h-1V59.6z M363.6,57.8h1v6.6h-1V57.8z M371.9,64.4l-0.4-1.3h-2.2
		l-0.4,1.3h-1.2l2-6.6h1.3l2,6.6H371.9z M370.4,59l-0.9,3.2h1.8L370.4,59z M374.8,64.4l-1.6-4.8h1.1l1.1,3.6l1.1-3.6h1.1l-1.6,4.8
		H374.8L374.8,64.4z M378.1,58.4c0-0.3,0.3-0.6,0.6-0.6s0.6,0.3,0.6,0.6c0,0.3-0.3,0.6-0.6,0.6c0,0,0,0,0,0
		C378.4,59,378.2,58.7,378.1,58.4 M378.3,59.6h1v4.8h-1V59.6z M383.2,64.4v-0.5c-0.3,0.4-0.8,0.6-1.3,0.6c-0.8,0-1.5-0.7-1.5-1.5
		c0,0,0-0.1,0-0.1c-0.1-0.8,0.5-1.5,1.3-1.6c0.1,0,0.1,0,0.2,0c0.5,0,1,0.2,1.3,0.6v-0.7c0-0.5-0.3-0.9-0.8-0.9c-0.1,0-0.1,0-0.2,0
		c-0.5,0-0.9,0.2-1.2,0.5l-0.4-0.7c0.5-0.5,1.1-0.7,1.8-0.7c0.8-0.1,1.6,0.4,1.7,1.3c0,0.1,0,0.2,0,0.4v3.3L383.2,64.4L383.2,64.4z
		 M383.2,63.3v-0.7c-0.2-0.3-0.5-0.5-0.9-0.5c-0.5,0-0.9,0.5-0.8,1c0,0.4,0.4,0.8,0.8,0.8C382.6,63.8,383,63.6,383.2,63.3
		 M385.7,63.3v-2.9h-0.6v-0.9h0.6v-1.3h1v1.3h0.8v0.9h-0.8v2.7c0,0.3,0.1,0.5,0.4,0.5c0.1,0,0.3-0.1,0.4-0.2l0.2,0.7
		c-0.2,0.2-0.6,0.3-0.9,0.3c-0.6,0.1-1.1-0.3-1.1-0.9C385.7,63.5,385.7,63.4,385.7,63.3 M388.5,58.4c0-0.3,0.3-0.6,0.6-0.6
		c0.3,0,0.6,0.3,0.6,0.6c0,0.3-0.3,0.6-0.6,0.6C388.8,59,388.5,58.7,388.5,58.4 M388.6,59.6h1v4.8h-1V59.6z M390.8,62
		c0-1.4,0.7-2.5,2.1-2.5s2.1,1.2,2.1,2.5s-0.7,2.5-2.1,2.5S390.8,63.4,390.8,62 M393.9,62c0-0.9-0.3-1.6-1.1-1.6s-1.1,0.8-1.1,1.6
		s0.3,1.7,1.1,1.7S393.9,62.9,393.9,62 M398.8,64.4v-3.3c0.1-0.4-0.2-0.7-0.5-0.8c-0.1,0-0.1,0-0.2,0c-0.4,0-0.8,0.3-1,0.7v3.4h-1
		v-4.8h1v0.6c0.3-0.5,0.8-0.7,1.4-0.8c0.6-0.1,1.2,0.4,1.3,1c0,0.1,0,0.2,0,0.3v3.6H398.8L398.8,64.4z"/>
	<path class="st1" d="M397.8,7c1.7,0,3.1-1.4,3.1-3.1c0-1.7-1.4-3.1-3.1-3.1s-3.1,1.4-3.1,3.1l0,0C394.7,5.6,396.1,7,397.8,7
		C397.8,7,397.8,7,397.8,7 M397.8,1.4c1.4,0,2.5,1.1,2.5,2.4c0,0,0,0.1,0,0.1c0,1.4-1.1,2.5-2.5,2.5c-1.4,0-2.5-1.1-2.5-2.5
		C395.3,2.5,396.4,1.4,397.8,1.4 M397.2,5.5V4.2h0.8l0.6,1.3h0.7l-0.7-1.4c0.5-0.2,0.7-0.8,0.5-1.3c-0.2-0.4-0.5-0.6-0.9-0.6h-1
		c-0.2,0-0.5,0.1-0.5,0.4c0,0,0,0.1,0,0.1l0,2.9H397.2L397.2,5.5z M397.2,2.7h0.9c0.2,0,0.4,0.2,0.5,0.4c0,0,0,0,0,0.1
		c0,0.3-0.2,0.5-0.4,0.5c0,0,0,0-0.1,0h-0.8V2.7L397.2,2.7z M280,7c6.6,0,7.4,6.8,7.4,6.8l7.8-1.8c0-0.2-1.4-11.9-15.2-11.9
		c-8.5,0-16.5,5.2-16.5,18.5c0,13.2,8.4,18.3,17.1,18.3c4,0,8-0.9,11.5-2.8c1.9-1.1,2.9-2.2,2.9-4.4v-8.2c0-2.1-1.4-3.4-3.7-3.4
		h-10.7v6h6.7v4.7c-2,1.1-4.2,1.7-6.5,1.6c-4.4,0-9-2.7-9-11.8C271.9,9.6,275.9,7,280,7 M314.7,0c-3.3,0-5.3,1.4-6.2,4.3l-10.6,32.1
		h8.4c0.6,0,1.2-0.3,1.7-0.8l10.1-10c0.2-0.2,0.2-0.3-0.1-0.3h-1.4c-0.6,0-1.1,0.1-1.6,0.4l-6.8,3.9l6.5-21.8c0,0,7.7,26.4,8.3,28.5
		h8.6L321.1,4.2C320.2,1.5,318,0,314.7,0 M349.4,6.9c6.5,0,7.4,7.2,7.4,7.2l7.8-1.6c0,0-1.2-12.4-15.2-12.4
		c-8.5,0-16.5,5.1-16.5,18.4c0,13.2,7.9,18.5,16.4,18.5c13.8,0,15.3-12.2,15.3-12.2l-7.8-1.7c0,0-0.6,7-7.3,7
		c-4.1,0-8.2-2.7-8.2-11.6C341.3,9.5,345.2,6.9,349.4,6.9 M383.4,0c-3.3,0-5.3,1.4-6.2,4.3l-10.6,32.1h8.4c0.6,0,1.2-0.3,1.7-0.8
		l10.1-10c0.2-0.2,0.2-0.3-0.1-0.3h-1.4c-0.6,0-1.1,0.1-1.6,0.4l-6.8,3.9l6.4-21.8c0,0,7.7,26.4,8.3,28.5h8.6L389.8,4.2
		C388.9,1.5,386.7,0,383.4,0"/>
	<path class="st2" d="M260.9,36.5L260.9,36.5c0.1,0,0.2-0.1,0.2-0.3c0-0.1,0-0.2-0.1-0.3c-4.5-1.5-7.8-5.5-8.3-10.3l-2-14.1
		c-0.9-6.6-5.8-11-11.4-11.1h-28.9c-0.1,0-0.2,0.1-0.2,0.2c0,0,0,0,0,0c0,0.1,0,0.2,0.1,0.2c4.5,1.5,7.8,5.5,8.2,10.3l2,14.1
		c0.9,6.5,5.8,11,11.4,11.2L260.9,36.5z M248.5,30.4h-5.2c-0.6,0.1-1.1-0.1-1.7-0.3l-3.5-1.9l2-1.1L248.5,30.4
		C248.7,30.4,248.7,30.4,248.5,30.4L248.5,30.4z M244.5,15.5c0,0-0.1,0-0.1,0c-1.6-0.9-3.3-1.7-5.1-2.3c-0.2-0.1-0.5-0.2-0.8-0.2
		l0,0c-0.1,5.8-0.7,10.4-1.2,10.4s-1.1-4.5-1.2-10.4l0,0c-0.3,0.1-0.6,0.2-0.8,0.2c-1.8,0.6-3.5,1.3-5.1,2.3c0,0-0.1,0-0.1,0
		c0,0,0,0,0,0c-0.1-0.6,0.1-1.2,0.5-1.7c0.5-0.5,1.1-0.9,1.7-1.3c0.7-0.5,1.5-0.9,2.2-1.2c0.2-0.1,0.5-0.2,0.7-0.3
		c-1.3-0.7-2.7-1.3-4.1-1.8c0,0-0.1,0,0-0.1c0,0,0,0,0,0c0,0,0,0,0,0c0.3-0.4,0.8-0.6,1.3-0.5c0.5,0.1,0.9,0.2,1.4,0.3
		c0.5,0.1,1,0.3,1.5,0.4c0.3,0.1,0.6,0.2,0.8,0.3c0,0,0.1,0,0.1,0.1c0.2-1.6,0.7-2.7,1.2-2.7s1.1,1.1,1.2,2.7c0,0,0.1,0,0.1-0.1
		c0.3-0.1,0.5-0.2,0.8-0.3c0.5-0.2,1-0.3,1.5-0.4c0.4-0.1,0.9-0.2,1.4-0.3c0.5,0,1,0.2,1.3,0.5c0,0,0,0,0,0c0,0,0,0.1,0,0.1
		c0,0,0,0,0,0c-1.4,0.5-2.8,1.1-4.1,1.8c0.2,0.1,0.5,0.2,0.7,0.3c0.8,0.4,1.5,0.8,2.2,1.2c0.6,0.4,1.2,0.8,1.7,1.3
		C244.4,14.2,244.6,14.9,244.5,15.5C244.5,15.5,244.5,15.5,244.5,15.5L244.5,15.5z M230.8,24.1l1.3,0c0.2,0,0.4,0,0.5,0.1l3.2,1.2
		l-1.6,0.6l-3.4-1.8C230.6,24.2,230.6,24.1,230.8,24.1L230.8,24.1z M242.1,24.2l1.3,0c0.1,0,0.1,0.1,0,0.1l-10.8,5.8
		c-0.5,0.3-1.1,0.4-1.7,0.3h-5.2c-0.1,0-0.1,0,0-0.1l15.8-6C241.7,24.2,241.9,24.2,242.1,24.2L242.1,24.2z"/>
</g>
<g>
	<path class="st3" d="M69,37L69,37c0,4.7-3.4,8.1-8.8,8.1c-4.4,0-7.5-1.8-9.6-4.2l3.7-3.5c1.7,1.9,3.4,2.9,5.9,2.9
		c2,0,3.5-1.2,3.5-3c0,0,0.4-3.2-4.8-3.2h-2.2l-0.8-3.4l7.9-7.9l-3.1,2h-8.5v-4.6h16.6v4.1l-6.2,5.9C65.8,30.7,69,32.4,69,37
		 M53.7,9c0-2.2,1.6-4,3.8-4H60l-0.7,0.3c0,6.1-0.1,6.8,0.3,7.7h-2.1C55.3,13,53.7,11.2,53.7,9L53.7,9z M57.5,14.1h2.2v-0.8
		c0.2,0.3,0.4,0.5,0.7,0.6c0.7,0.3,0.2,0.1,20.6,0.2V4h-1.1v9c0,0-18.6,0.1-19-0.1c-0.3-0.1-0.4-0.4-0.5-0.8c-0.1-0.5,0-0.6,0-8.2
		h-2.9c-3,0-5,2.3-5,5v0C52.5,11.7,54.5,14.1,57.5,14.1 M88.9,2.9h-2.3c0-0.8-0.3-2.2,1.3-2.2h0.8v0.7c-0.7,0-1.2-0.2-1.2,0.4v0.2
		h1.5L88.9,2.9L88.9,2.9z M91.6,14.2c-0.3,0-0.6,0-0.9-0.1l0.3-1c0.5,0.1,1.1,0.1,1.4-0.3c0.3-0.5,0.2-0.7,0.2-8.8h1.1
		c0,7.6,0.1,7.8-0.1,8.6C93.4,13.7,92.7,14.2,91.6,14.2 M60.4,2.9h-1.1V1.8h1.1V2.9z M84.1,6.6c0.5-1,1.6-1.5,2.6-1.5l0,0h1.7
		l-0.6,0.3v4.8c-0.8,0-1.4,0.1-2.2-0.2c-1.1-0.3-1.8-1.2-1.8-2.3C83.8,7.3,83.9,6.9,84.1,6.6 M84.1,10.4c1.4,1,3.3,0.8,3.4,0.8
		l0.4-0.8c0,0.7,0.2,1.8-0.5,2.3c-0.6,0.4-1.6,0.4-2.2,0.3c-0.3-0.1-0.6-0.2-0.9-0.3l-0.3,1c0.7,0.2,1.3,0.4,2.1,0.4
		c1,0,1.8-0.2,2.3-0.7s0.7-1.2,0.7-2V4c-1.3,0-2.3-0.1-3.5,0.3C82.1,5.4,82.1,9,84.1,10.4 M58.3,2.9h-1.1V1.8h1.1V2.9z M47.1,4h1.1
		V14h-0.9l-7.1-9l0.6,1.5V14h-1.1V4h1.1l6.8,8.7l-0.5-1.2V4L47.1,4z M5.3,14.1L0.9,4h1.3c0.1,0.1,3.5,8.5,3.9,9.4L6,12.2L9.4,4h1.2
		L6.3,14.1C6.3,14.1,5.3,14.1,5.3,14.1z M24.5,4h1.1V14h-1.1V4z M36.7,9c0,2.3-1.6,4.1-4,4.1s-4-1.9-4-4.2v0c0-2.3,1.7-4.1,4-4.1
		S36.7,6.7,36.7,9L36.7,9L36.7,9z M32.7,3.8c-3.1,0-5.2,2.4-5.2,5.2v0c0,2.8,2.1,5.2,5.1,5.2c3.1,0,5.2-2.4,5.2-5.2v0
		C37.9,6.2,35.8,3.8,32.7,3.8 M22.6,11.3L22.6,11.3c0,1.8-1.4,2.9-3.4,2.9c-1.6,0-2.9-0.5-4.1-1.6l0.7-0.8c1.1,0.9,2.1,1.4,3.5,1.4
		c1.4,0,2.2-0.7,2.2-1.7v0c0-2.8-6-1-6-4.8v0c0-1.6,1.4-2.7,3.3-2.7c1.5,0,2.5,0.4,3.5,1.2l-0.7,0.9c-2.3-1.9-5.1-1.1-5.1,0.5v0
		c0,0.9,0.5,1.5,2.7,2C21.6,9,22.6,9.8,22.6,11.3 M13.3,14.1h-1.1V4h1.1V14.1z M79.5,15.2h1.1v1.1h-1.1V15.2z M77.4,15.2h1.1v1.1
		h-1.1V15.2z M9.9,40h9.3v4.6H1.1v-4.2c9.1-7.7,12.4-9.2,12.4-12.6c0-2.1-1.4-3.2-3.3-3.2c-1.9,0-3.2,1-5,3.3l-3.8-3
		c2.4-3.3,4.8-5.1,9.1-5.1c5.1,0,8.4,3,8.4,7.5v0.1C19,33.2,14.7,35,7.2,41l-1,0.8L9.9,40z M90.8,32.5c0,4.2-3,7.6-7.3,7.6
		c-4.3,0-7.4-3.5-7.4-7.7v-0.1c0-4.2,3-7.6,7.3-7.6C87.7,24.7,90.8,28.2,90.8,32.5L90.8,32.5z M83.5,19.8c-7.6,0-13,5.7-13,12.6v0.1
		c0,6.9,5.4,12.6,13,12.6s13-5.7,13-12.6v-0.1C96.4,25.4,91,19.8,83.5,19.8"/>
	<path class="st4" d="M33.9,18.2l1.2,1.2L34,20.6l-1.2-1.2"/>
	<path class="st3" d="M36.7,19.4l1.2,1.2l1.2-1.2l-1.2-1.2"/>
	<path class="st5" d="M35,20.9l1,0.9l0.9-1l-1-0.9"/>
	<path class="st6" d="M38.5,21.5l1,0.9l0.9-1l-1-0.9"/>
	<path class="st5" d="M33.4,22.4l1,0.9l0.9-1l-1-0.9"/>
	<path class="st7" d="M36.7,22.5l1,0.9l0.9-1l-1-0.9"/>
	<path class="st6" d="M35.4,23.6l0.7,0.6l0.6-0.7L36,23"/>
	<path class="st8" d="M38,24.2l0.7,0.6l0.6-0.7l-0.7-0.6"/>
	<path class="st9" d="M43.5,19l2.1-0.4l0.4,2.1l-2.1,0.4L43.5,19z"/>
	<path class="st10" d="M40.8,19.9l1.7-0.3l0.3,1.7l-1.7,0.3L40.8,19.9z"/>
	<path class="st7" d="M44.1,22.2l1.7-0.3l0.3,1.7l-1.7,0.3L44.1,22.2z"/>
	<path class="st5" d="M41.7,22.5l1.3-0.2l0.2,1.3L42,23.8L41.7,22.5z"/>
	<path class="st3" d="M44.3,25l1.3-0.2l0.2,1.3l-1.3,0.2L44.3,25z"/>
	<path class="st7" d="M39.8,23l1.3-0.2l0.2,1.3L40,24.3L39.8,23z"/>
	<path class="st6" d="M42.2,24.7l1.3-0.2l0.2,1.3L42.4,26L42.2,24.7z"/>
	<path class="st3" d="M40.5,24.9l0.9-0.2l0.2,0.9l-0.9,0.2L40.5,24.9z"/>
	<path class="st8" d="M42.3,26.8l0.9-0.2l0.2,0.9l-0.9,0.2L42.3,26.8z"/>
	<path class="st4" d="M49.8,25.9l-0.9,1.9l1.9,0.9l0.9-1.9"/>
	<path class="st7" d="M47.1,25l-0.7,1.6l1.6,0.7l0.7-1.6"/>
	<path class="st6" d="M48.3,28.8l-0.7,1.6l1.6,0.7l0.7-1.6"/>
	<path class="st5" d="M46.3,27.6l-0.6,1.2l1.2,0.6l0.6-1.2"/>
	<path class="st5" d="M46.9,31.2l-0.6,1.2l1.2,0.6l0.6-1.2"/>
	<path class="st9" d="M44.4,26.9l-0.6,1.2l1.2,0.6l0.6-1.2"/>
	<path class="st3" d="M45.3,29.7l-0.6,1.2l1.2,0.6l0.6-1.2"/>
	<path class="st6" d="M43.9,28.9l-0.4,0.8l0.8,0.4l0.4-0.8"/>
	<path class="st7" d="M43.8,32.3l0.4-0.8l0.8,0.4l-0.4,0.8L43.8,32.3z"/>
	<path class="st9" d="M50.9,35.1l-1.9,1l1,1.9l1.9-1"/>
	<path class="st7" d="M49.1,32.8l-1.5,0.8l0.8,1.5l1.5-0.8"/>
	<path class="st7" d="M47.9,36.6l-1.5,0.8l0.8,1.5l1.5-0.8"/>
	<path class="st4" d="M47,34.5l-1.2,0.6l0.6,1.2l1.2-0.6"/>
	<path class="st8" d="M45.4,37.7l-1.2,0.6l0.6,1.2l1.2-0.6"/>
	<path class="st10" d="M45.9,32.8l-1.2,0.6l0.6,1.2l1.2-0.6"/>
	<path class="st5" d="M45,35.6l-1.2,0.6l0.6,1.2l1.2-0.6"/>
	<path class="st3" d="M44.3,34.1l-0.8,0.4l0.4,0.8l0.8-0.4"/>
	<path class="st7" d="M43,36.4l-0.8,0.4l0.4,0.8l0.8-0.4"/>
	<path class="st6" d="M43.9,45.1l0.3-2.1l2.1,0.3L46,45.4L43.9,45.1z"/>
	<path class="st10" d="M44.4,41.8l0.2-1.7l1.7,0.2l-0.2,1.7L44.4,41.8z"/>
	<path class="st7" d="M41.1,44.2l0.2-1.7l1.7,0.2l-0.2,1.7L41.1,44.2z"/>
	<path class="st6" d="M42,41.6l0.2-1.3l1.3,0.2l-0.2,1.3L42,41.6z"/>
	<path class="st3" d="M38.8,43.3L39,42l1.3,0.2l-0.2,1.3L38.8,43.3z"/>
	<path class="st3" d="M42.1,39.6l0.2-1.3l1.3,0.2l-0.2,1.3L42.1,39.6z"/>
	<path class="st6" d="M39.7,41.4l0.2-1.3l1.3,0.2l-0.2,1.3L39.7,41.4z"/>
	<path class="st3" d="M40.5,39.4l0.1-0.9l0.9,0.1l-0.1,0.9L40.5,39.4z"/>
	<path class="st3" d="M38.2,40.5l0.1-0.9l0.9,0.1l-0.1,0.9L38.2,40.5z"/>
	<path class="st5" d="M37.8,47.1l-1.6-1.5l-1.5,1.6l1.6,1.5"/>
	<path class="st6" d="M37.5,17.2L36,15.7l-1.5,1.6l1.6,1.5"/>
	<path class="st7" d="M39.5,44.8l-1.3-1.2l-1.2,1.3l1.3,1.2"/>
	<path class="st6" d="M35.5,44.9l-1.3-1.2L33,45l1.3,1.2"/>
	<path class="st9" d="M37.2,43.3l-1-0.9l-0.9,1l1,0.9"/>
	<path class="st5" d="M33.6,42.8l-1-0.9l-0.9,1l1,0.9"/>
	<path class="st5" d="M38.4,41.7l-1-0.9l-0.9,1l1,0.9"/>
	<path class="st3" d="M35.5,41.7l-1-0.9l-0.9,1l1,0.9"/>
	<path class="st10" d="M36.7,40.6l-0.7-0.6l-0.6,0.7l0.7,0.6"/>
	<path class="st3" d="M34.2,40.1l-0.7-0.6l-0.6,0.7l0.7,0.6"/>
	<path class="st9" d="M26.1,43.7l2.1-0.4l0.4,2.1l-2.1,0.4L26.1,43.7z"/>
	<path class="st7" d="M29.4,43.1l1.7-0.3l0.3,1.7l-1.7,0.3L29.4,43.1z"/>
	<path class="st6" d="M26.1,40.8l1.7-0.3l0.3,1.7l-1.7,0.3L26.1,40.8z"/>
	<path class="st5" d="M28.8,40.8l1.3-0.3l0.3,1.3l-1.3,0.3L28.8,40.8z"/>
	<path class="st4" d="M30.8,40.2l1.3-0.3l0.3,1.3l-1.3,0.3L30.8,40.2z"/>
	<path class="st9" d="M28.4,38.6l1.3-0.3l0.3,1.3l-1.3,0.3L28.4,38.6z"/>
	<path class="st6" d="M30.5,38.7l0.9-0.2l0.2,0.9l-0.9,0.2L30.5,38.7z"/>
	<path class="st3" d="M28.7,36.8l0.9-0.2l0.2,0.9l-0.9,0.2L28.7,36.8z"/>
	<path class="st7" d="M22.3,38.6l0.9-2l-2-0.9l-0.9,2"/>
	<path class="st5" d="M25.1,39.4l0.7-1.6l-1.6-0.7l-0.7,1.6"/>
	<path class="st9" d="M23.7,35.6l0.7-1.6l-1.6-0.7l-0.7,1.6"/>
	<path class="st7" d="M24.5,36.2l0.5-1.2l1.2,0.5l-0.5,1.2L24.5,36.2z"/>
	<path class="st3" d="M27.4,39.8l0.5-1.2L26.7,38l-0.5,1.2"/>
	<path class="st4" d="M23.9,32.7l0.5-1.2l1.2,0.5l-0.5,1.2L23.9,32.7z"/>
	<path class="st8" d="M26.5,36.9l0.5-1.2l1.2,0.5l-0.5,1.2L26.5,36.9z"/>
	<path class="st5" d="M25.5,34.1l0.5-1.2l1.2,0.5l-0.5,1.2L25.5,34.1z"/>
	<path class="st10" d="M28.2,35.5l0.4-0.9l-0.9-0.4l-0.4,0.9"/>
	<path class="st6" d="M27.8,32.9l0.4-0.9l-0.9-0.4L27,32.5"/>
	<path class="st7" d="M21.1,29.3l1.9-1.1l-1.1-1.9L20,27.5"/>
	<path class="st6" d="M22.8,31.6l1.5-0.8l-0.8-1.5L22,30.2"/>
	<path class="st10" d="M24,27.8l1.5-0.8l-0.8-1.5l-1.5,0.8"/>
	<path class="st9" d="M25,29.9l1.2-0.7l-0.7-1.2l-1.2,0.7"/>
	<path class="st6" d="M26.5,26.7l1.2-0.7L27,24.8l-1.2,0.7"/>
	<path class="st7" d="M26.1,31.6l1.2-0.7l-0.7-1.2l-1.2,0.7"/>
	<path class="st5" d="M27,28.8l1.2-0.7l-0.7-1.2l-1.2,0.7"/>
	<path class="st3" d="M27.7,30.3l0.8-0.5L28,29l-0.8,0.5"/>
	<path class="st6" d="M28.9,28l0.8-0.5l-0.5-0.8l-0.8,0.5"/>
	<path class="st6" d="M25.5,21.2l0.2-2.1l2.1,0.2l-0.2,2.1L25.5,21.2z"/>
	<path class="st3" d="M25.6,24.1l0.2-1.7l1.7,0.2l-0.2,1.7L25.6,24.1z"/>
	<path class="st7" d="M28.8,21.6l0.2-1.7l1.7,0.2l-0.2,1.7L28.8,21.6z"/>
	<path class="st5" d="M28.4,23.9l0.1-1.3l1.3,0.1L29.7,24L28.4,23.9z"/>
	<path class="st9" d="M31.5,22.2l0.1-1.3L33,21l-0.1,1.3L31.5,22.2z"/>
	<path class="st7" d="M28.3,25.9l0.1-1.3l1.3,0.1l-0.1,1.3L28.3,25.9z"/>
	<path class="st6" d="M30.6,24.1l0.1-1.3l1.3,0.1L32,24.3L30.6,24.1z"/>
	<path class="st10" d="M30.3,25.8l0.1-0.9l0.9,0.1l-0.1,0.9L30.3,25.8z"/>
	<path class="st3" d="M32.7,24.6l0.1-0.9l0.9,0.1l-0.1,0.9L32.7,24.6z"/>
	<path class="st3" d="M42.8,33.5c-1.1-0.6-2.7-0.8-4.3-0.2c-0.7,0.3-1.4,0.7-2,1.2c-0.4-2.3-0.2-4.4-0.1-5.4c0,0,0,0,0,0
		c0.8,0.5,0.6,1.9,0.4,2.3c0,0,0,0,0,0c1-1.2,0.5-2.5,0.3-2.8c0,0,0.2,0.1,0.4,0.4c0.7,0.9,0.4,1.9,0.4,1.9l0,0
		c0.5-0.9,0.3-2.1-0.6-2.9c0,0,0.1,0,0.2,0c0.8,0.3,1.2,1.1,1.2,1.9c0,0.2,0.5-1.4-0.8-2.2c-0.2-0.1-0.5-0.2-0.7-0.2
		c-0.1,0,0.7-0.1,1.3,0.3c0.3,0.2,0.4,0.5,0.4,0.4c-0.1-1.1-1.4-1.5-2.1-1.2c-0.1,0,0.3-0.5,1-0.5c0.1,0,0.3,0,0.4,0.1c0,0,0,0,0,0
		c-0.5-0.6-1.5-0.6-2,0.1c0,0,0,0,0,0c-0.2-0.3-0.3-0.7-0.4-1.1c0-0.1,0,0.5-0.4,1.1c0,0,0,0,0,0c-0.5-0.7-1.4-0.7-2-0.1v0
		c0.4-0.2,1.1-0.1,1.4,0.4c0,0,0,0,0,0c-0.8-0.3-2,0.1-2.1,1.2c0,0,0,0,0,0c0-0.1,0.1-0.2,0.3-0.3c0.6-0.5,1.6-0.4,1.5-0.4
		c-0.4,0-1.2,0.4-1.5,1.2c-0.2,0.6,0,1.5,0,1.3c0-0.7,0.4-1.7,1.4-1.9c0,0,0,0,0,0c-1.6,1.4-0.6,3-0.6,2.9c0-0.5-0.1-1.5,0.8-2.2h0
		c-0.2,0.3-0.7,1.7,0.3,2.8h0c-0.2-0.4-0.4-1.8,0.4-2.3c0,0,0,0,0,0c0.1,1,0.3,3.2-0.1,5.4c-1.3-1-2.5-1.6-4.2-1.6
		c-0.8,0-1.6,0.3-2.1,0.6c0,0,0,0,0,0c2.3-0.8,4.4,0.2,6.3,1.7c-1,0.8-1.8,1.7-2.3,2c-0.1-0.2-0.3-0.2-0.5-0.2
		c-0.4,0.1-0.5,0.6-0.3,0.8c0.8,0.8,2.1-0.8,3.7-2.2c1.5,1.3,2.8,3,3.7,2.2c0.1-0.1,0.1-0.3,0.1-0.4c-0.1-0.4-0.7-0.6-0.9-0.2
		c-0.5-0.2-1.3-1.1-2.3-2C38.4,33.7,40.4,32.8,42.8,33.5C42.8,33.6,42.8,33.5,42.8,33.5"/>
	<path class="st3" d="M35.2,56.1h0.6v-5.5h-0.6V56.1z M19.1,55.5l-1-2.3c1-0.8,2.2-0.7,3,0l-1,2.3H19.1z M15.7,55.5
		c-0.5,0-0.8,0-1.3-0.1c-1.7-0.5-1.2-2.8,0.6-2.8h0.6V55.5z M32.8,55.5c-1,0-1.9,0.2-2.3-0.6c0.1-0.4,0-0.7,0-2.5h-0.6v2.1
		c0,1.5-1.9,1.4-2.3,0.5c-0.2-0.4-0.1-0.5-0.1-2.6h-0.6v2.1c0,0.7-0.4,1-1,1h-1.2v-3.2h-0.6v3.2h-3.2l1.1-2.6c-0.6-0.5-1.5-1-2.3-1
		c-0.8,0-1.7,0.5-2.3,1l1.1,2.6h-2.1v-3.6h-1c-1.4,0-2.5,0.8-2.5,2.1c0,2.3,2.9,2.1,2.9,2.1c0,0.1,0.1,0.6-0.3,0.9
		c-0.3,0.2-0.9,0.2-1.3,0.1c-0.1,0-0.3-0.1-0.5-0.2l-0.2,0.6c0.4,0.1,0.8,0.3,1.2,0.3c1.2,0,1.7-0.6,1.7-1.6v-0.1
		c10-0.1,9.7,0.1,10.4-0.2c0.2-0.1,0.4-0.3,0.6-0.5c0.1,0.2,0.3,0.4,0.6,0.6c0.5,0.3,1.4,0.3,1.9,0c0.2-0.1,0.5-0.3,0.6-0.6
		c0.2,0.4,0.6,0.7,1.3,0.7l0,0h1.8v-5.5h-0.6L32.8,55.5L32.8,55.5z M88,55.2c-0.5,1.3-2.4,1.3-3,0c-0.1-0.4-0.1-0.8,0-1.2
		c0.7-1.6,3.1-1.2,3.1,0.6C88.1,54.8,88.1,55,88,55.2 M82,55.2c-0.5,1.1-1.9,1.3-2.6,0.5c-0.6-0.6-0.6-1.7,0-2.3
		c0.5-0.5,1.2-0.6,1.8-0.3C82.1,53.5,82.4,54.4,82,55.2 M67.1,55.5c-0.5,0-0.8,0-1.3-0.1c-1.6-0.5-1.2-2.8,0.6-2.8h0.6V55.5
		L67.1,55.5z M90.7,55.5h-2.1c0.7-1.5-0.4-3.1-2.1-3.1c-1.6,0-2.6,1.6-2,3.1h-1.9c0.6-1.4-0.3-3.1-2.1-3.1c-1.6,0-2.6,1.6-2,3.1h-2
		v-4.9H76v4.9h-2c0-0.6,0.1-1.6-0.4-2.1c-0.3-0.4-0.8-0.5-1.3-0.5h-2.7l1.2-2.2h-0.7l-1.2,2.2c0,0.2,0.1,0.4,0.3,0.6
		c3.1,0,3.3-0.1,3.6,0.1c0.3,0.1,0.5,0.3,0.5,0.6c0.1,0.3,0,0.5,0,1.4h-5.7V52h-1c-1.6,0-2.5,1-2.5,2.1c0,1.4,1.1,2.1,2.5,2.1h12.2
		c0.9,1,2.4,0.9,3.3,0h2.7c0.9,1,2.4,0.9,3.3,0h3.1v-5.5h-0.6L90.7,55.5L90.7,55.5z M93,56.1h0.6v-5.5H93V56.1z M47.8,57.5h0.6v-0.6
		h-0.6V57.5z M53.8,55.5l-1-2.3c1-0.8,2.2-0.7,3,0l-1,2.3H53.8z M58.1,55.5h-2.6l1.1-2.6c-0.6-0.5-1.5-1-2.3-1c-0.8,0-1.7,0.5-2.3,1
		l1.1,2.6h-2.3v-3.6h-0.6v4.3c0,0.5,0,0.9-0.6,0.9c-0.1,0-0.2,0-0.3,0l-0.2,0.6c0.5,0.1,1.1,0.1,1.4-0.3c0.3-0.4,0.2-1,0.2-1.3h7.9
		v-5.5h-0.6L58.1,55.5L58.1,55.5z M11.4,52.5c-0.7-0.7-1.5-0.5-1.8-0.5v0.6c0.4,0,0.7,0,1,0.1c0.2,0.1,0.4,0.3,0.5,0.6
		c0.1,0.3,0,0.6,0,2.2H8.3v0.6h3.5c0-2.3,0.1-2.6-0.1-3.1C11.7,52.8,11.6,52.6,11.4,52.5 M45.5,57.5h0.6v-0.6h-0.6V57.5z M41.8,55.5
		c-0.5,0-0.8,0-1.3-0.1c-1.6-0.5-1.2-2.8,0.6-2.8h0.6V55.5z M48.4,51.9h-0.6v3.6h-2.3v-3.6h-0.6v3.6h-2.4v-3.6
		c-0.8,0-1.9-0.1-2.8,0.6c-1.3,1.1-0.9,3.6,1.9,3.6h7L48.4,51.9L48.4,51.9z M44.4,57.5h0.6v-0.6h-0.6V57.5z M3.3,50.6H2.7v0.6h0.6
		C3.3,51.2,3.3,50.6,3.3,50.6z M66.6,50.6H66v0.6h0.6V50.6z M42.4,50.6h-0.6v0.6h0.6V50.6z M7,57.5h0.6v-0.6H7V57.5z M41.3,50.6
		h-0.6v0.6h0.6V50.6z M4.4,50.6H3.8v0.6h0.6C4.4,51.2,4.4,50.6,4.4,50.6z M5.9,57.5h0.6v-0.6H5.9V57.5z M3.8,55.5
		c-0.5,0-0.8,0-1.3-0.1c-1.6-0.5-1.2-2.8,0.6-2.8h0.6V55.5z M7.5,51.9H6.9v3.6H4.4v-3.6c-0.7,0-1.3-0.1-2,0.1
		c-0.6,0.2-1.1,0.5-1.3,1.1c-0.3,0.6-0.2,1.3,0,1.8c0.4,0.8,1.4,1.1,2.3,1.1h4C7.5,56.1,7.5,51.9,7.5,51.9z M60.5,56.1h0.6v-5.5
		h-0.6V56.1z M67.7,50.6H67v0.6h0.6V50.6z"/>
	<path class="st3" d="M1.5,60.1h0.8v2.2l2.1-2.2h0.9L3.5,62l1.9,2.5H4.5l-1.5-2l-0.7,0.7v1.3H1.5"/>
	<path class="st3" d="M6.1,60.1h0.8v4.4H6.1V60.1z"/>
	<path class="st3" d="M8.1,60.1h0.7l2.3,3v-3h0.8v4.4h-0.6l-2.4-3.1v3.1H8.1"/>
	<path class="st3" d="M12.9,62.3L12.9,62.3c0-1.2,0.9-2.3,2.3-2.3c0.8,0,1.2,0.2,1.7,0.6l-0.5,0.6c-1.2-1-2.6-0.3-2.6,1.1v0
		c0,0.9,0.6,1.6,1.5,1.6c0.4,0,0.8-0.1,1.1-0.3v-0.8h-1.1v-0.7H17v1.8C15.4,65.2,12.9,64.6,12.9,62.3"/>
	<path class="st3" d="M19.7,63.8c2.1,0,2-3,0-3h-0.9v3H19.7z M18,60.1h1.6c3.1,0,3.1,4.4,0,4.4H18V60.1z"/>
	<path class="st3" d="M26.5,62.3L26.5,62.3c0-0.9-0.6-1.6-1.5-1.6s-1.5,0.7-1.5,1.6v0c0,0.8,0.6,1.6,1.5,1.6
		C25.9,63.9,26.5,63.2,26.5,62.3 M22.7,62.3L22.7,62.3c0-1.2,1-2.3,2.3-2.3c1.4,0,2.3,1,2.3,2.2v0c0,1.2-1,2.3-2.3,2.3
		C23.7,64.6,22.7,63.6,22.7,62.3"/>
	<path class="st3" d="M28.3,60.1h0.8l1.3,2.1l1.3-2.1h0.8v4.4h-0.8v-3.1l-1.4,2.1h0L29,61.4v3.1h-0.8"/>
	<path class="st3" d="M39.2,62.3L39.2,62.3c0-0.9-0.6-1.6-1.5-1.6c-0.9,0-1.5,0.7-1.5,1.6v0c0,0.8,0.6,1.6,1.5,1.6
		C38.6,63.9,39.2,63.2,39.2,62.3 M35.4,62.3L35.4,62.3c0-1.2,1-2.3,2.3-2.3c1.4,0,2.3,1,2.3,2.2v0c0,1.2-1,2.3-2.3,2.3
		C36.3,64.6,35.4,63.6,35.4,62.3"/>
	<path class="st3" d="M41,60.1h3.3v0.7h-2.5V62H44v0.7h-2.2v1.8H41"/>
	<path class="st3" d="M46.7,63.9l0.5-0.5c0.4,0.4,0.8,0.6,1.4,0.6c0.5,0,0.8-0.2,0.8-0.5l0,0c0-1-2.4-0.3-2.4-2v0
		c0-1.3,1.9-1.7,3.1-0.7l-0.4,0.6c-1-0.7-1.9-0.4-1.9,0.1v0c0,1,2.4,0.3,2.4,2v0C50.1,64.8,47.9,65,46.7,63.9"/>
	<path class="st3" d="M53.5,62.8L52.8,61L52,62.8H53.5z M52.4,60.1h0.7l1.9,4.4h-0.8l-0.4-1.1h-2.1l-0.4,1.1h-0.8L52.4,60.1z"/>
	<path class="st3" d="M55.5,62.6v-2.5h0.8v2.5c0,0.8,0.4,1.3,1.1,1.3c0.7,0,1.1-0.4,1.1-1.2v-2.5h0.8v2.5c0,1.3-0.7,2-1.9,2
		C56.3,64.6,55.5,63.9,55.5,62.6"/>
	<path class="st3" d="M62.1,63.8c2.1,0,2-3,0-3h-0.9v3H62.1z M60.4,60.1H62c3.1,0,3.1,4.4,0,4.4h-1.6V60.1z"/>
	<path class="st3" d="M65.4,60.1h0.8v4.4h-0.8V60.1z"/>
	<path class="st3" d="M71.9,62.8L71.1,61l-0.7,1.8H71.9z M70.7,60.1h0.7l1.9,4.4h-0.8l-0.4-1.1H70l-0.4,1.1h-0.8L70.7,60.1z"/>
	<path class="st3" d="M76,62.3c0.5,0,0.9-0.3,0.9-0.7v0c0-0.5-0.3-0.7-0.9-0.7h-1.1v1.5H76L76,62.3z M74.1,60.1h2
		c0.9,0,1.6,0.5,1.6,1.4c0,0,0.1,1-1,1.3l1.2,1.7h-0.9L75.9,63c-0.1,0-1,0-1,0v1.5h-0.8L74.1,60.1L74.1,60.1z"/>
	<path class="st3" d="M81.5,62.8L80.7,61L80,62.8H81.5z M80.3,60.1h0.7l1.9,4.4h-0.8l-0.4-1.1h-2.1l-0.4,1.1h-0.8L80.3,60.1z"/>
	<path class="st3" d="M85.8,63.8c0.5,0,0.8-0.2,0.8-0.6v0c0-0.4-0.3-0.6-0.9-0.6h-1.2v1.2H85.8z M85.5,62c0.5,0,0.8-0.2,0.8-0.6v0
		c0-0.3-0.3-0.6-0.8-0.6h-1.1V62L85.5,62L85.5,62z M83.7,60.1h2c0.8,0,1.4,0.4,1.4,1.1c0,0,0.1,0.6-0.6,1c0.5,0.2,0.9,0.5,0.9,1.1v0
		c0,0.8-0.6,1.2-1.6,1.2h-2L83.7,60.1L83.7,60.1z"/>
	<path class="st3" d="M88.3,60.1h0.8v4.4h-0.8V60.1z"/>
	<path class="st3" d="M92.9,62.8L92.1,61l-0.7,1.8H92.9z M91.8,60.1h0.7l1.9,4.4h-0.8l-0.4-1.1h-2.1l-0.4,1.1h-0.8L91.8,60.1z"/>
</g>
</svg>
