<svg width="242" height="50" viewBox="0 0 242 50" fill="none" xmlns="http://www.w3.org/2000/svg">
<path d="M41 4H9C6.24 4 4 6.24 4 9V41C4 43.76 6.24 46 9 46H41C43.76 46 46 43.76 46 41V9C46 6.24 43.76 4 41 4ZM17 20V39H11V20H17ZM11 14.47C11 13.07 12.2 12 14 12C15.8 12 16.93 13.07 17 14.47C17 15.87 15.88 17 14 17C12.2 17 11 15.87 11 14.47ZM39 39H33C33 39 33 29.74 33 29C33 27 32 25 29.5 24.96H29.42C27 24.96 26 27.02 26 29C26 29.91 26 39 26 39H20V20H26V22.56C26 22.56 27.93 20 31.81 20C35.78 20 39 22.73 39 28.26V39Z" fill="#0175CA"/>
<path d="M75 4C71.134 4 68 7.134 68 11V39C68 42.866 71.134 46 75 46H103C106.866 46 110 42.866 110 39V11C110 7.134 106.866 4 103 4H75ZM77.0859 13H85.0234L90.6602 21.0098L97.5 13H100L91.7891 22.6133L101.914 37H93.9785L87.4375 27.707L79.5 37H77L86.3086 26.1035L77.0859 13ZM80.9141 15L95.0215 35H98.0859L83.9785 15H80.9141Z" fill="#0175CA"/>
<g clip-path="url(#clip0_43_484)">
<rect x="132" y="4" width="42" height="42" rx="7" fill="#0175CA"/>
<path d="M166.171 11.0021C165.828 11.017 165.493 11.1119 165.192 11.2318C164.894 11.3509 163.176 12.079 160.64 13.156C158.103 14.233 154.806 15.6356 151.538 17.0263C145.001 19.8077 138.577 22.5445 138.577 22.5445L138.624 22.5267C138.624 22.5267 138.236 22.6554 137.843 22.9274C137.647 23.0634 137.435 23.239 137.262 23.495C137.089 23.7509 136.962 24.1137 137.01 24.4974C137.178 25.8451 138.584 26.2274 138.584 26.2274L138.59 26.2301L144.866 28.3636C145.026 28.8938 146.77 34.6736 147.153 35.8976C147.365 36.5744 147.563 36.9647 147.77 37.231C147.874 37.3643 147.982 37.4674 148.102 37.5428C148.15 37.5728 148.2 37.5953 148.249 37.6153H148.252C148.258 37.618 148.264 37.6182 148.27 37.6208L148.253 37.6167C148.265 37.6213 148.276 37.6291 148.288 37.6331C148.31 37.6409 148.324 37.6406 148.353 37.6468C149.071 37.896 149.666 37.4334 149.666 37.4334L149.691 37.4143L153.547 33.8627L159.804 38.708L159.882 38.7436C160.977 39.2265 161.968 38.9571 162.516 38.5138C163.065 38.0705 163.281 37.4991 163.281 37.4991L163.304 37.4389L167.902 13.6388C168.02 13.1063 168.036 12.6461 167.925 12.2302C167.814 11.8143 167.545 11.4527 167.207 11.2523C166.868 11.0519 166.514 10.9871 166.171 11.0021ZM166.208 12.4257C166.348 12.4193 166.451 12.4351 166.484 12.4544C166.516 12.4737 166.531 12.4712 166.562 12.5885C166.593 12.7057 166.61 12.9527 166.525 13.3393L166.522 13.3475L161.95 37.0095C161.94 37.0333 161.844 37.2522 161.627 37.428C161.405 37.6073 161.158 37.7472 160.503 37.4745L153.661 32.1751L153.468 32.0246L153.464 32.0287L151.418 30.5039L162.917 17.0673C163.006 16.9643 163.062 16.8381 163.08 16.704C163.097 16.5698 163.075 16.4335 163.017 16.3114C162.958 16.1893 162.865 16.0867 162.749 16.016C162.633 15.9453 162.498 15.9096 162.362 15.9131C162.229 15.9165 162.1 15.9573 161.989 16.0307L145.349 27.048L139.063 24.9104C139.063 24.9104 138.439 24.5654 138.409 24.3251C138.408 24.3118 138.4 24.3238 138.433 24.2759C138.465 24.2279 138.547 24.1469 138.649 24.0762C138.853 23.9347 139.087 23.8492 139.087 23.8492L139.11 23.841L139.133 23.8314C139.133 23.8314 145.557 21.0945 152.094 18.3132C155.362 16.9225 158.659 15.521 161.195 14.4443C163.73 13.3678 165.561 12.593 165.717 12.531C165.893 12.4608 166.069 12.4321 166.208 12.4257ZM158.582 19.9693L149.862 30.1592L149.858 30.1633C149.844 30.1796 149.831 30.1965 149.819 30.2139C149.805 30.2329 149.792 30.2525 149.781 30.2727C149.732 30.3553 149.7 30.447 149.688 30.5422C149.688 30.544 149.688 30.5458 149.688 30.5476L148.552 35.6214C148.533 35.5666 148.52 35.5465 148.5 35.4819V35.4805C148.139 34.3291 146.494 28.8781 146.266 28.1243L158.582 19.9693ZM150.846 31.8291L152.413 32.997L150.111 35.1167L150.846 31.8291Z" fill="white"/>
</g>
<rect x="196" y="4" width="42" height="42" rx="7" fill="#0175CA"/>
<path d="M230.067 16H207.333C205.72 16 204.4 17.3154 204.4 18.9231V20.0192C204.4 20.4212 204.73 20.75 205.133 20.75C205.537 20.75 205.867 20.4212 205.867 20.0192V18.9231C205.867 18.7769 205.903 18.6308 205.94 18.4846L214.153 25.5L205.94 32.5154C205.903 32.3692 205.867 32.2231 205.867 32.0769V30.9808C205.867 30.5788 205.537 30.25 205.133 30.25C204.73 30.25 204.4 30.5788 204.4 30.9808V32.0769C204.4 33.6846 205.72 35 207.333 35H230.067C231.68 35 233 33.6846 233 32.0769V18.9231C233 17.3154 231.68 16 230.067 16ZM207.04 17.4981C207.113 17.4615 207.223 17.4615 207.333 17.4615H230.067C230.177 17.4615 230.287 17.4615 230.36 17.4981L219.177 27.0346C218.883 27.2538 218.517 27.2538 218.223 27.0346L207.04 17.4981ZM230.067 33.5385H207.333C207.223 33.5385 207.113 33.5385 207.04 33.5019L215.29 26.45L217.27 28.1673C217.673 28.5327 218.187 28.7154 218.7 28.7154C219.213 28.7154 219.727 28.5327 220.13 28.1673L222.11 26.45L230.36 33.5019C230.287 33.5385 230.177 33.5385 230.067 33.5385ZM231.533 32.0769C231.533 32.2231 231.497 32.3692 231.46 32.5154L223.247 25.5L231.46 18.4846C231.497 18.6308 231.533 18.7769 231.533 18.9231V32.0769ZM202.2 23.6731C202.2 23.2712 202.53 22.9423 202.933 22.9423H207.333C207.737 22.9423 208.067 23.2712 208.067 23.6731C208.067 24.075 207.737 24.4038 207.333 24.4038H202.933C202.53 24.4038 202.2 24.075 202.2 23.6731ZM207.333 28.0577H200.733C200.33 28.0577 200 27.7288 200 27.3269C200 26.925 200.33 26.5962 200.733 26.5962H207.333C207.737 26.5962 208.067 26.925 208.067 27.3269C208.067 27.7288 207.737 28.0577 207.333 28.0577Z" fill="white"/>
<defs>
<clipPath id="clip0_43_484">
<rect x="132" y="4" width="42" height="42" rx="7" fill="white"/>
</clipPath>
</defs>
</svg>
