<svg width="97" height="65" viewBox="0 0 97 65" fill="none" xmlns="http://www.w3.org/2000/svg">
<path d="M69 37C69 41.7 65.6 45.1 60.2 45.1C55.8 45.1 52.7 43.3 50.6 40.9L54.3 37.4C56 39.3 57.7 40.3 60.2 40.3C62.2 40.3 63.7 39.1 63.7 37.3C63.7 37.3 64.1 34.1 58.9 34.1H56.7L55.9 30.7L63.8 22.8L60.7 24.8H52.2V20.2H68.8V24.3L62.6 30.2C65.8 30.7 69 32.4 69 37ZM53.7 9.00001C53.7 6.80001 55.3 5.00001 57.5 5.00001H60L59.3 5.30001C59.3 11.4 59.2 12.1 59.6 13H57.5C55.3 13 53.7 11.2 53.7 9.00001ZM57.5 14.1H59.7V13.3C59.9 13.6 60.1 13.8 60.4 13.9C61.1 14.2 60.6 14 81 14.1V4.00001H79.9V13C79.9 13 61.3 13.1 60.9 12.9C60.6 12.8 60.5 12.5 60.4 12.1C60.3 11.6 60.4 11.5 60.4 3.90001H57.5C54.5 3.90001 52.5 6.20001 52.5 8.90001C52.5 11.7 54.5 14.1 57.5 14.1ZM88.9 2.90001H86.6C86.6 2.10001 86.3 0.700012 87.9 0.700012H88.7V1.40001C88 1.40001 87.5 1.20001 87.5 1.80001V2.00001H89L88.9 2.90001ZM91.6 14.2C91.3 14.2 91 14.2 90.7 14.1L91 13.1C91.5 13.2 92.1 13.2 92.4 12.8C92.7 12.3 92.6 12.1 92.6 4.00001H93.7C93.7 11.6 93.8 11.8 93.6 12.6C93.4 13.7 92.7 14.2 91.6 14.2ZM60.4 2.90001H59.3V1.80001H60.4V2.90001ZM84.1 6.60001C84.6 5.60001 85.7 5.10001 86.7 5.10001H88.4L87.8 5.40001V10.2C87 10.2 86.4 10.3 85.6 10C84.5 9.70001 83.8 8.80001 83.8 7.70001C83.8 7.30001 83.9 6.90001 84.1 6.60001ZM84.1 10.4C85.5 11.4 87.4 11.2 87.5 11.2L87.9 10.4C87.9 11.1 88.1 12.2 87.4 12.7C86.8 13.1 85.8 13.1 85.2 13C84.9 12.9 84.6 12.8 84.3 12.7L84 13.7C84.7 13.9 85.3 14.1 86.1 14.1C87.1 14.1 87.9 13.9 88.4 13.4C88.9 12.9 89.1 12.2 89.1 11.4V4.00001C87.8 4.00001 86.8 3.90001 85.6 4.30001C82.1 5.40001 82.1 9.00001 84.1 10.4ZM58.3 2.90001H57.2V1.80001H58.3V2.90001ZM47.1 4.00001H48.2V14H47.3L40.2 5.00001L40.8 6.50001V14H39.7V4.00001H40.8L47.6 12.7L47.1 11.5V4.00001ZM5.30002 14.1L0.900024 4.00001H2.20002C2.30002 4.10001 5.70002 12.5 6.10002 13.4L6.00002 12.2L9.40002 4.00001H10.6L6.30002 14.1H5.30002ZM24.5 4.00001H25.6V14H24.5V4.00001ZM36.7 9.00001C36.7 11.3 35.1 13.1 32.7 13.1C30.3 13.1 28.7 11.2 28.7 8.90001C28.7 6.60001 30.4 4.80001 32.7 4.80001C35 4.80001 36.7 6.70001 36.7 9.00001ZM32.7 3.80001C29.6 3.80001 27.5 6.20001 27.5 9.00001C27.5 11.8 29.6 14.2 32.6 14.2C35.7 14.2 37.8 11.8 37.8 9.00001C37.9 6.20001 35.8 3.80001 32.7 3.80001ZM22.6 11.3C22.6 13.1 21.2 14.2 19.2 14.2C17.6 14.2 16.3 13.7 15.1 12.6L15.8 11.8C16.9 12.7 17.9 13.2 19.3 13.2C20.7 13.2 21.5 12.5 21.5 11.5C21.5 8.70001 15.5 10.5 15.5 6.70001C15.5 5.10001 16.9 4.00001 18.8 4.00001C20.3 4.00001 21.3 4.40001 22.3 5.20001L21.6 6.10001C19.3 4.20001 16.5 5.00001 16.5 6.60001C16.5 7.50001 17 8.10001 19.2 8.60001C21.6 9.00001 22.6 9.80001 22.6 11.3ZM13.3 14.1H12.2V4.00001H13.3V14.1ZM79.5 15.2H80.6V16.3H79.5V15.2ZM77.4 15.2H78.5V16.3H77.4V15.2ZM9.90002 40H19.2V44.6H1.10002V40.4C10.2 32.7 13.5 31.2 13.5 27.8C13.5 25.7 12.1 24.6 10.2 24.6C8.30002 24.6 7.00002 25.6 5.20002 27.9L1.40002 24.9C3.80002 21.6 6.20002 19.8 10.5 19.8C15.6 19.8 18.9 22.8 18.9 27.3V27.4C19 33.2 14.7 35 7.20002 41L6.20002 41.8L9.90002 40ZM90.8 32.5C90.8 36.7 87.8 40.1 83.5 40.1C79.2 40.1 76.1 36.6 76.1 32.4V32.3C76.1 28.1 79.1 24.7 83.4 24.7C87.7 24.7 90.8 28.2 90.8 32.5ZM83.5 19.8C75.9 19.8 70.5 25.5 70.5 32.4V32.5C70.5 39.4 75.9 45.1 83.5 45.1C91.1 45.1 96.5 39.4 96.5 32.5V32.4C96.4 25.4 91 19.8 83.5 19.8Z" fill="#878787"/>
<path d="M33.9001 18.2L35.1 19.4L34 20.6L32.8 19.4" fill="#29367B"/>
<path d="M36.7001 19.4L37.9001 20.6L39.1001 19.4L37.9001 18.2" fill="#878787"/>
<path d="M35 20.9L36 21.8L36.9 20.8L35.9 19.9" fill="#D0DA33"/>
<path d="M38.5 21.5L39.5 22.4L40.4 21.4L39.4 20.5" fill="#71BA44"/>
<path d="M33.4 22.4L34.4 23.3L35.3 22.3L34.3 21.4" fill="#D0DA33"/>
<path d="M36.7001 22.5L37.7001 23.4L38.6001 22.4L37.6001 21.5" fill="#27B8BE"/>
<path d="M35.4 23.6L36.1 24.2L36.7 23.5L36 23" fill="#71BA44"/>
<path d="M38 24.2L38.7 24.8L39.3 24.1L38.6 23.5" fill="#58B75E"/>
<path d="M43.5 19L45.6 18.6L46 20.7L43.9 21.1L43.5 19Z" fill="#3088C8"/>
<path d="M40.8 19.9L42.5 19.6L42.8 21.3L41.1 21.6L40.8 19.9Z" fill="#1E3871"/>
<path d="M44.1 22.2L45.8 21.9L46.1 23.6L44.4 23.9L44.1 22.2Z" fill="#27B8BE"/>
<path d="M41.7001 22.5L43.0001 22.3L43.2001 23.6L42.0001 23.8L41.7001 22.5Z" fill="#D0DA33"/>
<path d="M44.3 25L45.6 24.8L45.8 26.1L44.5 26.3L44.3 25Z" fill="#878787"/>
<path d="M39.8 23L41.1 22.8L41.3 24.1L40 24.3L39.8 23Z" fill="#27B8BE"/>
<path d="M42.2001 24.7L43.5001 24.5L43.7001 25.8L42.4001 26L42.2001 24.7Z" fill="#71BA44"/>
<path d="M40.5 24.9L41.4 24.7L41.6 25.6L40.7 25.8L40.5 24.9Z" fill="#878787"/>
<path d="M42.3 26.8L43.2001 26.6L43.4001 27.5L42.5 27.7L42.3 26.8Z" fill="#58B75E"/>
<path d="M49.8 25.9L48.9 27.8L50.8 28.7L51.7 26.8" fill="#29367B"/>
<path d="M47.1 25L46.4 26.6L48 27.3L48.7 25.7" fill="#27B8BE"/>
<path d="M48.3 28.8L47.6 30.4L49.2 31.1L49.9 29.5" fill="#71BA44"/>
<path d="M46.3001 27.6L45.7001 28.8L46.9001 29.4L47.5001 28.2" fill="#D0DA33"/>
<path d="M46.9001 31.2L46.3 32.4L47.5 33L48.1 31.8" fill="#D0DA33"/>
<path d="M44.4001 26.9L43.8 28.1L45 28.7L45.6 27.5" fill="#3088C8"/>
<path d="M45.3001 29.7L44.7001 30.9L45.9001 31.5L46.5001 30.3" fill="#878787"/>
<path d="M43.9 28.9L43.5 29.7L44.3 30.1L44.7 29.3" fill="#71BA44"/>
<path d="M43.8 32.3L44.2001 31.5L45 31.9L44.6 32.7L43.8 32.3Z" fill="#27B8BE"/>
<path d="M50.9 35.1L49 36.1L50 38L51.9 37" fill="#3088C8"/>
<path d="M49.1 32.8L47.6 33.6L48.4 35.1L49.9 34.3" fill="#27B8BE"/>
<path d="M47.9 36.6L46.4 37.4L47.2 38.9L48.7 38.1" fill="#27B8BE"/>
<path d="M47 34.5L45.8 35.1L46.4001 36.3L47.6 35.7" fill="#29367B"/>
<path d="M45.4001 37.7L44.2001 38.3L44.8001 39.5L46.0001 38.9" fill="#58B75E"/>
<path d="M45.9001 32.8L44.7001 33.4L45.3001 34.6L46.5001 34" fill="#1E3871"/>
<path d="M45 35.6L43.8 36.2L44.4001 37.4L45.6 36.8" fill="#D0DA33"/>
<path d="M44.3 34.1L43.5 34.5L43.9 35.3L44.7 34.9" fill="#878787"/>
<path d="M43.0001 36.4L42.2001 36.8L42.6001 37.6L43.4001 37.2" fill="#27B8BE"/>
<path d="M43.9 45.1L44.2 43L46.3 43.3L46 45.4L43.9 45.1Z" fill="#71BA44"/>
<path d="M44.4 41.8L44.6 40.1L46.3 40.3L46.1 42L44.4 41.8Z" fill="#1E3871"/>
<path d="M41.1 44.2L41.3 42.5L43 42.7L42.8 44.4L41.1 44.2Z" fill="#27B8BE"/>
<path d="M42 41.6L42.2 40.3L43.5 40.5L43.3 41.8L42 41.6Z" fill="#71BA44"/>
<path d="M38.8 43.3L39 42L40.3 42.2L40.1 43.5L38.8 43.3Z" fill="#878787"/>
<path d="M42.1 39.6L42.3 38.3L43.6 38.5L43.4 39.8L42.1 39.6Z" fill="#878787"/>
<path d="M39.7001 41.4L39.9001 40.1L41.2001 40.3L41.0001 41.6L39.7001 41.4Z" fill="#71BA44"/>
<path d="M40.5 39.4L40.6 38.5L41.5 38.6L41.4 39.5L40.5 39.4Z" fill="#878787"/>
<path d="M38.2001 40.5L38.3001 39.6L39.2001 39.7L39.1001 40.6L38.2001 40.5Z" fill="#878787"/>
<path d="M37.8001 47.1L36.2001 45.6L34.7001 47.2L36.3001 48.7" fill="#D0DA33"/>
<path d="M37.5 17.2L36 15.7L34.5 17.3L36.1 18.8" fill="#71BA44"/>
<path d="M39.5 44.8L38.2 43.6L37 44.9L38.3 46.1" fill="#27B8BE"/>
<path d="M35.5 44.9L34.2 43.7L33 45L34.3 46.2" fill="#71BA44"/>
<path d="M37.2001 43.3L36.2001 42.4L35.3 43.4L36.3 44.3" fill="#3088C8"/>
<path d="M33.6001 42.8L32.6001 41.9L31.7001 42.9L32.7001 43.8" fill="#D0DA33"/>
<path d="M38.4 41.7L37.4 40.8L36.5 41.8L37.5 42.7" fill="#D0DA33"/>
<path d="M35.5 41.7L34.5 40.8L33.6 41.8L34.6 42.7" fill="#878787"/>
<path d="M36.7 40.6L36 40L35.4 40.7L36.1 41.3" fill="#1E3871"/>
<path d="M34.2 40.1L33.5 39.5L32.9 40.2L33.6 40.8" fill="#878787"/>
<path d="M26.1 43.7L28.2 43.3L28.6 45.4L26.5 45.8L26.1 43.7Z" fill="#3088C8"/>
<path d="M29.4 43.1L31.1 42.8L31.4 44.5L29.7 44.8L29.4 43.1Z" fill="#27B8BE"/>
<path d="M26.1 40.8L27.8 40.5L28.1 42.2L26.4 42.5L26.1 40.8Z" fill="#71BA44"/>
<path d="M28.8 40.8L30.1 40.5L30.4 41.8L29.1 42.1L28.8 40.8Z" fill="#D0DA33"/>
<path d="M30.8 40.2L32.1 39.9L32.4001 41.2L31.1 41.5L30.8 40.2Z" fill="#29367B"/>
<path d="M28.4 38.6L29.7 38.3L30 39.6L28.7 39.9L28.4 38.6Z" fill="#3088C8"/>
<path d="M30.5 38.7L31.4 38.5L31.6 39.4L30.7 39.6L30.5 38.7Z" fill="#71BA44"/>
<path d="M28.7001 36.8L29.6001 36.6L29.8001 37.5L28.9001 37.7L28.7001 36.8Z" fill="#878787"/>
<path d="M22.3 38.6L23.2001 36.6L21.2001 35.7L20.3 37.7" fill="#27B8BE"/>
<path d="M25.1 39.4L25.8 37.8L24.2 37.1L23.5 38.7" fill="#D0DA33"/>
<path d="M23.7 35.6L24.4 34L22.8 33.3L22.1 34.9" fill="#3088C8"/>
<path d="M24.5 36.2L25 35L26.2 35.5L25.7 36.7L24.5 36.2Z" fill="#27B8BE"/>
<path d="M27.4001 39.8L27.9001 38.6L26.7001 38L26.2001 39.2" fill="#878787"/>
<path d="M23.9 32.7L24.4 31.5L25.6 32L25.1 33.2L23.9 32.7Z" fill="#29367B"/>
<path d="M26.5 36.9L27 35.7L28.2 36.2L27.7 37.4L26.5 36.9Z" fill="#58B75E"/>
<path d="M25.5 34.1L26 32.9L27.2 33.4L26.7 34.6L25.5 34.1Z" fill="#D0DA33"/>
<path d="M28.2001 35.5L28.6 34.6L27.7001 34.2L27.3 35.1" fill="#1E3871"/>
<path d="M27.8 32.9L28.2 32L27.3 31.6L27 32.5" fill="#71BA44"/>
<path d="M21.1 29.3L23 28.2L21.9 26.3L20 27.5" fill="#27B8BE"/>
<path d="M22.8 31.6L24.3 30.8L23.5 29.3L22 30.2" fill="#71BA44"/>
<path d="M24.0001 27.8L25.5001 27L24.7001 25.5L23.2001 26.3" fill="#1E3871"/>
<path d="M25 29.9L26.2001 29.2L25.5 28L24.3 28.7" fill="#3088C8"/>
<path d="M26.5 26.7L27.7001 26L27 24.8L25.8 25.5" fill="#71BA44"/>
<path d="M26.1 31.6L27.3 30.9L26.6 29.7L25.4 30.4" fill="#27B8BE"/>
<path d="M27 28.8L28.2001 28.1L27.5 26.9L26.3 27.6" fill="#D0DA33"/>
<path d="M27.7001 30.3L28.5001 29.8L28.0001 29L27.2001 29.5" fill="#878787"/>
<path d="M28.9 28L29.7 27.5L29.2 26.7L28.4 27.2" fill="#71BA44"/>
<path d="M25.5 21.2L25.7 19.1L27.8 19.3L27.6 21.4L25.5 21.2Z" fill="#71BA44"/>
<path d="M25.6 24.1L25.8 22.4L27.5 22.6L27.3 24.3L25.6 24.1Z" fill="#878787"/>
<path d="M28.8 21.6L29 19.9L30.7001 20.1L30.5 21.8L28.8 21.6Z" fill="#27B8BE"/>
<path d="M28.4 23.9L28.5 22.6L29.8 22.7L29.7 24L28.4 23.9Z" fill="#D0DA33"/>
<path d="M31.5 22.2L31.6 20.9L33 21L32.9 22.3L31.5 22.2Z" fill="#3088C8"/>
<path d="M28.3 25.9L28.4 24.6L29.7001 24.7L29.6 26L28.3 25.9Z" fill="#27B8BE"/>
<path d="M30.6 24.1L30.7 22.8L32 22.9V24.3L30.6 24.1Z" fill="#71BA44"/>
<path d="M30.3 25.8L30.4 24.9L31.3 25L31.2001 25.9L30.3 25.8Z" fill="#1E3871"/>
<path d="M32.7001 24.6L32.8001 23.7L33.7001 23.8L33.6001 24.7L32.7001 24.6Z" fill="#878787"/>
<path d="M42.8 33.5C41.7 32.9 40.1 32.7 38.5 33.3C37.8 33.6 37.1 34 36.5 34.5C36.1 32.2 36.3 30.1 36.4 29.1C37.2 29.6 37 31 36.8 31.4C37.8 30.2 37.3 28.9 37.1 28.6C37.1 28.6 37.3 28.7 37.5 29C38.2 29.9 37.9 30.9 37.9 30.9C38.4 30 38.2 28.8 37.3 28C37.3 28 37.4 28 37.5 28C38.3 28.3 38.7 29.1 38.7 29.9C38.7 30.1 39.2 28.5 37.9 27.7C37.7 27.6 37.4 27.5 37.2 27.5C37.1 27.5 37.9 27.4 38.5 27.8C38.8 28 38.9 28.3 38.9 28.2C38.8 27.1 37.5 26.7 36.8 27C36.7 27 37.1 26.5 37.8 26.5C37.9 26.5 38.1 26.5 38.2 26.6C37.7 26 36.7 26 36.2 26.7C36 26.4 35.9 26 35.8 25.6C35.8 25.5 35.8 26.1 35.4 26.7C34.9 26 34 26 33.4 26.6C33.8 26.4 34.5 26.5 34.8 27C34 26.7 32.8 27.1 32.7 28.2C32.7 28.1 32.8 28 33 27.9C33.6 27.4 34.6 27.5 34.5 27.5C34.1 27.5 33.3 27.9 33 28.7C32.8 29.3 33 30.2 33 30C33 29.3 33.4 28.3 34.4 28.1C32.8 29.5 33.8 31.1 33.8 31C33.8 30.5 33.7 29.5 34.6 28.8C34.4 29.1 33.9 30.5 34.9 31.6C34.7 31.2 34.5 29.8 35.3 29.3C35.4 30.3 35.6 32.5 35.2 34.7C33.9 33.7 32.7 33.1 31 33.1C30.2 33.1 29.4 33.4 28.9 33.7C31.2 32.9 33.3 33.9 35.2 35.4C34.2 36.2 33.4 37.1 32.9 37.4C32.8 37.2 32.6 37.2 32.4 37.2C32 37.3 31.9 37.8 32.1 38C32.9 38.8 34.2 37.2 35.8 35.8C37.3 37.1 38.6 38.8 39.5 38C39.6 37.9 39.6 37.7 39.6 37.6C39.5 37.2 38.9 37 38.7 37.4C38.2 37.2 37.4 36.3 36.4 35.4C38.4 33.7 40.4 32.8 42.8 33.5Z" fill="#878787"/>
<path d="M35.2 56.1H35.8V50.6H35.2V56.1ZM19.1 55.5L18.1 53.2C19.1 52.4 20.3 52.5 21.1 53.2L20.1 55.5H19.1ZM15.7 55.5C15.2 55.5 14.9 55.5 14.4 55.4C12.7 54.9 13.2 52.6 15 52.6H15.6V55.5H15.7ZM32.8 55.5C31.8 55.5 30.9 55.7 30.5 54.9C30.6 54.5 30.5 54.2 30.5 52.4H29.9V54.5C29.9 56 28 55.9 27.6 55C27.4 54.6 27.5 54.5 27.5 52.4H26.9V54.5C26.9 55.2 26.5 55.5 25.9 55.5H24.7V52.3H24.1V55.5H20.9L22 52.9C21.4 52.4 20.5 51.9 19.7 51.9C18.9 51.9 18 52.4 17.4 52.9L18.5 55.5H16.4V51.9H15.4C14 51.9 12.9 52.7 12.9 54C12.9 56.3 15.8 56.1 15.8 56.1C15.8 56.2 15.9 56.7 15.5 57C15.2 57.2 14.6 57.2 14.2 57.1C14.1 57.1 13.9 57 13.7 56.9L13.5 57.5C13.9 57.6 14.3 57.8 14.7 57.8C15.9 57.8 16.4 57.2 16.4 56.2V56.1C26.4 56 26.1 56.2 26.8 55.9C27 55.8 27.2 55.6 27.4 55.4C27.5 55.6 27.7 55.8 28 56C28.5 56.3 29.4 56.3 29.9 56C30.1 55.9 30.4 55.7 30.5 55.4C30.7 55.8 31.1 56.1 31.8 56.1H33.6V50.6H33L32.8 55.5ZM88 55.2C87.5 56.5 85.6 56.5 85 55.2C84.9 54.8 84.9 54.4 85 54C85.7 52.4 88.1 52.8 88.1 54.6C88.1 54.8 88.1 55 88 55.2ZM82 55.2C81.5 56.3 80.1 56.5 79.4 55.7C78.8 55.1 78.8 54 79.4 53.4C79.9 52.9 80.6 52.8 81.2 53.1C82.1 53.5 82.4 54.4 82 55.2ZM67.1 55.5C66.6 55.5 66.3 55.5 65.8 55.4C64.2 54.9 64.6 52.6 66.4 52.6H67V55.5H67.1ZM90.7 55.5H88.6C89.3 54 88.2 52.4 86.5 52.4C84.9 52.4 83.9 54 84.5 55.5H82.6C83.2 54.1 82.3 52.4 80.5 52.4C78.9 52.4 77.9 54 78.5 55.5H76.5V50.6H76V55.5H74C74 54.9 74.1 53.9 73.6 53.4C73.3 53 72.8 52.9 72.3 52.9H69.6L70.8 50.7H70.1L68.9 52.9C68.9 53.1 69 53.3 69.2 53.5C72.3 53.5 72.5 53.4 72.8 53.6C73.1 53.7 73.3 53.9 73.3 54.2C73.4 54.5 73.3 54.7 73.3 55.6H67.6V52H66.6C65 52 64.1 53 64.1 54.1C64.1 55.5 65.2 56.2 66.6 56.2H78.8C79.7 57.2 81.2 57.1 82.1 56.2H84.8C85.7 57.2 87.2 57.1 88.1 56.2H91.2V50.7H90.6L90.7 55.5ZM93 56.1H93.6V50.6H93V56.1ZM47.8 57.5H48.4V56.9H47.8V57.5ZM53.8 55.5L52.8 53.2C53.8 52.4 55 52.5 55.8 53.2L54.8 55.5H53.8ZM58.1 55.5H55.5L56.6 52.9C56 52.4 55.1 51.9 54.3 51.9C53.5 51.9 52.6 52.4 52 52.9L53.1 55.5H50.8V51.9H50.2V56.2C50.2 56.7 50.2 57.1 49.6 57.1C49.5 57.1 49.4 57.1 49.3 57.1L49.1 57.7C49.6 57.8 50.2 57.8 50.5 57.4C50.8 57 50.7 56.4 50.7 56.1H58.6V50.6H58L58.1 55.5ZM11.4 52.5C10.7 51.8 9.89998 52 9.59998 52V52.6C9.99998 52.6 10.3 52.6 10.6 52.7C10.8 52.8 11 53 11.1 53.3C11.2 53.6 11.1 53.9 11.1 55.5H8.29998V56.1H11.8C11.8 53.8 11.9 53.5 11.7 53C11.7 52.8 11.6 52.6 11.4 52.5ZM45.5 57.5H46.1V56.9H45.5V57.5ZM41.8 55.5C41.3 55.5 41 55.5 40.5 55.4C38.9 54.9 39.3 52.6 41.1 52.6H41.7V55.5H41.8ZM48.4 51.9H47.8V55.5H45.5V51.9H44.9V55.5H42.5V51.9C41.7 51.9 40.6 51.8 39.7 52.5C38.4 53.6 38.8 56.1 41.6 56.1H48.6L48.4 51.9ZM44.4 57.5H45V56.9H44.4V57.5ZM3.29998 50.6H2.69998V51.2H3.29998V50.6ZM66.6 50.6H66V51.2H66.6V50.6ZM42.4 50.6H41.8V51.2H42.4V50.6ZM6.99998 57.5H7.59998V56.9H6.99998V57.5ZM41.3 50.6H40.7V51.2H41.3V50.6ZM4.39998 50.6H3.79998V51.2H4.39998V50.6ZM5.89998 57.5H6.49998V56.9H5.89998V57.5ZM3.79998 55.5C3.29998 55.5 2.99998 55.5 2.49998 55.4C0.899984 54.9 1.29998 52.6 3.09998 52.6H3.69998V55.5H3.79998ZM7.49998 51.9H6.89998V55.5H4.39998V51.9C3.69998 51.9 3.09998 51.8 2.39998 52C1.79998 52.2 1.29998 52.5 1.09998 53.1C0.799984 53.7 0.899984 54.4 1.09998 54.9C1.49998 55.7 2.49998 56 3.39998 56H7.39998C7.49998 56.1 7.49998 51.9 7.49998 51.9ZM60.5 56.1H61.1V50.6H60.5V56.1ZM67.7 50.6H67V51.2H67.6V50.6H67.7Z" fill="#878787"/>
<path d="M1.5 60.1H2.3V62.3L4.4 60.1H5.3L3.5 62L5.4 64.5H4.5L3 62.5L2.3 63.2V64.5H1.5" fill="#878787"/>
<path d="M6.09998 60.1H6.89998V64.5H6.09998V60.1Z" fill="#878787"/>
<path d="M8.09998 60.1H8.79998L11.1 63.1V60.1H11.9V64.5H11.3L8.89997 61.4V64.5H8.09998" fill="#878787"/>
<path d="M12.9 62.3C12.9 61.1 13.8 60 15.2 60C16 60 16.4 60.2 16.9 60.6L16.4 61.2C15.2 60.2 13.8 60.9 13.8 62.3C13.8 63.2 14.4 63.9 15.3 63.9C15.7 63.9 16.1 63.8 16.4 63.6V62.8H15.3V62.1H17V63.9C15.4 65.2 12.9 64.6 12.9 62.3Z" fill="#878787"/>
<path d="M19.7 63.8C21.8 63.8 21.7 60.8 19.7 60.8H18.8V63.8H19.7ZM18 60.1H19.6C22.7 60.1 22.7 64.5 19.6 64.5H18V60.1Z" fill="#878787"/>
<path d="M26.5001 62.3C26.5001 61.4 25.9001 60.7 25.0001 60.7C24.1001 60.7 23.5001 61.4 23.5001 62.3C23.5001 63.1 24.1001 63.9 25.0001 63.9C25.9001 63.9 26.5001 63.2 26.5001 62.3ZM22.7001 62.3C22.7001 61.1 23.7001 60 25.0001 60C26.4001 60 27.3001 61 27.3001 62.2C27.3001 63.4 26.3001 64.5 25.0001 64.5C23.7001 64.6 22.7001 63.6 22.7001 62.3Z" fill="#878787"/>
<path d="M28.3001 60.1H29.1001L30.4001 62.2L31.7001 60.1H32.5001V64.5H31.7001V61.4L30.3001 63.5L29.0001 61.4V64.5H28.2001" fill="#878787"/>
<path d="M39.2 62.3C39.2 61.4 38.6 60.7 37.7 60.7C36.8 60.7 36.2 61.4 36.2 62.3C36.2 63.1 36.8 63.9 37.7 63.9C38.6 63.9 39.2 63.2 39.2 62.3ZM35.4 62.3C35.4 61.1 36.4 60 37.7 60C39.1 60 40 61 40 62.2C40 63.4 39 64.5 37.7 64.5C36.3 64.6 35.4 63.6 35.4 62.3Z" fill="#878787"/>
<path d="M41 60.1H44.3V60.8H41.8V62H44V62.7H41.8V64.5H41" fill="#878787"/>
<path d="M46.7001 63.9L47.2001 63.4C47.6001 63.8 48.0001 64 48.6001 64C49.1001 64 49.4001 63.8 49.4001 63.5C49.4001 62.5 47.0001 63.2 47.0001 61.5C47.0001 60.2 48.9001 59.8 50.1001 60.8L49.7001 61.4C48.7001 60.7 47.8001 61 47.8001 61.5C47.8001 62.5 50.2001 61.8 50.2001 63.5C50.1001 64.8 47.9001 65 46.7001 63.9Z" fill="#878787"/>
<path d="M53.5 62.8L52.8 61L52 62.8H53.5ZM52.4 60.1H53.1L55 64.5H54.2L53.8 63.4H51.7L51.3 64.5H50.5L52.4 60.1Z" fill="#878787"/>
<path d="M55.5 62.6V60.1H56.3V62.6C56.3 63.4 56.7 63.9 57.4 63.9C58.1 63.9 58.5 63.5 58.5 62.7V60.2H59.3V62.7C59.3 64 58.6 64.7 57.4 64.7C56.3 64.6 55.5 63.9 55.5 62.6Z" fill="#878787"/>
<path d="M62.1 63.8C64.2 63.8 64.1 60.8 62.1 60.8H61.2V63.8H62.1ZM60.4 60.1H62C65.1 60.1 65.1 64.5 62 64.5H60.4V60.1Z" fill="#878787"/>
<path d="M65.4 60.1H66.2V64.5H65.4V60.1Z" fill="#878787"/>
<path d="M71.9 62.8L71.1 61L70.4 62.8H71.9ZM70.7 60.1H71.4L73.3 64.5H72.5L72.1 63.4H70L69.6 64.5H68.8L70.7 60.1Z" fill="#878787"/>
<path d="M76 62.3C76.5 62.3 76.9 62 76.9 61.6C76.9 61.1 76.6 60.9 76 60.9H74.9V62.4H76V62.3ZM74.1 60.1H76.1C77 60.1 77.7 60.6 77.7 61.5C77.7 61.5 77.8 62.5 76.7 62.8L77.9 64.5H77L75.9 63C75.8 63 74.9 63 74.9 63V64.5H74.1V60.1Z" fill="#878787"/>
<path d="M81.5 62.8L80.7 61L80 62.8H81.5ZM80.3 60.1H81L82.9 64.5H82.1L81.7 63.4H79.6L79.2 64.5H78.4L80.3 60.1Z" fill="#878787"/>
<path d="M85.8001 63.8C86.3001 63.8 86.6001 63.6 86.6001 63.2C86.6001 62.8 86.3001 62.6 85.7001 62.6H84.5001V63.8H85.8001ZM85.5001 62C86.0001 62 86.3001 61.8 86.3001 61.4C86.3001 61.1 86.0001 60.8 85.5001 60.8H84.4001V62H85.5001ZM83.7001 60.1H85.7001C86.5001 60.1 87.1001 60.5 87.1001 61.2C87.1001 61.2 87.2001 61.8 86.5001 62.2C87.0001 62.4 87.4001 62.7 87.4001 63.3C87.4001 64.1 86.8001 64.5 85.8001 64.5H83.8001L83.7001 60.1Z" fill="#878787"/>
<path d="M88.3 60.1H89.1V64.5H88.3V60.1Z" fill="#878787"/>
<path d="M92.9 62.8L92.1 61L91.4 62.8H92.9ZM91.8 60.1H92.5L94.4 64.5H93.6L93.2 63.4H91.1L90.7 64.5H89.9L91.8 60.1Z" fill="#878787"/>
</svg>
